<svg width="60" height="60" viewBox="0 0 60 60" fill="none" xmlns="http://www.w3.org/2000/svg">
<circle cx="30" cy="30" r="30" fill="#EE5A6D"/>
<path d="M15.1913 36C14.9459 36 14.7326 35.9093 14.5513 35.728C14.3806 35.5467 14.2953 35.3333 14.2953 35.088V25.232C14.2953 24.9867 14.3806 24.7733 14.5513 24.592C14.7326 24.4107 14.9459 24.32 15.1913 24.32H15.5433C16.1513 24.32 16.5993 24.5867 16.8873 25.12L20.8393 32.256C20.8393 32.2667 20.8446 32.272 20.8553 32.272C20.8659 32.272 20.8713 32.2667 20.8713 32.256V25.232C20.8713 24.9867 20.9619 24.7733 21.1433 24.592C21.3246 24.4107 21.5379 24.32 21.7833 24.32H22.1353C22.3806 24.32 22.5886 24.4107 22.7593 24.592C22.9406 24.7733 23.0312 24.9867 23.0312 25.232V35.088C23.0312 35.3333 22.9406 35.5467 22.7593 35.728C22.5886 35.9093 22.3806 36 22.1353 36H21.7833C21.1753 36 20.7273 35.7333 20.4393 35.2L16.4873 28.064C16.4873 28.0533 16.4819 28.048 16.4713 28.048C16.4606 28.048 16.4553 28.0533 16.4553 28.064V35.088C16.4553 35.3333 16.3646 35.5467 16.1833 35.728C16.0019 35.9093 15.7886 36 15.5433 36H15.1913ZM26.4729 36C26.2275 36 26.0142 35.9093 25.8329 35.728C25.6515 35.5467 25.5609 35.3333 25.5609 35.088V25.232C25.5609 24.9867 25.6515 24.7733 25.8329 24.592C26.0142 24.4107 26.2275 24.32 26.4729 24.32H31.9129C32.1582 24.32 32.3715 24.4107 32.5529 24.592C32.7342 24.7733 32.8249 24.9867 32.8249 25.232C32.8249 25.4773 32.7342 25.6907 32.5529 25.872C32.3715 26.0427 32.1582 26.128 31.9129 26.128H27.9449C27.8489 26.128 27.8009 26.176 27.8009 26.272V28.848C27.8009 28.944 27.8489 28.992 27.9449 28.992H31.6409C31.8862 28.992 32.0889 29.0773 32.2489 29.248C32.4195 29.4187 32.5049 29.6213 32.5049 29.856C32.5049 30.0907 32.4195 30.2933 32.2489 30.464C32.0889 30.624 31.8862 30.704 31.6409 30.704H27.9449C27.8489 30.704 27.8009 30.752 27.8009 30.848V34.048C27.8009 34.144 27.8489 34.192 27.9449 34.192H31.9129C32.1582 34.192 32.3715 34.2827 32.5529 34.464C32.7342 34.6347 32.8249 34.8427 32.8249 35.088C32.8249 35.3333 32.7342 35.5467 32.5529 35.728C32.3715 35.9093 32.1582 36 31.9129 36H26.4729ZM36.6099 35.104L34.5619 25.216C34.5085 24.9813 34.5565 24.7733 34.7059 24.592C34.8659 24.4107 35.0632 24.32 35.2979 24.32H35.7619C36.0285 24.32 36.2579 24.4053 36.4499 24.576C36.6419 24.7467 36.7592 24.96 36.8019 25.216L38.1299 33.632C38.1299 33.6427 38.1352 33.648 38.1459 33.648C38.1672 33.648 38.1779 33.6427 38.1779 33.632L39.4579 25.216C39.5005 24.96 39.6179 24.7467 39.8099 24.576C40.0019 24.4053 40.2312 24.32 40.4979 24.32H41.4579C41.7245 24.32 41.9539 24.4053 42.1459 24.576C42.3379 24.7467 42.4552 24.96 42.4979 25.216L43.7939 33.632C43.7939 33.6427 43.7992 33.648 43.8099 33.648C43.8205 33.648 43.8259 33.6427 43.8259 33.632L45.1539 25.216C45.1965 24.96 45.3139 24.7467 45.5059 24.576C45.6979 24.4053 45.9272 24.32 46.1939 24.32H46.5939C46.8285 24.32 47.0205 24.4107 47.1699 24.592C47.3192 24.7733 47.3725 24.9813 47.3299 25.216L45.2819 35.104C45.2285 35.36 45.1005 35.5733 44.8979 35.744C44.6952 35.9147 44.4605 36 44.1939 36H43.3459C43.0792 36 42.8445 35.9147 42.6419 35.744C42.4499 35.5733 42.3325 35.36 42.2899 35.104L40.9619 26.688C40.9619 26.6773 40.9565 26.672 40.9459 26.672C40.9352 26.672 40.9299 26.6773 40.9299 26.688L39.6019 35.104C39.5592 35.36 39.4365 35.5733 39.2339 35.744C39.0419 35.9147 38.8125 36 38.5459 36H37.6979C37.4312 36 37.1965 35.9147 36.9939 35.744C36.7912 35.5733 36.6632 35.36 36.6099 35.104Z" fill="white"/>
</svg>
