<svg width="1310" height="726" viewBox="0 0 1310 726" fill="none" xmlns="http://www.w3.org/2000/svg">
<path d="M867.51 662.075C-22.722 908.769 -67.2726 373.731 52.3364 203.595C171.945 33.4594 438.917 101.015 564.765 125.46C690.613 149.904 867.51 81.0322 867.51 81.0322C867.51 81.0322 1021.61 0.472957 1121.13 12.1586C1220.66 23.8433 1295.12 78.1248 1308.62 186.392C1324.58 314.401 1203.49 569.863 867.51 662.075Z" fill="#DFF1FD"/>
<path d="M26.283 122.351C27.7473 127.278 33.0702 132.456 38.1161 133.885L41.5195 134.852C46.5654 136.262 46.5654 138.6 41.5195 140.01L38.1161 140.976C33.0702 142.405 27.7473 147.583 26.283 152.51L25.2936 155.852C23.8492 160.779 21.4547 160.779 20.0103 155.852L19.0209 152.51C17.5764 147.583 12.2535 142.405 7.20773 140.976L3.78441 140.01C-1.26147 138.6 -1.26147 136.262 3.78441 134.852L7.20773 133.885C12.2535 132.456 17.5764 127.278 19.0209 122.351L20.0103 119.009C21.4547 114.082 23.8492 114.082 25.2936 119.009L26.283 122.351Z" fill="#DFF1FD"/>
<path d="M86.9313 37.5155C89.9192 47.6777 100.763 58.4068 111.053 61.3382L118.038 63.3119C128.327 66.2629 128.327 71.0706 118.038 74.0019L111.053 75.9759C100.763 78.9072 89.9192 89.6364 86.9313 99.7984L84.9328 106.678C81.9646 116.859 77.0969 116.859 74.1287 106.678L72.1104 99.7984C69.1422 89.6364 58.2787 78.9072 47.9891 75.9759L41.0239 74.0019C30.7342 71.0706 30.7342 66.2629 41.0239 63.3119L47.9891 61.3382C58.2787 58.4068 69.1422 47.6777 72.1104 37.5155L74.1287 30.6364C77.0969 20.4545 81.9646 20.4545 84.9328 30.6364L86.9313 37.5155Z" fill="#DFF1FD"/>
<path d="M693.111 98.3649C688.7 98.3649 684.665 95.4488 683.469 91.0262C682.041 85.7455 685.203 80.3173 690.53 78.9008C706.408 74.6822 715.861 58.4488 711.604 42.7135C709.543 35.0918 704.609 28.7212 697.712 24.7767C690.817 20.8322 682.783 19.785 675.091 21.829C659.214 26.0476 649.76 42.2809 654.017 58.0153C655.445 63.2961 652.284 68.7253 646.956 70.1408C641.628 71.5553 636.148 68.4234 634.721 63.1426C631.276 50.4124 633.041 37.115 639.689 25.7002C646.337 14.2845 657.071 6.11833 669.917 2.70539C682.762 -0.709549 696.179 1.04048 707.698 7.62882C719.217 14.2162 727.457 24.8559 730.9 37.5862C738.011 63.8662 722.221 90.9788 695.704 98.0244C694.838 98.255 693.967 98.3649 693.111 98.3649Z" fill="#DFF1FD"/>
</svg>
