<svg width="1280" height="32" viewBox="0 0 1280 32" fill="none" xmlns="http://www.w3.org/2000/svg">
<path d="M0 14.24C10.6189 14.24 15.9987 10.55 21.2075 6.98C26.4164 3.41 31.3739 0 41.5 0C51.6261 0 56.5836 3.39 61.7925 7C67.0013 10.61 72.4013 14.24 83 14.24V32H0V14.24Z" fill="#DFF1FD"/>
<path d="M83 14.24C93.6189 14.24 98.9987 10.55 104.208 6.98C109.416 3.41 114.374 0 124.5 0C134.626 0 139.584 3.39 144.792 7C150.001 10.61 155.401 14.24 166 14.24V32H83V14.24Z" fill="#DFF1FD"/>
<path d="M166 14.24C176.619 14.24 181.999 10.55 187.208 6.98C192.416 3.41 197.374 0 207.5 0C217.626 0 222.584 3.39 227.792 7C233.001 10.61 238.401 14.24 249 14.24V32H166V14.24Z" fill="#DFF1FD"/>
<path d="M249 14.24C259.619 14.24 264.999 10.55 270.208 6.98C275.416 3.41 280.374 0 290.5 0C300.626 0 305.584 3.39 310.792 7C316.001 10.61 321.401 14.24 332 14.24V32H249V14.24Z" fill="#DFF1FD"/>
<path d="M332 14.24C342.619 14.24 347.999 10.55 353.208 6.98C358.416 3.41 363.374 0 373.5 0C383.626 0 388.584 3.39 393.792 7C399.001 10.61 404.401 14.24 415 14.24V32H332V14.24Z" fill="#DFF1FD"/>
<path d="M415 14.24C425.619 14.24 430.999 10.55 436.208 6.98C441.416 3.41 446.374 0 456.5 0C466.626 0 471.584 3.39 476.792 7C482.001 10.61 487.401 14.24 498 14.24V32H415V14.24Z" fill="#DFF1FD"/>
<path d="M498 14.24C508.619 14.24 513.999 10.55 519.208 6.98C524.416 3.41 529.374 0 539.5 0C549.626 0 554.584 3.39 559.792 7C565.001 10.61 570.401 14.24 581 14.24V32H498V14.24Z" fill="#DFF1FD"/>
<path d="M581 14.24C591.619 14.24 596.999 10.55 602.208 6.98C607.416 3.41 612.374 0 622.5 0C632.626 0 637.584 3.39 642.792 7C648.001 10.61 653.401 14.24 664 14.24V32H581V14.24Z" fill="#DFF1FD"/>
<path d="M664 14.24C674.619 14.24 679.999 10.55 685.208 6.98C690.416 3.41 695.374 0 705.5 0C715.626 0 720.584 3.39 725.792 7C731.001 10.61 736.401 14.24 747 14.24V32H664V14.24Z" fill="#DFF1FD"/>
<path d="M747 14.24C757.619 14.24 762.999 10.55 768.208 6.98C773.416 3.41 778.374 0 788.5 0C798.626 0 803.584 3.39 808.792 7C814.001 10.61 819.401 14.24 830 14.24V32H747V14.24Z" fill="#DFF1FD"/>
<path d="M830 14.24C840.619 14.24 845.999 10.55 851.208 6.98C856.416 3.41 861.374 0 871.5 0C881.626 0 886.584 3.39 891.792 7C897.001 10.61 902.401 14.24 913 14.24V32H830V14.24Z" fill="#DFF1FD"/>
<path d="M913 14.24C923.619 14.24 928.999 10.55 934.208 6.98C939.416 3.41 944.374 0 954.5 0C964.626 0 969.584 3.39 974.792 7C980.001 10.61 985.401 14.24 996 14.24V32H913V14.24Z" fill="#DFF1FD"/>
<path d="M996 14.24C1006.62 14.24 1012 10.55 1017.21 6.98C1022.42 3.41 1027.37 0 1037.5 0C1047.63 0 1052.58 3.39 1057.79 7C1063 10.61 1068.4 14.24 1079 14.24V32H996V14.24Z" fill="#DFF1FD"/>
<path d="M1079 14.24C1089.62 14.24 1095 10.55 1100.21 6.98C1105.42 3.41 1110.37 0 1120.5 0C1130.63 0 1135.58 3.39 1140.79 7C1146 10.61 1151.4 14.24 1162 14.24V32H1079V14.24Z" fill="#DFF1FD"/>
<path d="M1162 14.24C1172.62 14.24 1178 10.55 1183.21 6.98C1188.42 3.41 1193.37 0 1203.5 0C1213.63 0 1218.58 3.39 1223.79 7C1229 10.61 1234.4 14.24 1245 14.24V32H1162V14.24Z" fill="#DFF1FD"/>
<path d="M1245 14.24C1255.62 14.24 1261 10.55 1266.21 6.98C1271.42 3.41 1276.37 0 1286.5 0C1296.63 0 1301.58 3.39 1306.79 7C1312 10.61 1317.4 14.24 1328 14.24V32H1245V14.24Z" fill="#DFF1FD"/>
</svg>
