<svg width="270" height="32" viewBox="0 0 270 32" fill="none" xmlns="http://www.w3.org/2000/svg">
<path d="M48.4452 5.57861H52.9895C55.6407 5.59862 56.8906 7.14439 56.7392 10.2169C56.6254 11.4218 56.4739 12.837 56.2849 14.4634C57.0985 14.7446 57.9223 15.0866 58.7556 15.4875C58.8505 14.624 58.9455 13.4601 59.0396 11.9941C59.1158 10.6688 59.7309 10.0057 60.8866 10.0057C62.193 10.0455 62.8269 10.7087 62.7893 11.9941C62.6567 14.1623 62.5147 15.9195 62.3632 17.2648L63.4993 17.9578C64.8818 18.6409 65.2984 19.8457 64.7492 21.572C64.105 22.7975 63.2341 23.0788 62.1365 22.4156L61.6531 22.1444C61.4068 23.4698 60.8481 25.5282 59.9772 28.3194C59.3716 29.6239 58.4622 30.0259 57.2508 29.5243C56.0009 28.881 55.6595 27.9176 56.2276 26.6321C57.137 24.2835 57.7333 22.1245 58.0173 20.1568C57.5818 19.9364 57.1558 19.7295 56.7392 19.5391C56.3225 19.3485 55.9153 19.1725 55.5175 19.012L55.4893 19.0728C55.1864 20.3972 54.7314 21.7626 54.1256 23.1686C53.5199 24.5748 52.7954 25.7596 51.9527 26.7228C51.11 27.6872 50.1681 28.2088 49.127 28.2896C47.6496 28.2687 46.546 27.5566 45.8171 26.1504C45.0882 24.7444 44.847 22.8674 45.0933 20.5179C45.2824 19.1925 45.77 18.0332 46.5563 17.0388C47.3416 16.0456 48.251 15.2617 49.2827 14.6893C50.3144 14.1178 51.4179 13.8012 52.5917 13.7413C52.6678 13.099 52.7338 12.4757 52.791 11.8735C52.8664 10.9091 52.5447 10.4176 51.8252 10.3974H48.4452C46.9301 10.3974 46.1722 9.59385 46.1722 7.98802C46.1722 6.38141 46.9301 5.57861 48.4452 5.57861ZM49.269 23.4399C49.6848 23.419 50.05 23.1486 50.3623 22.6261C50.6746 22.1045 50.9346 21.5022 51.1434 20.819C51.3513 20.1359 51.5129 19.529 51.6259 18.9965C51.7396 18.465 51.797 18.1892 51.797 18.1683C51.1716 18.1683 50.6224 18.3398 50.1493 18.6809C49.6754 19.022 49.3203 19.4238 49.0842 19.8856C48.8473 20.3474 48.6813 20.7592 48.5872 21.1202C48.4537 21.9041 48.4871 22.4855 48.6864 22.8674C48.8849 23.2494 49.0791 23.4399 49.269 23.4399Z" fill="#1391E6"/>
<path d="M67.4492 9.91566C67.4492 8.4097 68.1592 7.65686 69.5794 7.65686H71.0278L71.34 5.84875C71.5487 4.78464 72.287 4.24305 73.5557 4.22217C74.8818 4.30309 75.4309 4.92524 75.2034 6.09015C75.0897 6.5717 75.0049 7.09344 74.9476 7.65686H76.4251C77.8452 7.65686 78.5553 8.4097 78.5553 9.91566C78.5553 11.4415 77.8452 12.2044 76.4251 12.2044H74.2658C72.9218 18.2081 72.1168 21.8133 71.8516 23.0178C71.5676 24.2025 70.772 24.6843 69.4656 24.4639C68.1781 24.1628 67.6853 23.3589 67.9882 22.0544C69.1816 17.4361 69.9387 14.1529 70.2612 12.2044H69.5794C68.1592 12.2044 67.4492 11.4415 67.4492 9.91566ZM83.441 15.0964V18.0484C84.293 18.3695 85.353 18.9011 86.6226 19.6441C87.4361 20.2864 87.5499 21.2108 86.963 22.4154C86.3 23.3997 85.5053 23.6002 84.5771 23.0178C84.3119 22.8772 83.9329 22.7067 83.441 22.5062V24.4639C83.441 25.9898 83.1997 27.1391 82.7164 27.9129C82.2338 28.6849 81.6513 29.2074 80.9694 29.4788C80.2876 29.7501 79.5964 29.885 78.8958 29.885C77.9872 29.925 77.0923 29.7744 76.212 29.4333C75.3309 29.0914 74.5832 28.48 73.9681 27.5964C73.3521 26.7126 73.045 25.4673 73.045 23.8615C73.0638 21.7932 73.6644 20.1711 74.8484 18.9964C76.0315 17.8224 77.6647 17.3045 79.7487 17.446V15.0964C79.7487 13.791 80.3638 13.1379 81.5948 13.1379C82.825 13.1379 83.441 13.791 83.441 15.0964ZM78.8958 25.6386C79.1797 25.6177 79.3928 25.4673 79.5348 25.1868C79.6777 24.9056 79.7487 24.5338 79.7487 24.0721V21.5119C78.7255 21.3513 77.9487 21.4819 77.4191 21.9039C76.8888 22.3247 76.5953 22.9072 76.5389 23.65C76.5192 24.3941 76.7228 24.9256 77.1488 25.2467C77.5749 25.5687 78.1575 25.6986 78.8958 25.6386ZM79.9754 8.83054C80.3543 7.44535 81.2252 6.94278 82.5889 7.32464L85.1451 8.04772C86.5088 8.44959 87.0007 9.33318 86.6226 10.6985C86.2247 12.0838 85.3445 12.5863 83.9808 12.2044L81.4528 11.4813C80.0695 11.0994 79.5776 10.2167 79.9754 8.83054Z" fill="#1391E6"/>
<path d="M93.5808 5.57861H98.126C100.777 5.59862 102.027 7.14439 101.876 10.2169C101.762 11.4218 101.61 12.837 101.421 14.4634C102.235 14.7446 103.059 15.0866 103.892 15.4875C103.987 14.624 104.081 13.4601 104.176 11.9941C104.251 10.6688 104.867 10.0057 106.022 10.0057C107.329 10.0455 107.963 10.7087 107.926 11.9941C107.793 14.1623 107.651 15.9195 107.5 17.2648L108.636 17.9578C110.017 18.6409 110.435 19.8457 109.886 21.572C109.241 22.7975 108.371 23.0788 107.272 22.4156L106.79 22.1444C106.543 23.4698 105.984 25.5282 105.114 28.3194C104.507 29.6239 103.598 30.0259 102.386 29.5243C101.137 28.881 100.796 27.9176 101.364 26.6321C102.274 24.2835 102.87 22.1245 103.154 20.1568C102.717 19.9364 102.291 19.7295 101.876 19.5391C101.458 19.3485 101.052 19.1725 100.654 19.012L100.626 19.0728C100.322 20.3972 99.8678 21.7626 99.2621 23.1686C98.6556 24.5748 97.931 25.7596 97.0892 26.7228C96.2465 27.6872 95.3046 28.2088 94.2626 28.2896C92.786 28.2687 91.6825 27.5566 90.9535 26.1504C90.2247 24.7444 89.9826 22.8674 90.229 20.5179C90.4189 19.1925 90.9057 18.0332 91.6918 17.0388C92.4781 16.0456 93.3866 15.2617 94.4191 14.6893C95.4509 14.1178 96.5537 13.8012 97.7282 13.7413C97.8036 13.099 97.8703 12.4757 97.9276 11.8735C98.002 10.9091 97.6803 10.4176 96.9617 10.3974H93.5808C92.0657 10.3974 91.3086 9.59385 91.3086 7.98802C91.3086 6.38141 92.0657 5.57861 93.5808 5.57861ZM94.4046 23.4399C94.8213 23.419 95.1857 23.1486 95.4988 22.6261C95.811 22.1045 96.0712 21.5022 96.2799 20.819C96.4878 20.1359 96.6487 19.529 96.7624 18.9965C96.8761 18.465 96.9327 18.1892 96.9327 18.1683C96.3081 18.1683 95.7589 18.3398 95.2858 18.6809C94.8118 19.022 94.4568 19.4238 94.2207 19.8856C93.9837 20.3474 93.8178 20.7592 93.7228 21.1202C93.5903 21.9041 93.6236 22.4855 93.8229 22.8674C94.0214 23.2494 94.2156 23.4399 94.4046 23.4399Z" fill="#1391E6"/>
<path d="M127.753 7.05353C127.753 7.25494 127.847 7.35457 128.037 7.35457H137.268C137.779 7.35457 138.214 7.54516 138.574 7.92705C138.934 8.30901 139.114 8.76531 139.114 9.2979C139.114 9.83032 138.934 10.2867 138.574 10.6685C138.214 11.0505 137.779 11.241 137.268 11.241H114.089C113.597 11.241 113.171 11.0505 112.811 10.6685C112.451 10.2867 112.271 9.83032 112.271 9.2979C112.271 8.76531 112.451 8.30901 112.811 7.92705C113.171 7.54516 113.597 7.35457 114.089 7.35457H116.021C116.21 7.35457 116.305 7.25494 116.305 7.05353V4.70487C116.305 4.12245 116.504 3.61991 116.901 3.19806C117.299 2.77715 117.772 2.56577 118.322 2.56577C118.871 2.56577 119.345 2.77715 119.742 3.19806C120.139 3.61991 120.339 4.12245 120.339 4.70487V7.05353C120.339 7.25494 120.433 7.35457 120.623 7.35457H123.265C123.453 7.35457 123.549 7.25494 123.549 7.05353V3.22889C123.549 2.6056 123.751 2.07861 124.159 1.64686C124.566 1.21588 125.063 1 125.651 1H126.303C126.701 1 127.042 1.15057 127.326 1.45177C127.61 1.75294 127.753 2.11397 127.753 2.53579C127.753 2.65647 127.809 2.71634 127.923 2.71634H134.712C135.166 2.71634 135.554 2.88776 135.876 3.22889C136.198 3.56998 136.359 3.98726 136.359 4.47899C136.359 4.97058 136.198 5.38793 135.876 5.72905C135.554 6.06924 135.166 6.24066 134.712 6.24066H128.037C127.847 6.24066 127.753 6.34052 127.753 6.54189V7.05353ZM133.348 25.3375C133.537 25.3375 133.632 25.2367 133.632 25.0363V14.0722C133.632 13.4699 133.831 12.9573 134.229 12.5355C134.626 12.1146 135.109 11.9032 135.677 11.9032C136.246 11.9032 136.728 12.1146 137.126 12.5355C137.524 12.9573 137.722 13.4699 137.722 14.0722V28.1987C137.722 28.801 137.524 29.3135 137.126 29.7345C136.728 30.1564 136.246 30.3677 135.677 30.3677H134.655C134.371 30.3677 134.129 30.2615 133.93 30.0512C133.732 29.8406 133.632 29.584 133.632 29.2828C133.632 29.202 133.594 29.1629 133.519 29.1629H117.895C117.819 29.1629 117.782 29.202 117.782 29.2828C117.782 29.584 117.682 29.8406 117.484 30.0512C117.285 30.2615 117.043 30.3677 116.759 30.3677H115.765C115.215 30.3677 114.743 30.1564 114.345 29.7345C113.947 29.3135 113.749 28.811 113.749 28.2286V14.0423C113.749 13.4599 113.947 12.9573 114.345 12.5355C114.743 12.1146 115.215 11.9032 115.765 11.9032C116.314 11.9032 116.788 12.1146 117.185 12.5355C117.583 12.9573 117.782 13.4599 117.782 14.0423V21.4521C117.782 21.5319 117.811 21.5927 117.867 21.6326C117.925 21.6725 117.981 21.6825 118.038 21.6625C119.363 21.1201 120.603 20.3471 121.759 19.3429C121.797 19.3229 121.81 19.2884 121.802 19.2377C121.791 19.1869 121.759 19.1623 121.702 19.1623H119.855C119.439 19.1623 119.084 19.0063 118.79 18.6952C118.496 18.385 118.351 18.0085 118.351 17.5658C118.351 17.1239 118.496 16.7475 118.79 16.4364C119.084 16.1252 119.439 15.9701 119.855 15.9701H119.884C119.997 15.9701 120.035 15.9092 119.997 15.7886C119.846 15.3877 119.657 14.9758 119.429 14.5539C119.316 14.3336 119.259 14.1122 119.259 13.8918C119.259 13.7312 119.278 13.5806 119.316 13.44C119.448 13.0381 119.695 12.7768 120.055 12.6562C120.281 12.5563 120.518 12.5056 120.765 12.5056C120.954 12.5056 121.143 12.5265 121.333 12.5664C121.768 12.707 122.099 12.9783 122.327 13.3792C122.365 13.4191 122.402 13.4699 122.441 13.5298C122.572 13.791 122.639 14.0514 122.639 14.3127C122.639 14.4941 122.611 14.6845 122.554 14.885C122.383 15.3468 122.071 15.678 121.617 15.8794H121.589C121.569 15.8993 121.564 15.9192 121.574 15.9391C121.583 15.96 121.597 15.9701 121.617 15.9701H123.435C123.624 15.9701 123.719 15.8693 123.719 15.6688V13.801C123.719 13.2794 123.893 12.8321 124.244 12.4602C124.594 12.0892 125.016 11.9032 125.509 11.9032C126 11.9032 126.421 12.0892 126.772 12.4602C127.122 12.8321 127.298 13.2794 127.298 13.801V15.6688C127.298 15.8693 127.392 15.9701 127.582 15.9701H129.826C129.844 15.9701 129.859 15.96 129.868 15.9391C129.878 15.9192 129.872 15.9092 129.854 15.9092L129.627 15.8194C129.21 15.678 128.917 15.3877 128.747 14.9459C128.67 14.7445 128.633 14.544 128.633 14.3434C128.633 14.1023 128.68 13.8709 128.775 13.6504C128.983 13.1887 129.296 12.8366 129.712 12.5963C129.977 12.4557 130.252 12.3849 130.536 12.3849C130.706 12.3849 130.867 12.4158 131.019 12.4756H131.076C131.473 12.5963 131.748 12.8675 131.899 13.2894C131.956 13.449 131.985 13.6105 131.985 13.771C131.985 14.0323 131.908 14.2726 131.757 14.4941C131.36 15.1164 131.085 15.5383 130.934 15.7586C130.896 15.7986 130.891 15.844 130.92 15.8947C130.948 15.9447 130.98 15.9701 131.019 15.9701H131.53C131.946 15.9701 132.301 16.1252 132.595 16.4364C132.889 16.7475 133.036 17.1239 133.036 17.5658C133.036 18.0085 132.889 18.385 132.595 18.6952C132.301 19.0063 131.946 19.1623 131.53 19.1623H129.542C129.485 19.1623 129.451 19.1869 129.442 19.2377C129.433 19.2884 129.446 19.3229 129.485 19.3429C130.242 20.006 131.047 20.5576 131.899 21.0004C132.258 21.2008 132.477 21.522 132.553 21.9637C132.572 22.0444 132.581 22.1342 132.581 22.235C132.581 22.5362 132.477 22.8165 132.269 23.0787C131.908 23.4994 131.492 23.7707 131.019 23.8915C130.886 23.9313 130.744 23.9514 130.593 23.9514C130.27 23.9514 129.958 23.8515 129.655 23.6501C128.898 23.0877 128.179 22.4453 127.497 21.7224C127.458 21.6825 127.415 21.6725 127.369 21.6924C127.321 21.7133 127.298 21.7533 127.298 21.8131V22.9279C127.298 23.4496 127.122 23.8969 126.772 24.2679C126.421 24.639 126 24.8249 125.509 24.8249C125.016 24.8249 124.594 24.639 124.244 24.2679C123.893 23.8969 123.719 23.4496 123.719 22.9279V21.9338C123.719 21.873 123.695 21.833 123.648 21.8131C123.6 21.7932 123.557 21.8031 123.52 21.8431C122.989 22.4254 122.45 22.9371 121.901 23.3798C121.465 23.7009 121.01 23.8616 120.537 23.8616C120.367 23.8616 120.197 23.8406 120.027 23.8008C119.363 23.641 118.785 23.2681 118.293 22.6868C118.179 22.5869 118.075 22.4753 117.981 22.3555C117.943 22.3157 117.9 22.3048 117.854 22.3248C117.806 22.3456 117.782 22.3855 117.782 22.4453V25.0363C117.782 25.2367 117.877 25.3375 118.067 25.3375H133.348Z" fill="#1391E6"/>
<path d="M151.414 17.0542C151.829 17.5159 152.057 18.0576 152.096 18.6808V18.8612C152.096 19.4238 151.934 19.9362 151.612 20.3972C151.366 20.7591 151.044 20.9395 150.647 20.9395C150.609 20.9395 150.562 20.9296 150.504 20.9097C150.05 20.8698 149.719 20.6384 149.51 20.2167C149.435 20.0959 149.368 19.9761 149.312 19.8556C149.293 19.8157 149.264 19.8002 149.226 19.8102C149.188 19.8202 149.17 19.8455 149.17 19.8855V28.8311C149.17 29.4334 148.971 29.9462 148.573 30.3679C148.176 30.7898 147.692 31.0001 147.124 31.0001C146.556 31.0001 146.074 30.7898 145.676 30.3679C145.278 29.9462 145.08 29.4334 145.08 28.8311V21.7833C145.08 21.7433 145.065 21.7181 145.037 21.708C145.009 21.698 144.984 21.7134 144.966 21.7533C144.549 22.7376 144.142 23.6003 143.744 24.3433C143.535 24.7253 143.233 24.9157 142.836 24.9157H142.694C142.22 24.8559 141.878 24.5937 141.67 24.1329C141.424 23.5904 141.302 23.0081 141.302 22.3857V22.0844C141.358 21.3815 141.566 20.7193 141.926 20.0959C142.836 18.5701 143.668 16.813 144.426 14.8253C144.445 14.7446 144.435 14.6748 144.398 14.6139C144.359 14.5541 144.312 14.5242 144.256 14.5242H142.92C142.371 14.5242 141.907 14.3228 141.529 13.9219C141.149 13.5199 140.96 13.0328 140.96 12.4603C140.96 11.8888 141.149 11.3972 141.529 10.9844C141.907 10.5726 142.371 10.3675 142.92 10.3675H144.796C144.984 10.3675 145.08 10.2669 145.08 10.0664V7.80742C145.08 7.7268 145.051 7.66142 144.994 7.61152C144.938 7.56078 144.871 7.53621 144.796 7.53621C144.454 7.59614 144.17 7.64691 143.944 7.68684C143.848 7.70688 143.754 7.71676 143.66 7.71676C143.299 7.71676 142.958 7.59614 142.636 7.35478C142.239 7.05361 141.955 6.65268 141.784 6.15014C141.728 5.96962 141.7 5.78917 141.7 5.60855C141.7 5.36719 141.756 5.12602 141.87 4.88547C142.078 4.48367 142.399 4.24321 142.836 4.16246C144.899 3.74071 146.831 3.22907 148.63 2.6266C148.914 2.52596 149.198 2.4761 149.482 2.4761C149.766 2.4761 150.059 2.52596 150.362 2.6266C150.949 2.82713 151.403 3.19818 151.726 3.74071C151.915 4.02183 152.01 4.32303 152.01 4.64424C152.01 4.82476 151.972 5.01525 151.896 5.21669C151.726 5.73827 151.395 6.06926 150.902 6.21079C150.429 6.35155 149.946 6.48214 149.454 6.60185C149.264 6.64171 149.17 6.76245 149.17 6.96382V10.0664C149.17 10.2669 149.264 10.3675 149.454 10.3675H150.789C151.338 10.3675 151.801 10.5726 152.18 10.9844C152.559 11.3972 152.749 11.8888 152.749 12.4603C152.749 13.0328 152.559 13.5199 152.18 13.9219C151.801 14.3228 151.338 14.5242 150.789 14.5242H149.226C149.188 14.5242 149.17 14.5441 149.17 14.584C149.17 14.6241 149.188 14.6538 149.226 14.6748C149.605 15.036 150.334 15.8287 151.414 17.0542ZM168.344 20.6086C168.362 20.7292 168.372 20.8488 168.372 20.9696C168.372 21.4123 168.248 21.8233 168.003 22.2053C167.68 22.6868 167.245 22.9781 166.696 23.0787L165.702 23.2892C165.512 23.3091 165.418 23.4189 165.418 23.6205V28.7711C165.418 29.3737 165.214 29.8898 164.807 30.3227C164.399 30.7535 163.907 30.9702 163.33 30.9702C162.752 30.9702 162.26 30.7535 161.853 30.3227C161.445 29.8898 161.243 29.3737 161.243 28.7711V24.434C161.243 24.3533 161.214 24.2889 161.157 24.2381C161.1 24.1872 161.043 24.1727 160.987 24.1927L154.851 25.3675C154.719 25.3874 154.595 25.3975 154.482 25.3975C154.065 25.3975 153.686 25.2678 153.345 25.0064C152.891 24.6654 152.616 24.2027 152.522 23.6205C152.502 23.4996 152.493 23.37 152.493 23.2294C152.493 22.7867 152.616 22.3757 152.862 21.9938C153.184 21.4912 153.629 21.19 154.198 21.0902L160.987 19.7948C161.157 19.7748 161.243 19.6651 161.243 19.4638V3.89127C161.243 3.26889 161.445 2.742 161.853 2.31009C162.26 1.8782 162.752 1.66235 163.33 1.66235C163.907 1.66235 164.399 1.8782 164.807 2.31009C165.214 2.742 165.418 3.26889 165.418 3.89127V18.6808C165.418 18.7616 165.446 18.826 165.503 18.8767C165.56 18.9267 165.617 18.942 165.673 18.9212L166.043 18.8612C166.175 18.8413 166.299 18.8314 166.412 18.8314C166.81 18.8314 167.188 18.9612 167.548 19.2232C168.003 19.5634 168.268 20.0261 168.344 20.6086ZM154.14 15.3678C153.781 15.0059 153.601 14.574 153.601 14.0724C153.601 13.5698 153.781 13.1479 154.14 12.8069C154.539 12.4249 154.993 12.2255 155.505 12.2047H155.589C156.082 12.2047 156.517 12.3759 156.897 12.7171C157.596 13.3594 158.212 13.9517 158.743 14.4942C159.102 14.8952 159.283 15.3579 159.283 15.8795C159.283 16.5218 159.055 17.0643 158.601 17.5059C158.259 17.8471 157.862 18.0176 157.407 18.0176H157.237C156.725 17.9579 156.29 17.7165 155.931 17.2956C155.4 16.6723 154.803 16.03 154.14 15.3678ZM159.651 6.36146C159.993 6.74335 160.163 7.18427 160.163 7.68684V7.89731C160.106 8.47976 159.869 8.96152 159.453 9.34328C159.112 9.66442 158.732 9.82503 158.317 9.82503C158.241 9.82503 158.164 9.81506 158.089 9.79511C157.559 9.73521 157.123 9.49394 156.783 9.07209C156.309 8.46969 155.761 7.84654 155.135 7.20438C154.795 6.86332 154.624 6.44218 154.624 5.93958C154.624 5.418 154.813 4.98533 155.192 4.64424C155.589 4.2833 156.053 4.10265 156.583 4.10265C157.114 4.10265 157.568 4.2833 157.947 4.64424C158.591 5.24654 159.158 5.81899 159.651 6.36146Z" fill="#1391E6"/>
<path d="M179.28 7.4157H184.308C187.677 7.37575 189.097 9.32251 188.568 13.2588C188.322 15.0459 187.782 16.9391 186.949 18.9367C186.115 20.9342 185.089 22.5763 183.867 23.8617C182.645 25.1471 181.382 26.1804 180.075 26.9642C178.768 27.7471 177.358 28.4402 175.843 29.0427C174.498 29.5842 173.514 29.1823 172.888 27.8379C172.491 26.292 172.898 25.2678 174.11 24.7653C174.678 24.6047 175.492 24.2527 176.553 23.7111C177.613 23.1686 178.72 22.3458 179.876 21.2409C181.031 20.136 181.963 18.8615 182.674 17.4154C183.385 15.9702 183.805 14.6649 183.938 13.5C184.07 12.4559 183.635 11.9244 182.632 11.9033H177.547C176.448 13.7912 175.35 15.2872 174.252 16.3912C173.134 17.5161 172.074 17.6766 171.071 16.8739C170.142 15.5485 170.152 14.3736 171.099 13.3495C171.628 12.8469 172.254 12.064 172.974 10.9999C173.693 9.93585 174.384 8.35913 175.047 6.2709C175.445 4.76494 176.429 4.16257 178.002 4.4637C179.308 4.8647 179.734 5.84905 179.28 7.4157Z" fill="#1391E6"/>
<path d="M192.971 6.96384C192.971 5.41811 193.699 4.64429 195.158 4.64429C196.635 4.64429 197.374 5.41811 197.374 6.96384V16.452C197.374 17.9978 196.645 18.7707 195.186 18.7707C193.71 18.7707 192.971 17.9978 192.971 16.452V6.96384ZM198.34 24.7044C199.835 24.0821 200.92 23.3891 201.592 22.6261C202.264 21.8642 202.842 20.9243 203.325 19.8103C203.808 18.6954 204.059 17.3157 204.077 15.6691V6.96384C204.077 5.41811 204.806 4.64429 206.265 4.64429C207.741 4.64429 208.481 5.41811 208.481 6.96384V15.6691C208.461 18.1783 208.083 20.3129 207.344 22.0692C206.605 23.8263 205.63 25.2468 204.419 26.3311C203.206 27.416 201.673 28.3594 199.817 29.1633C198.321 29.6449 197.335 29.1633 196.862 27.7172C196.578 26.1106 197.071 25.1063 198.34 24.7044Z" fill="#1391E6"/>
<path d="M228.449 23.3802C229.927 23.3802 230.665 24.1632 230.665 25.7288C230.665 27.3154 229.927 28.1084 228.449 28.1084H214.872C213.395 28.1084 212.656 27.3254 212.656 25.7597C212.656 24.173 213.395 23.3802 214.872 23.3802H228.449ZM213.196 8.41021C213.196 6.8435 213.935 6.06055 215.411 6.06055H227.853C229.33 6.06055 230.069 6.8435 230.069 8.41021C230.069 9.99671 229.33 10.7896 227.853 10.7896H215.411C213.935 10.7896 213.196 10.0059 213.196 8.44003V8.41021Z" fill="#1391E6"/>
<path d="M236.545 10.1561L237.653 17.3853C237.784 18.4494 237.378 19.0817 236.431 19.2832C235.484 19.4636 234.944 19.0119 234.813 17.9278L233.676 10.7893C233.563 9.70431 233.998 9.10198 234.983 8.98136C235.93 8.90145 236.45 9.29247 236.545 10.1561ZM237.284 28.8917C235.938 29.2121 235.134 28.7304 234.869 27.4458C234.68 26.0207 235.125 25.2069 236.204 25.0064C237.756 24.6444 239.12 23.916 240.295 22.822C241.468 21.7279 242.397 20.4071 243.078 18.8613C243.76 17.3155 244.275 15.8096 244.627 14.3436C244.977 12.8767 245.198 11.7528 245.294 10.9698C245.426 9.6843 246.098 9.03217 247.31 9.01222C248.598 9.07203 249.147 9.82499 248.958 11.271C248.579 14.2828 248.068 16.6568 247.424 18.3941C246.78 20.1313 245.919 21.7623 244.84 23.2891C243.76 24.8159 242.538 26.0551 241.175 27.0095C239.812 27.9628 238.514 28.5906 237.284 28.8917ZM241.289 10.1561L242.397 17.3853C242.528 18.4494 242.112 19.0817 241.147 19.2832C240.2 19.4636 239.66 19.0119 239.528 17.9278L238.391 10.7893C238.296 9.70431 238.732 9.10198 239.698 8.98136C240.664 8.90145 241.194 9.29247 241.289 10.1561Z" fill="#1391E6"/>
<path d="M260.603 7.4157H265.631C269.002 7.37575 270.422 9.32251 269.892 13.2588C269.646 15.0459 269.106 16.9391 268.273 18.9367C267.44 20.9342 266.412 22.5763 265.192 23.8617C263.97 25.1471 262.705 26.1804 261.399 26.9642C260.093 27.7471 258.681 28.4402 257.167 29.0427C255.821 29.5842 254.837 29.1823 254.213 27.8379C253.815 26.292 254.221 25.2678 255.434 24.7653C256.002 24.6047 256.816 24.2527 257.877 23.7111C258.937 23.1686 260.045 22.3458 261.201 21.2409C262.355 20.136 263.288 18.8615 263.998 17.4154C264.708 15.9702 265.129 14.6649 265.263 13.5C265.394 12.4559 264.959 11.9244 263.955 11.9033H258.871C257.773 13.7912 256.674 15.2872 255.576 16.3912C254.459 17.5161 253.398 17.6766 252.395 16.8739C251.467 15.5485 251.475 14.3736 252.423 13.3495C252.953 12.8469 253.577 12.064 254.298 10.9999C255.017 9.93585 255.708 8.35913 256.371 6.2709C256.769 4.76494 257.753 4.16257 259.325 4.4637C260.632 4.8647 261.059 5.84905 260.603 7.4157Z" fill="#1391E6"/>
<path d="M31.1766 5.6606C30.2609 4.88412 29.1487 4.3341 27.9864 3.998C25.7828 3.36123 23.4365 4.17124 21.953 5.9552C21.1143 6.96339 19.8645 7.60284 18.4685 7.60284C17.1235 7.60284 15.9152 7.00936 15.0783 6.0648C13.4287 4.20142 10.93 3.32846 8.59144 4.10678C7.56754 4.44721 6.59301 4.96193 5.76905 5.6606C0.510307 10.1279 4.06317 20.5171 4.69757 22.3479C6.52809 27.6164 10.1389 31.9899 12.1807 31.9917C13.7135 31.9934 14.6499 32.0439 15.8754 27.0124C16.1974 25.6972 16.9089 24.8005 17.603 24.3414C18.066 24.0353 18.6719 24.0336 19.1427 24.3273C19.8714 24.7819 20.6469 25.684 20.9715 27.0124C22.1979 32.0439 23.3031 32.0403 24.7174 31.9917C26.7547 31.9227 30.3968 27.6164 32.2229 22.3479C32.8565 20.5171 36.4354 10.1279 31.1766 5.6606Z" fill="#1391E6"/>
<path d="M14.4644 17.2517C14.4644 19.3233 16.1099 21.0027 18.1398 21.0027C20.1698 21.0027 21.8153 19.3233 21.8153 17.2517C20.7693 17.2517 14.4644 17.2517 14.4644 17.2517Z" fill="white"/>
<path d="M1.65075 6.38826C1.74272 6.71168 2.07704 7.05159 2.39395 7.14546L2.6077 7.20888C2.92462 7.30147 2.92462 7.45494 2.6077 7.54752L2.39395 7.61094C2.07704 7.70479 1.74272 8.0447 1.65075 8.36814L1.58861 8.58756C1.49789 8.91098 1.3475 8.91098 1.25679 8.58756L1.19464 8.36814C1.10391 8.0447 0.769605 7.70479 0.452696 7.61094L0.237684 7.54752C-0.079228 7.45494 -0.079228 7.30147 0.237684 7.20888L0.452696 7.14546C0.769605 7.05159 1.10391 6.71168 1.19464 6.38826L1.25679 6.16884C1.3475 5.84541 1.49789 5.84541 1.58861 6.16884L1.65075 6.38826Z" fill="#1391E6"/>
<path d="M4.44659 0.942061C4.63426 1.6016 5.31532 2.29793 5.96157 2.48817L6.40028 2.61627C7.04654 2.80779 7.04654 3.1198 6.40028 3.31005L5.96157 3.43817C5.31532 3.62841 4.63426 4.32474 4.44659 4.98426L4.32108 5.43072C4.13465 6.09153 3.82893 6.09153 3.64251 5.43072L3.51575 4.98426C3.32933 4.32474 2.64702 3.62841 2.00077 3.43817L1.56331 3.31005C0.917047 3.1198 0.917047 2.80779 1.56331 2.61627L2.00077 2.48817C2.64702 2.29793 3.32933 1.6016 3.51575 0.942061L3.64251 0.495614C3.82893 -0.165205 4.13465 -0.165205 4.32108 0.495614L4.44659 0.942061Z" fill="#1391E6"/>
<path d="M14.0854 11.8654C14.0854 11.3056 14.5393 10.8518 15.099 10.8518C15.6588 10.8518 16.1126 11.3056 16.1126 11.8654V13.9759C16.1126 14.5357 15.6588 14.9895 15.099 14.9895C14.5393 14.9895 14.0854 14.5357 14.0854 13.9759V11.8654Z" fill="white"/>
<path d="M20.167 11.8654C20.167 11.3056 20.6208 10.8518 21.1806 10.8518C21.7404 10.8518 22.1942 11.3056 22.1942 11.8654V13.9759C22.1942 14.5357 21.7404 14.9895 21.1806 14.9895C20.6208 14.9895 20.167 14.5357 20.167 13.9759V11.8654Z" fill="white"/>
</svg>
