<svg width="28" height="29" viewBox="0 0 28 29" fill="none" xmlns="http://www.w3.org/2000/svg">
<path d="M27.2013 20.3527L21.0763 17.7277C20.5388 17.4986 19.9145 17.6524 19.545 18.105L16.8325 21.4191C12.5754 19.412 9.14944 15.986 7.14227 11.729L10.4564 9.01641C10.91 8.6475 11.064 8.02257 10.8337 7.48515L8.20869 1.36007C7.95498 0.778401 7.32358 0.459255 6.70477 0.599907L1.0172 1.91242C0.421652 2.04995 -0.000136913 2.58036 3.33381e-08 3.19158C3.33381e-08 17.2191 11.3697 28.5669 25.3753 28.5669C25.9867 28.5673 26.5174 28.1454 26.655 27.5497L27.9675 21.8621C28.1073 21.2403 27.7857 20.6069 27.2013 20.3527Z" fill="#1391E6"/>
</svg>
