<svg width="375" height="963" viewBox="0 0 375 963" fill="none" xmlns="http://www.w3.org/2000/svg">
<path d="M187.5 963C274.984 963 349.165 951.258 375 935H0C25.8349 951.258 100.016 963 187.5 963Z" fill="#DFF1FD"/>
<rect y="87.9998" width="375" height="847" fill="#DFF1FD"/>
<path d="M324.993 923.181C325.639 925.409 327.989 927.75 330.217 928.397L331.719 928.833C333.947 929.471 333.947 930.528 331.719 931.166L330.217 931.603C327.989 932.249 325.639 934.59 324.993 936.818L324.556 938.329C323.918 940.556 322.861 940.556 322.223 938.329L321.787 936.818C321.149 934.59 318.799 932.249 316.572 931.603L315.06 931.166C312.833 930.528 312.833 929.471 315.06 928.833L316.572 928.397C318.799 927.75 321.149 925.409 321.787 923.181L322.223 921.67C322.861 919.443 323.918 919.443 324.556 921.67L324.993 923.181Z" fill="white"/>
<path d="M350.75 887.358C352.043 891.81 356.734 896.51 361.185 897.794L364.207 898.659C368.659 899.951 368.659 902.057 364.207 903.341L361.185 904.206C356.734 905.49 352.043 910.19 350.75 914.641L349.885 917.655C348.601 922.115 346.495 922.115 345.211 917.655L344.338 914.641C343.054 910.19 338.354 905.49 333.902 904.206L330.889 903.341C326.437 902.057 326.437 899.951 330.889 898.659L333.902 897.794C338.354 896.51 343.054 891.81 344.338 887.358L345.211 884.345C346.495 879.885 348.601 879.885 349.885 884.345L350.75 887.358Z" fill="white"/>
<path d="M22.0788 901.974C21.3031 904.756 18.488 907.694 15.8168 908.496L14.0034 909.037C11.3322 909.845 11.3322 911.161 14.0034 911.963L15.8168 912.504C18.488 913.306 21.3031 916.244 22.0788 919.026L22.5976 920.909C23.3682 923.697 24.6318 923.697 25.4024 920.909L25.9264 919.026C26.6969 916.244 29.5171 913.306 32.1883 912.504L33.9966 911.963C36.6678 911.161 36.6678 909.845 33.9966 909.037L32.1883 908.496C29.5171 907.694 26.6969 904.756 25.9264 901.974L25.4024 900.091C24.6318 897.303 23.3682 897.303 22.5976 900.091L22.0788 901.974Z" fill="white"/>
<path d="M238.692 56.2226C217.502 58.8289 203.148 59.844 187.49 59.844C171.837 59.844 157.483 58.8289 136.306 56.2243C97.1611 51.3897 60.8645 54.4943 34.1205 64.9707C19.3726 70.7478 7.88072 78.5723 0 88H375C367.12 78.5727 355.63 70.7485 340.884 64.972C314.143 54.4943 277.84 51.3931 238.692 56.2226Z" fill="#DFF1FD"/>
<path d="M201.909 45.4027C200.249 46.3566 198.092 46.1271 196.672 44.7142C194.976 43.0271 194.976 40.2915 196.671 38.6039C201.721 33.5755 201.72 25.3951 196.668 20.3681C194.221 17.933 190.968 16.5922 187.507 16.5928C184.048 16.5931 180.794 17.9349 178.348 20.371C173.297 25.3994 173.299 33.5798 178.35 38.6064C180.046 40.2936 180.046 43.0294 178.351 44.7167C176.656 46.4036 173.907 46.405 172.212 44.7177C168.125 40.651 165.874 35.2431 165.873 29.4908C165.872 23.7382 168.122 18.3299 172.208 14.2618C176.293 10.1929 181.726 7.95252 187.506 7.95153C193.285 7.95023 198.719 10.1898 202.806 14.2568C211.243 22.6523 211.245 36.3152 202.81 44.7132C202.535 44.9877 202.231 45.2176 201.909 45.4027Z" fill="#DFF1FD"/>
<path d="M16.8845 49.3472C17.4352 51.2449 19.4371 53.2393 21.3347 53.79L22.6147 54.1621C24.5124 54.7053 24.5124 55.6058 22.6147 56.149L21.3347 56.5211C19.4371 57.0717 17.4352 59.0661 16.8845 60.9638L16.5124 62.2512C15.9692 64.1489 15.0687 64.1489 14.5255 62.2512L14.1534 60.9638C13.6101 59.0661 11.6083 57.0717 9.71069 56.5211L8.42324 56.149C6.52559 55.6058 6.52559 54.7053 8.42324 54.1621L9.71069 53.79C11.6083 53.2393 13.6101 51.2449 14.1534 49.3472L14.5255 48.0598C15.0687 46.1622 15.9692 46.1622 16.5124 48.0598L16.8845 49.3472Z" fill="#DFF1FD"/>
<path d="M39.6931 17.3923C40.8168 21.262 44.8949 25.3476 48.7646 26.4638L51.3916 27.2154C55.2613 28.3391 55.2613 30.1698 51.3916 31.2861L48.7646 32.0377C44.8949 33.154 40.8168 37.2395 39.6931 41.1092L38.9415 43.7287C37.8252 47.6058 35.9945 47.6058 34.8783 43.7287L34.1192 41.1092C33.003 37.2395 28.9174 33.154 25.0477 32.0377L22.4282 31.2861C18.5584 30.1698 18.5584 28.3391 22.4282 27.2154L25.0477 26.4638C28.9174 25.3476 33.003 21.262 34.1192 17.3923L34.8783 14.7728C35.9945 10.8956 37.8252 10.8956 38.9415 14.7728L39.6931 17.3923Z" fill="#DFF1FD"/>
<path d="M349.683 41.6657C348.938 44.232 346.233 46.9415 343.667 47.6817L341.925 48.1801C339.358 48.9254 339.358 50.1395 341.925 50.8797L343.667 51.3783C346.233 52.1185 348.938 54.828 349.683 57.3942L350.181 59.1315C350.922 61.7027 352.136 61.7027 352.876 59.1315L353.379 57.3942C354.12 54.828 356.829 52.1185 359.396 51.3783L361.133 50.8797C363.699 50.1395 363.699 48.9254 361.133 48.1801L359.396 47.6817C356.829 46.9415 354.12 44.232 353.379 41.6657L352.876 39.9285C352.136 37.3572 350.922 37.3572 350.181 39.9285L349.683 41.6657Z" fill="#DFF1FD"/>
</svg>
