<svg width="1280" height="987" viewBox="0 0 1280 987" fill="none" xmlns="http://www.w3.org/2000/svg">
<rect y="203" width="1280" height="687" fill="#DFF1FD"/>
<path d="M640 987C938.613 987 1191.82 946.322 1280 890H0C88.183 946.322 341.388 987 640 987Z" fill="#DFF1FD"/>
<path d="M1160.35 873.16C1161.81 878.172 1167.09 883.439 1172.11 884.894L1175.49 885.877C1180.5 887.311 1180.5 889.69 1175.49 891.124L1172.11 892.107C1167.09 893.561 1161.81 898.829 1160.35 903.841L1159.37 907.241C1157.93 912.253 1155.56 912.253 1154.12 907.241L1153.14 903.841C1151.7 898.829 1146.42 893.561 1141.4 892.107L1138 891.124C1132.99 889.69 1132.99 887.311 1138 885.877L1141.4 884.894C1146.42 883.439 1151.7 878.172 1153.14 873.16L1154.12 869.759C1155.56 864.747 1157.93 864.747 1159.37 869.759L1160.35 873.16Z" fill="white"/>
<path d="M1220.92 787.625C1223.89 797.863 1234.68 808.673 1244.92 811.626L1251.87 813.615C1262.11 816.588 1262.11 821.432 1251.87 824.385L1244.92 826.374C1234.68 829.327 1223.89 840.137 1220.92 850.375L1218.93 857.306C1215.97 867.565 1211.13 867.565 1208.18 857.306L1206.17 850.375C1203.21 840.137 1192.4 829.327 1182.16 826.374L1175.23 824.385C1164.99 821.432 1164.99 816.588 1175.23 813.615L1182.16 811.626C1192.4 808.673 1203.21 797.863 1206.17 787.625L1208.18 780.694C1211.13 770.435 1215.97 770.435 1218.93 780.694L1220.92 787.625Z" fill="white"/>
<path d="M63.9371 841.901C62.0948 848.134 55.409 854.713 49.0649 856.511L44.7582 857.722C38.4139 859.531 38.4139 862.48 44.7582 864.277L49.0649 865.488C55.409 867.286 62.0948 873.866 63.9371 880.098L65.1693 884.316C66.9994 890.561 70.0006 890.561 71.8307 884.316L73.0751 880.098C74.9051 873.866 81.6032 867.286 87.9473 865.488L92.2418 864.277C98.5861 862.48 98.5861 859.531 92.2418 857.722L87.9473 856.511C81.6032 854.713 74.9051 848.134 73.0751 841.901L71.8307 837.683C70.0006 831.438 66.9994 831.438 65.1693 837.683L63.9371 841.901Z" fill="white"/>
<path d="M814.735 102.995C742.405 111.197 693.41 114.391 639.967 114.391C586.535 114.391 537.542 111.197 465.256 103C331.643 87.7853 207.75 97.5556 116.464 130.525C66.1247 148.706 26.899 173.331 -0.000488281 203H1280C1253.1 173.332 1213.88 148.709 1163.55 130.529C1072.27 97.5556 948.361 87.796 814.735 102.995Z" fill="#DFF1FD"/>
<path d="M48.283 110.347C49.7473 115.376 55.0702 120.662 60.1161 122.122L63.5195 123.108C68.5654 124.548 68.5654 126.935 63.5195 128.375L60.1161 129.361C55.0702 130.82 49.7473 136.107 48.283 141.136L47.2936 144.549C45.8492 149.578 43.4547 149.578 42.0103 144.549L41.0209 141.136C39.5764 136.107 34.2535 130.82 29.2077 129.361L25.7844 128.375C20.7385 126.935 20.7385 124.548 25.7844 123.108L29.2077 122.122C34.2535 120.662 39.5764 115.376 41.0209 110.347L42.0103 106.934C43.4547 101.905 45.8492 101.905 47.2936 106.934L48.283 110.347Z" fill="#DFF1FD"/>
<path d="M108.931 25.6503C111.919 35.9069 122.763 46.7357 133.053 49.6942L140.038 51.6863C150.327 54.6647 150.327 59.517 140.038 62.4756L133.053 64.4679C122.763 67.4264 111.919 78.2552 108.931 88.5116L106.933 95.4547C103.965 105.731 99.0969 105.731 96.1287 95.4547L94.1104 88.5116C91.1422 78.2552 80.2787 67.4264 69.9891 64.4679L63.0239 62.4756C52.7342 59.517 52.7342 54.6647 63.0239 51.6863L69.9891 49.6942C80.2787 46.7357 91.1422 35.9069 94.1104 25.6503L96.1287 18.7073C99.0969 8.43088 103.965 8.43088 106.933 18.7073L108.931 25.6503Z" fill="#DFF1FD"/>
<path d="M1208.73 72.3714C1206.88 78.7551 1200.15 85.4951 1193.77 87.3365L1189.43 88.5764C1183.05 90.4302 1183.05 93.4502 1189.43 95.2917L1193.77 96.5317C1200.15 98.3731 1206.88 105.113 1208.73 111.497L1209.97 115.818C1211.81 122.214 1214.83 122.214 1216.67 115.818L1217.93 111.497C1219.77 105.113 1226.51 98.3731 1232.89 96.5317L1237.21 95.2917C1243.6 93.4502 1243.6 90.4302 1237.21 88.5764L1232.89 87.3365C1226.51 85.4951 1219.77 78.7551 1217.93 72.3714L1216.67 68.05C1214.83 61.6539 1211.81 61.6539 1209.97 68.05L1208.73 72.3714Z" fill="#DFF1FD"/>
<path d="M669.995 89.0144C667.435 89.0144 664.877 88.0384 662.924 86.0863C659.018 82.1803 659.018 75.8484 662.924 71.9433C668.561 66.3064 671.665 58.8114 671.665 50.8404C671.665 42.8683 668.561 35.3744 662.924 29.7373C657.287 24.1004 649.792 20.9964 641.821 20.9964C633.849 20.9964 626.355 24.1004 620.717 29.7373C609.081 41.3733 609.081 60.3073 620.717 71.9433C624.623 75.8484 624.623 82.1803 620.717 86.0863C616.813 89.9914 610.482 89.9903 606.576 86.0863C587.141 66.6513 587.141 35.0293 606.576 15.5953C615.99 6.18134 628.508 0.996338 641.821 0.996338C655.135 0.996338 667.652 6.18134 677.066 15.5953C686.48 25.0094 691.665 37.5263 691.665 50.8404C691.665 64.1543 686.48 76.6703 677.066 86.0863C675.113 88.0384 672.553 89.0144 669.995 89.0144Z" fill="#DFF1FD"/>
</svg>
