<svg width="276" height="258" viewBox="0 0 276 258" fill="none" xmlns="http://www.w3.org/2000/svg">
<circle cx="138" cy="110" r="110" fill="#DFF1FD"/>
<ellipse cx="136.436" cy="110.564" rx="61.8124" ry="61.8126" fill="white"/>
<path d="M136.436 175C100.906 175 72 146.094 72 110.564C72 75.034 100.906 46.1293 136.436 46.1293C171.966 46.1293 200.871 75.034 200.871 110.564C200.871 146.094 171.966 175 136.436 175ZM136.436 51.3749C103.799 51.3749 77.2463 77.9272 77.2463 110.564C77.2463 143.201 103.799 169.754 136.436 169.754C169.073 169.754 195.625 143.201 195.625 110.564C195.625 77.9272 169.073 51.3749 136.436 51.3749Z" fill="#1391E6"/>
<ellipse cx="136.436" cy="60.1803" rx="3.77834" ry="3.77835" fill="#1391E6"/>
<ellipse cx="136.436" cy="160.948" rx="3.77834" ry="3.77835" fill="#1391E6"/>
<ellipse cx="186.82" cy="110.564" rx="3.77834" ry="3.77835" fill="#1391E6"/>
<ellipse cx="86.0523" cy="110.564" rx="3.77834" ry="3.77835" fill="#1391E6"/>
<ellipse cx="180.07" cy="85.3722" rx="2.05986" ry="2.05987" fill="#1391E6"/>
<ellipse cx="92.8021" cy="135.756" rx="2.05986" ry="2.05987" fill="#1391E6"/>
<ellipse cx="161.628" cy="66.9305" rx="2.05986" ry="2.05987" fill="#1391E6"/>
<ellipse cx="111.244" cy="154.198" rx="2.05986" ry="2.05987" fill="#1391E6"/>
<ellipse cx="111.244" cy="66.9305" rx="2.05986" ry="2.05987" fill="#1391E6"/>
<ellipse cx="161.628" cy="154.198" rx="2.05986" ry="2.05987" fill="#1391E6"/>
<ellipse cx="92.8021" cy="85.3722" rx="2.05986" ry="2.05987" fill="#1391E6"/>
<ellipse cx="180.07" cy="135.756" rx="2.05986" ry="2.05987" fill="#1391E6"/>
<path d="M136.436 152.65C135.383 152.65 134.51 151.487 134.442 149.991L132.795 113.588C132.72 111.951 133.634 110.565 134.789 110.565H138.084C139.237 110.565 140.151 111.951 140.078 113.588L138.43 149.991C138.362 151.487 137.49 152.65 136.436 152.65Z" fill="#1391E6"/>
<path d="M105.713 118.981C105.408 117.839 106 116.668 107.064 116.305L132.99 107.461C134.156 107.063 135.426 107.785 135.761 109.036L136.716 112.608C137.05 113.859 136.309 115.118 135.1 115.356L108.219 120.627C107.115 120.843 106.019 120.123 105.713 118.981Z" fill="#1391E6"/>
<ellipse cx="136.169" cy="110.564" rx="5.06979" ry="5.0698" fill="#1391E6"/>
<ellipse cx="179.222" cy="67.7785" rx="23.7784" ry="23.7785" fill="#1391E6"/>
<path d="M190.125 56.8734C186.597 53.3456 181.773 51.8907 177.173 52.5021C178.242 52.9848 179.246 53.6534 180.123 54.5301C184.023 58.4312 184.023 64.7784 180.122 68.6794C176.222 72.5804 169.875 72.5804 165.974 68.6794C165.097 67.8026 164.428 66.7981 163.946 65.7297C163.334 70.33 164.789 75.1542 168.316 78.6812C174.329 84.6932 184.112 84.6932 190.124 78.6812C196.137 72.6683 196.137 62.8855 190.125 56.8734Z" fill="white"/>
<rect y="199" width="276" height="44" rx="22" fill="#1391E6"/>
<path d="M139.828 253.884C139.124 255.469 136.876 255.469 136.172 253.884L130.588 241.312C130.001 239.989 130.969 238.5 132.416 238.5L143.584 238.5C145.031 238.5 145.999 239.989 145.412 241.312L139.828 253.884Z" fill="#1391E6"/>
<path d="M53.0344 215.96C52.741 215.96 52.4877 215.86 52.2744 215.66C52.0744 215.447 51.9744 215.193 51.9744 214.9C51.9744 214.607 52.0744 214.36 52.2744 214.16C52.4877 213.947 52.741 213.84 53.0344 213.84H59.4944C59.6144 213.84 59.6744 213.78 59.6744 213.66V213.44C59.6744 213.133 59.781 212.867 59.9944 212.64C60.221 212.413 60.4877 212.3 60.7944 212.3H61.2744C61.581 212.3 61.841 212.413 62.0544 212.64C62.281 212.867 62.3944 213.133 62.3944 213.44V213.66C62.3944 213.78 62.4544 213.84 62.5744 213.84H69.0344C69.3277 213.84 69.5744 213.947 69.7744 214.16C69.9877 214.36 70.0944 214.607 70.0944 214.9C70.0944 215.193 69.9877 215.447 69.7744 215.66C69.5744 215.86 69.3277 215.96 69.0344 215.96H53.0344ZM51.8344 224.42L51.6344 223.86C51.381 223.167 51.5077 222.533 52.0144 221.96C53.3477 220.427 54.381 218.733 55.1144 216.88C55.2344 216.573 55.4344 216.347 55.7144 216.2C55.9944 216.053 56.2877 216.02 56.5944 216.1L56.7944 216.16C57.101 216.24 57.3277 216.413 57.4744 216.68C57.621 216.947 57.641 217.227 57.5344 217.52C57.1477 218.6 56.6544 219.613 56.0544 220.56C56.001 220.653 55.9744 220.76 55.9744 220.88V229.74C55.9744 230.047 55.861 230.307 55.6344 230.52C55.4077 230.747 55.141 230.86 54.8344 230.86H54.5344C54.2277 230.86 53.961 230.747 53.7344 230.52C53.5077 230.307 53.3944 230.047 53.3944 229.74V224.18C53.3944 224.153 53.381 224.14 53.3544 224.14C53.3277 224.127 53.3077 224.133 53.2944 224.16C53.281 224.187 53.2344 224.26 53.1544 224.38C53.0744 224.487 53.0077 224.567 52.9544 224.62C52.7944 224.82 52.5877 224.9 52.3344 224.86C52.0944 224.807 51.9277 224.66 51.8344 224.42ZM69.4344 228.26C69.7277 228.353 69.941 228.533 70.0744 228.8C70.2077 229.067 70.221 229.34 70.1144 229.62L70.0544 229.74C69.9344 230.047 69.7277 230.267 69.4344 230.4C69.1544 230.547 68.861 230.573 68.5544 230.48C66.4877 229.84 64.721 229.08 63.2544 228.2C63.1477 228.147 63.061 228.147 62.9944 228.2C61.741 229.013 60.201 229.753 58.3744 230.42C58.0544 230.54 57.7344 230.547 57.4144 230.44C57.0944 230.333 56.841 230.14 56.6544 229.86L56.5144 229.68C56.3544 229.453 56.321 229.207 56.4144 228.94C56.5077 228.673 56.6877 228.493 56.9544 228.4C58.3277 227.92 59.6344 227.333 60.8744 226.64C60.9677 226.6 60.9677 226.533 60.8744 226.44C60.0077 225.653 59.2744 224.74 58.6744 223.7C58.621 223.607 58.5477 223.607 58.4544 223.7C58.3877 223.767 58.301 223.873 58.1944 224.02C58.0877 224.153 58.001 224.253 57.9344 224.32C57.7344 224.533 57.4877 224.633 57.1944 224.62C56.901 224.607 56.661 224.48 56.4744 224.24L56.3144 224.02C56.1144 223.753 56.021 223.46 56.0344 223.14C56.061 222.82 56.181 222.533 56.3944 222.28C57.8077 220.6 58.9144 218.793 59.7144 216.86C59.8344 216.567 60.0344 216.347 60.3144 216.2C60.5944 216.053 60.8877 216.02 61.1944 216.1L61.5744 216.2C61.8277 216.267 62.0144 216.413 62.1344 216.64C62.2544 216.867 62.2677 217.1 62.1744 217.34C62.1477 217.42 62.181 217.46 62.2744 217.46H68.3944C68.6744 217.46 68.9077 217.56 69.0944 217.76C69.2944 217.947 69.3944 218.18 69.3944 218.46C69.3944 219.22 69.301 219.873 69.1144 220.42C68.301 222.82 67.021 224.827 65.2744 226.44C65.181 226.533 65.181 226.6 65.2744 226.64C66.4877 227.253 67.8744 227.793 69.4344 228.26ZM64.1944 224.1C64.261 224.033 64.2544 223.96 64.1744 223.88C63.4277 223.253 62.8277 222.767 62.3744 222.42C62.1344 222.233 61.9944 221.987 61.9544 221.68C61.9144 221.36 61.9944 221.08 62.1944 220.84L62.2144 220.78C62.4144 220.54 62.6677 220.407 62.9744 220.38C63.2944 220.34 63.581 220.413 63.8344 220.6C64.6077 221.213 65.181 221.68 65.5544 222C65.6344 222.08 65.701 222.067 65.7544 221.96C66.1677 221.227 66.501 220.453 66.7544 219.64C66.781 219.52 66.7477 219.46 66.6544 219.46H61.4144C61.2944 219.46 61.2144 219.513 61.1744 219.62C60.9077 220.167 60.561 220.76 60.1344 221.4C60.081 221.467 60.081 221.56 60.1344 221.68C60.7477 222.973 61.6677 224.113 62.8944 225.1C62.9877 225.167 63.0677 225.167 63.1344 225.1C63.521 224.78 63.8744 224.447 64.1944 224.1ZM83.8344 218.46C83.8344 219.713 83.4344 220.92 82.6344 222.08C81.8477 223.227 80.3144 224.753 78.0344 226.66C78.0077 226.687 77.9944 226.707 77.9944 226.72C77.9944 226.733 78.001 226.74 78.0144 226.74H82.7344C83.041 226.74 83.3077 226.853 83.5344 227.08C83.761 227.293 83.8744 227.553 83.8744 227.86C83.8744 228.167 83.761 228.433 83.5344 228.66C83.3077 228.887 83.041 229 82.7344 229H75.3944C75.0877 229 74.821 228.887 74.5944 228.66C74.381 228.433 74.2744 228.167 74.2744 227.86C74.2744 227.1 74.561 226.493 75.1344 226.04C77.441 224.2 78.9877 222.767 79.7744 221.74C80.561 220.713 80.9544 219.713 80.9544 218.74C80.9544 217.26 80.161 216.52 78.5744 216.52C77.761 216.52 76.7744 216.747 75.6144 217.2C75.361 217.307 75.121 217.287 74.8944 217.14C74.681 216.993 74.5744 216.793 74.5744 216.54V216.2C74.5744 215.853 74.6677 215.54 74.8544 215.26C75.0544 214.967 75.3144 214.773 75.6344 214.68C76.7677 214.36 77.881 214.2 78.9744 214.2C80.5344 214.2 81.7344 214.573 82.5744 215.32C83.4144 216.067 83.8344 217.113 83.8344 218.46ZM95.5073 217.58C95.054 216.78 94.3607 216.38 93.4273 216.38C92.494 216.38 91.8007 216.78 91.3473 217.58C90.894 218.38 90.6673 219.753 90.6673 221.7C90.6673 223.647 90.894 225.02 91.3473 225.82C91.8007 226.62 92.494 227.02 93.4273 227.02C94.3607 227.02 95.054 226.62 95.5073 225.82C95.9607 225.02 96.1873 223.647 96.1873 221.7C96.1873 219.753 95.9607 218.38 95.5073 217.58ZM97.6273 227.42C96.7073 228.607 95.3073 229.2 93.4273 229.2C91.5473 229.2 90.1407 228.607 89.2073 227.42C88.2873 226.233 87.8273 224.327 87.8273 221.7C87.8273 219.073 88.2873 217.167 89.2073 215.98C90.1407 214.793 91.5473 214.2 93.4273 214.2C95.3073 214.2 96.7073 214.793 97.6273 215.98C98.5607 217.167 99.0273 219.073 99.0273 221.7C99.0273 224.327 98.5607 226.233 97.6273 227.42ZM105.14 221.34C104.834 221.34 104.567 221.227 104.34 221C104.114 220.773 104 220.507 104 220.2V219.06C104 218.753 104.114 218.493 104.34 218.28C104.567 218.053 104.834 217.94 105.14 217.94H106.06C106.367 217.94 106.634 218.053 106.86 218.28C107.087 218.493 107.2 218.753 107.2 219.06V220.2C107.2 220.507 107.087 220.773 106.86 221C106.634 221.227 106.367 221.34 106.06 221.34H105.14ZM105.14 229C104.834 229 104.567 228.887 104.34 228.66C104.114 228.433 104 228.167 104 227.86V226.74C104 226.433 104.114 226.167 104.34 225.94C104.567 225.713 104.834 225.6 105.14 225.6H106.06C106.367 225.6 106.634 225.713 106.86 225.94C107.087 226.167 107.2 226.433 107.2 226.74V227.86C107.2 228.167 107.087 228.433 106.86 228.66C106.634 228.887 106.367 229 106.06 229H105.14ZM114.12 216.66C113.813 216.66 113.546 216.553 113.32 216.34C113.093 216.113 112.98 215.847 112.98 215.54C112.98 215.233 113.093 214.967 113.32 214.74C113.546 214.513 113.813 214.4 114.12 214.4H121.22C121.526 214.4 121.786 214.513 122 214.74C122.226 214.967 122.34 215.233 122.34 215.54C122.34 216.3 122.06 216.927 121.5 217.42L118.26 220.36C118.246 220.373 118.24 220.387 118.24 220.4C118.24 220.413 118.246 220.42 118.26 220.42H118.58C119.806 220.42 120.773 220.773 121.48 221.48C122.186 222.173 122.54 223.147 122.54 224.4C122.54 225.933 122.073 227.12 121.14 227.96C120.206 228.787 118.873 229.2 117.14 229.2C116.113 229.2 115.12 229.08 114.16 228.84C113.84 228.76 113.58 228.58 113.38 228.3C113.18 228.02 113.08 227.707 113.08 227.36V227.14C113.08 226.873 113.186 226.667 113.4 226.52C113.626 226.36 113.873 226.32 114.14 226.4C115.22 226.76 116.18 226.94 117.02 226.94C117.9 226.94 118.58 226.727 119.06 226.3C119.54 225.873 119.78 225.253 119.78 224.44C119.78 223.693 119.506 223.16 118.96 222.84C118.426 222.507 117.48 222.34 116.12 222.34H115.9C115.633 222.34 115.4 222.24 115.2 222.04C115.013 221.84 114.92 221.607 114.92 221.34C114.92 220.673 115.16 220.12 115.64 219.68L118.9 216.72C118.913 216.707 118.92 216.693 118.92 216.68C118.92 216.667 118.913 216.66 118.9 216.66H114.12ZM134.253 217.58C133.799 216.78 133.106 216.38 132.173 216.38C131.239 216.38 130.546 216.78 130.093 217.58C129.639 218.38 129.413 219.753 129.413 221.7C129.413 223.647 129.639 225.02 130.093 225.82C130.546 226.62 131.239 227.02 132.173 227.02C133.106 227.02 133.799 226.62 134.253 225.82C134.706 225.02 134.933 223.647 134.933 221.7C134.933 219.753 134.706 218.38 134.253 217.58ZM136.373 227.42C135.453 228.607 134.053 229.2 132.173 229.2C130.293 229.2 128.886 228.607 127.953 227.42C127.033 226.233 126.573 224.327 126.573 221.7C126.573 219.073 127.033 217.167 127.953 215.98C128.886 214.793 130.293 214.2 132.173 214.2C134.053 214.2 135.453 214.793 136.373 215.98C137.306 217.167 137.773 219.073 137.773 221.7C137.773 224.327 137.306 226.233 136.373 227.42ZM147.966 227.94C148.846 227.94 149.452 227.793 149.786 227.5C150.119 227.193 150.292 226.627 150.306 225.8C150.306 225.693 150.252 225.62 150.146 225.58C149.426 225.3 148.786 225.16 148.226 225.16C147.439 225.16 146.872 225.267 146.526 225.48C146.192 225.693 146.026 226.02 146.026 226.46C146.026 226.927 146.192 227.293 146.526 227.56C146.872 227.813 147.352 227.94 147.966 227.94ZM143.506 217.2C143.199 217.2 142.932 217.087 142.706 216.86C142.479 216.633 142.366 216.367 142.366 216.06C142.366 215.753 142.479 215.493 142.706 215.28C142.932 215.053 143.199 214.94 143.506 214.94H150.126C150.246 214.94 150.306 214.88 150.306 214.76V214.14C150.306 213.833 150.412 213.567 150.626 213.34C150.852 213.113 151.119 213 151.426 213H151.706C152.012 213 152.272 213.113 152.486 213.34C152.712 213.567 152.826 213.833 152.826 214.14V214.76C152.826 214.88 152.886 214.94 153.006 214.94H156.826C157.132 214.94 157.399 215.053 157.626 215.28C157.852 215.493 157.966 215.753 157.966 216.06C157.966 216.367 157.852 216.633 157.626 216.86C157.399 217.087 157.132 217.2 156.826 217.2H153.006C152.886 217.2 152.826 217.253 152.826 217.36V218.76C152.826 218.88 152.886 218.94 153.006 218.94H156.126C156.432 218.94 156.692 219.047 156.906 219.26C157.119 219.473 157.226 219.733 157.226 220.04C157.226 220.347 157.119 220.613 156.906 220.84C156.692 221.053 156.432 221.16 156.126 221.16H153.006C152.886 221.16 152.826 221.22 152.826 221.34V224.22C152.826 224.327 152.872 224.413 152.966 224.48C154.166 225.173 155.412 226.08 156.706 227.2C156.946 227.4 157.072 227.66 157.086 227.98C157.099 228.3 156.999 228.573 156.786 228.8L156.726 228.86C156.512 229.087 156.246 229.207 155.926 229.22C155.619 229.247 155.352 229.153 155.126 228.94C154.286 228.207 153.532 227.6 152.866 227.12C152.772 227.053 152.712 227.073 152.686 227.18C152.472 228.247 151.986 229.013 151.226 229.48C150.479 229.96 149.392 230.2 147.966 230.2C146.552 230.2 145.439 229.867 144.626 229.2C143.826 228.547 143.426 227.633 143.426 226.46C143.426 225.407 143.792 224.56 144.526 223.92C145.272 223.267 146.419 222.94 147.966 222.94C148.726 222.94 149.452 223.04 150.146 223.24C150.252 223.267 150.306 223.227 150.306 223.12V221.34C150.306 221.22 150.246 221.16 150.126 221.16H144.206C143.899 221.16 143.639 221.053 143.426 220.84C143.212 220.627 143.106 220.367 143.106 220.06C143.106 219.753 143.212 219.493 143.426 219.28C143.639 219.053 143.899 218.94 144.206 218.94H150.126C150.246 218.94 150.306 218.88 150.306 218.76V217.38C150.306 217.26 150.246 217.2 150.126 217.2H143.506ZM175.606 219.62C175.886 219.473 176.179 219.447 176.486 219.54C176.792 219.633 177.019 219.82 177.166 220.1C177.312 220.367 177.532 220.78 177.826 221.34C177.959 221.62 177.972 221.907 177.866 222.2C177.759 222.493 177.566 222.707 177.286 222.84C176.992 222.973 176.699 222.987 176.406 222.88C176.112 222.773 175.892 222.58 175.746 222.3C175.679 222.18 175.466 221.787 175.106 221.12C174.959 220.853 174.932 220.573 175.026 220.28C175.119 219.987 175.306 219.767 175.586 219.62H175.606ZM180.366 219.38C180.806 220.22 181.032 220.653 181.046 220.68C181.192 220.96 181.212 221.247 181.106 221.54C181.012 221.833 180.826 222.047 180.546 222.18L180.486 222.22C180.206 222.353 179.912 222.373 179.606 222.28C179.312 222.173 179.092 221.98 178.946 221.7C178.879 221.567 178.772 221.36 178.626 221.08C178.479 220.8 178.366 220.593 178.286 220.46C178.139 220.193 178.106 219.907 178.186 219.6C178.279 219.293 178.466 219.073 178.746 218.94L178.806 218.92C179.086 218.773 179.379 218.747 179.686 218.84C179.992 218.92 180.219 219.1 180.366 219.38ZM164.266 217.2C163.959 217.2 163.692 217.093 163.466 216.88C163.252 216.653 163.146 216.387 163.146 216.08V215.94C163.146 215.633 163.259 215.367 163.486 215.14C163.712 214.913 163.979 214.8 164.286 214.8C168.846 214.787 173.559 214.673 178.426 214.46C178.732 214.447 179.006 214.547 179.246 214.76C179.486 214.973 179.612 215.233 179.626 215.54V215.68C179.639 216 179.539 216.28 179.326 216.52C179.126 216.747 178.866 216.88 178.546 216.92C175.706 217.28 173.572 218.02 172.146 219.14C170.732 220.26 170.026 221.627 170.026 223.24C170.026 224.653 170.472 225.76 171.366 226.56C172.272 227.36 173.472 227.76 174.966 227.76C175.419 227.76 175.859 227.733 176.286 227.68C176.592 227.653 176.866 227.733 177.106 227.92C177.359 228.107 177.506 228.353 177.546 228.66L177.566 228.84C177.606 229.147 177.532 229.427 177.346 229.68C177.159 229.947 176.912 230.1 176.606 230.14C175.966 230.207 175.372 230.24 174.826 230.24C172.492 230.24 170.632 229.633 169.246 228.42C167.859 227.207 167.166 225.567 167.166 223.5C167.166 222.193 167.539 220.987 168.286 219.88C169.046 218.76 170.126 217.827 171.526 217.08C171.539 217.08 171.546 217.067 171.546 217.04H171.526C169.459 217.12 167.039 217.173 164.266 217.2ZM185.686 220.2C185.379 220.2 185.112 220.087 184.886 219.86C184.659 219.633 184.546 219.367 184.546 219.06V215.86C184.546 215.553 184.659 215.293 184.886 215.08C185.112 214.853 185.379 214.74 185.686 214.74H187.146C187.266 214.74 187.299 214.687 187.246 214.58C187.219 214.527 187.172 214.447 187.106 214.34C187.052 214.233 187.012 214.153 186.986 214.1C186.839 213.847 186.812 213.58 186.906 213.3C187.012 213.007 187.206 212.813 187.486 212.72L187.666 212.64C187.972 212.533 188.279 212.533 188.586 212.64C188.892 212.747 189.126 212.947 189.286 213.24C189.606 213.827 189.839 214.273 189.986 214.58C190.026 214.687 190.112 214.74 190.246 214.74H191.946C192.052 214.74 192.079 214.687 192.026 214.58C191.866 214.26 191.746 214.027 191.666 213.88C191.519 213.627 191.499 213.36 191.606 213.08C191.712 212.8 191.906 212.613 192.186 212.52L192.366 212.44C192.672 212.333 192.979 212.333 193.286 212.44C193.592 212.547 193.826 212.747 193.986 213.04C194.052 213.147 194.312 213.66 194.766 214.58C194.806 214.687 194.886 214.74 195.006 214.74H196.526C196.632 214.74 196.719 214.693 196.786 214.6C197.132 213.987 197.386 213.527 197.546 213.22C197.692 212.927 197.912 212.707 198.206 212.56C198.512 212.413 198.826 212.38 199.146 212.46L199.326 212.5C199.606 212.567 199.806 212.733 199.926 213C200.059 213.253 200.059 213.513 199.926 213.78C199.872 213.873 199.799 214.007 199.706 214.18C199.612 214.353 199.546 214.487 199.506 214.58C199.479 214.607 199.472 214.64 199.486 214.68C199.512 214.72 199.546 214.74 199.586 214.74H201.046C201.352 214.74 201.619 214.853 201.846 215.08C202.072 215.293 202.186 215.553 202.186 215.86V219.06C202.186 219.367 202.072 219.633 201.846 219.86C201.619 220.087 201.352 220.2 201.046 220.2H200.686C200.246 220.2 199.912 220 199.686 219.6C199.672 219.587 199.659 219.58 199.646 219.58C199.632 219.58 199.626 219.593 199.626 219.62V221.88C199.626 222.187 199.512 222.453 199.286 222.68C199.059 222.893 198.792 223 198.486 223H194.486C194.366 223 194.292 223.06 194.266 223.18C194.239 223.247 194.199 223.367 194.146 223.54C194.106 223.713 194.072 223.847 194.046 223.94C194.019 224.047 194.059 224.1 194.166 224.1H199.626C199.932 224.1 200.199 224.213 200.426 224.44C200.652 224.667 200.766 224.933 200.766 225.24V229.64C200.766 229.947 200.652 230.207 200.426 230.42C200.199 230.647 199.932 230.76 199.626 230.76H198.906C198.679 230.76 198.486 230.68 198.326 230.52C198.179 230.36 198.106 230.173 198.106 229.96C198.106 229.88 198.066 229.84 197.986 229.84H188.746C188.666 229.84 188.626 229.88 188.626 229.96C188.626 230.173 188.546 230.36 188.386 230.52C188.239 230.68 188.052 230.76 187.826 230.76H187.106C186.799 230.76 186.532 230.647 186.306 230.42C186.079 230.207 185.966 229.947 185.966 229.64V225.24C185.966 224.933 186.079 224.667 186.306 224.44C186.532 224.213 186.799 224.1 187.106 224.1H190.986C191.092 224.1 191.166 224.047 191.206 223.94C191.259 223.78 191.339 223.527 191.446 223.18C191.472 223.06 191.439 223 191.346 223H189.786H188.246C187.939 223 187.672 222.893 187.446 222.68C187.232 222.453 187.126 222.187 187.126 221.88V219.62C187.126 219.593 187.112 219.58 187.086 219.58C187.072 219.58 187.059 219.587 187.046 219.6C186.819 220 186.486 220.2 186.046 220.2H185.686ZM197.926 226.12H188.806C188.686 226.12 188.626 226.173 188.626 226.28V227.78C188.626 227.9 188.686 227.96 188.806 227.96H197.926C198.046 227.96 198.106 227.9 198.106 227.78V226.28C198.106 226.173 198.046 226.12 197.926 226.12ZM196.946 221.02V219.8C196.946 219.693 196.892 219.64 196.786 219.64H189.946C189.839 219.64 189.786 219.693 189.786 219.8V221.02C189.786 221.14 189.839 221.2 189.946 221.2H196.786C196.892 221.2 196.946 221.14 196.946 221.02ZM187.346 216.78C187.239 216.78 187.186 216.833 187.186 216.94V218.16C187.186 218.187 187.192 218.2 187.206 218.2C187.219 218.2 187.232 218.193 187.246 218.18C187.472 217.78 187.806 217.58 188.246 217.58H198.486C198.926 217.58 199.259 217.78 199.486 218.18C199.499 218.193 199.512 218.2 199.526 218.2C199.539 218.2 199.546 218.187 199.546 218.16V216.94C199.546 216.833 199.492 216.78 199.386 216.78H187.346ZM206.066 229.7L206.026 229.62C205.892 229.367 205.879 229.113 205.986 228.86C206.106 228.593 206.306 228.427 206.586 228.36C208.666 227.813 210.379 227.253 211.726 226.68C211.739 226.667 211.746 226.653 211.746 226.64C211.746 226.627 211.732 226.62 211.706 226.62H207.366C207.099 226.62 206.866 226.52 206.666 226.32C206.466 226.12 206.366 225.887 206.366 225.62C206.366 225.353 206.466 225.127 206.666 224.94C206.866 224.74 207.099 224.64 207.366 224.64H213.426C213.546 224.64 213.606 224.58 213.606 224.46V223.94C213.606 223.833 213.546 223.78 213.426 223.78H208.126C207.872 223.78 207.659 223.693 207.486 223.52C207.312 223.347 207.226 223.133 207.226 222.88C207.226 222.627 207.312 222.413 207.486 222.24C207.659 222.067 207.872 221.98 208.126 221.98H213.426C213.546 221.98 213.606 221.92 213.606 221.8V221.28C213.606 221.173 213.546 221.12 213.426 221.12H207.486C207.219 221.12 206.999 221.033 206.826 220.86C206.652 220.687 206.566 220.467 206.566 220.2C206.566 219.933 206.652 219.713 206.826 219.54C207.012 219.353 207.232 219.26 207.486 219.26H210.206C210.299 219.26 210.332 219.207 210.306 219.1C210.132 218.633 209.919 218.1 209.666 217.5C209.626 217.393 209.552 217.34 209.446 217.34H207.226C206.932 217.34 206.679 217.24 206.466 217.04C206.266 216.84 206.166 216.593 206.166 216.3C206.166 216.007 206.266 215.76 206.466 215.56C206.679 215.347 206.932 215.24 207.226 215.24H208.046C208.152 215.24 208.179 215.18 208.126 215.06C208.072 214.953 207.979 214.793 207.846 214.58C207.699 214.327 207.672 214.067 207.766 213.8C207.872 213.52 208.066 213.333 208.346 213.24L208.386 213.22C208.692 213.113 209.006 213.113 209.326 213.22C209.646 213.327 209.886 213.527 210.046 213.82L210.706 215.08C210.746 215.187 210.832 215.24 210.966 215.24H211.686C211.806 215.24 211.866 215.18 211.866 215.06V213.74C211.866 213.433 211.979 213.167 212.206 212.94C212.432 212.713 212.699 212.6 213.006 212.6H213.086C213.392 212.6 213.659 212.713 213.886 212.94C214.112 213.167 214.226 213.433 214.226 213.74V215.06C214.226 215.18 214.279 215.24 214.386 215.24H215.546C215.652 215.24 215.706 215.18 215.706 215.06V213.74C215.706 213.433 215.819 213.167 216.046 212.94C216.272 212.713 216.539 212.6 216.846 212.6H216.926C217.232 212.6 217.499 212.713 217.726 212.94C217.952 213.167 218.066 213.433 218.066 213.74V215.06C218.066 215.18 218.126 215.24 218.246 215.24H219.086C219.179 215.24 219.259 215.187 219.326 215.08C219.366 215.013 219.466 214.84 219.626 214.56C219.786 214.28 219.906 214.06 219.986 213.9C220.132 213.607 220.352 213.387 220.646 213.24C220.952 213.093 221.259 213.067 221.566 213.16C221.846 213.24 222.046 213.413 222.166 213.68C222.299 213.947 222.299 214.213 222.166 214.48C221.992 214.827 221.886 215.033 221.846 215.1C221.832 215.127 221.832 215.16 221.846 215.2C221.872 215.227 221.906 215.24 221.946 215.24H222.706C222.999 215.24 223.246 215.347 223.446 215.56C223.659 215.76 223.766 216.007 223.766 216.3C223.766 216.593 223.659 216.84 223.446 217.04C223.246 217.24 222.999 217.34 222.706 217.34H220.586C220.492 217.34 220.419 217.4 220.366 217.52C220.206 217.947 219.979 218.48 219.686 219.12C219.672 219.147 219.672 219.18 219.686 219.22C219.712 219.247 219.746 219.26 219.786 219.26H222.446C222.699 219.26 222.912 219.353 223.086 219.54C223.272 219.713 223.366 219.933 223.366 220.2C223.366 220.467 223.279 220.687 223.106 220.86C222.932 221.033 222.712 221.12 222.446 221.12H216.506C216.386 221.12 216.326 221.173 216.326 221.28V221.8C216.326 221.92 216.386 221.98 216.506 221.98H221.806C222.059 221.98 222.272 222.067 222.446 222.24C222.619 222.413 222.706 222.627 222.706 222.88C222.706 223.133 222.619 223.347 222.446 223.52C222.272 223.693 222.059 223.78 221.806 223.78H216.506C216.386 223.78 216.326 223.833 216.326 223.94V224.46C216.326 224.58 216.386 224.64 216.506 224.64H222.566C222.832 224.64 223.066 224.74 223.266 224.94C223.466 225.127 223.566 225.353 223.566 225.62C223.566 225.887 223.466 226.12 223.266 226.32C223.066 226.52 222.832 226.62 222.566 226.62H218.226C218.212 226.633 218.212 226.653 218.226 226.68C219.626 227.267 221.339 227.827 223.366 228.36C223.632 228.427 223.819 228.593 223.926 228.86C224.046 229.113 224.039 229.367 223.906 229.62L223.866 229.7C223.706 229.993 223.466 230.2 223.146 230.32C222.839 230.453 222.532 230.467 222.226 230.36C219.986 229.64 218.072 228.827 216.486 227.92C216.459 227.893 216.426 227.893 216.386 227.92C216.346 227.933 216.326 227.96 216.326 228V229.74C216.326 230.047 216.212 230.307 215.986 230.52C215.772 230.747 215.512 230.86 215.206 230.86H214.726C214.419 230.86 214.152 230.747 213.926 230.52C213.712 230.307 213.606 230.047 213.606 229.74V228C213.606 227.96 213.586 227.933 213.546 227.92C213.506 227.893 213.472 227.893 213.446 227.92C211.872 228.813 209.952 229.627 207.686 230.36C207.379 230.453 207.072 230.44 206.766 230.32C206.459 230.2 206.226 229.993 206.066 229.7ZM213.226 219.26H216.726C216.859 219.26 216.946 219.207 216.986 219.1C217.212 218.66 217.446 218.127 217.686 217.5C217.712 217.407 217.679 217.36 217.586 217.36H212.486C212.366 217.36 212.332 217.413 212.386 217.52C212.532 217.867 212.739 218.4 213.006 219.12C213.046 219.213 213.119 219.26 213.226 219.26Z" fill="white"/>
</svg>
