<svg width="276" height="258" viewBox="0 0 276 258" fill="none" xmlns="http://www.w3.org/2000/svg">
<circle cx="138" cy="110" r="110" fill="#DFF1FD"/>
<path d="M89.2798 157.008H185.719C189.504 154.478 192 150.208 192 145.366V54.4752C192 46.7127 185.601 40.3979 177.736 40.3979H153.488V38.7892C153.488 37.8011 152.677 37 151.676 37H123.324C122.323 37 121.511 37.8011 121.511 38.7892V40.3979H97.264C89.3984 40.3979 83 46.7127 83 54.4752V145.366C83 150.208 85.4957 154.478 89.2798 157.008Z" fill="white"/>
<path d="M177.735 159.442H97.264C89.3984 159.442 83 153.128 83 145.365V54.4751C83 46.7127 89.3984 40.3979 97.264 40.3979H177.735C185.601 40.3979 191.999 46.7127 191.999 54.4751V145.365C191.999 153.128 185.601 159.442 177.735 159.442ZM97.264 45.6532C92.3354 45.6532 88.3249 49.6105 88.3249 54.4751V145.365C88.3249 150.229 92.3354 154.187 97.264 154.187H177.735C182.664 154.187 186.674 150.229 186.674 145.365V54.4751C186.674 49.6105 182.664 45.6532 177.735 45.6532H97.264Z" fill="#1391E6"/>
<path fill-rule="evenodd" clip-rule="evenodd" d="M102.24 58.8005H172.76C177.159 58.8005 180.723 62.2982 180.723 66.6119V108.202C180.723 112.516 177.159 116.013 172.761 116.013H102.24C97.8422 116.013 94.2773 112.516 94.2773 108.202V66.6119C94.2773 62.2974 97.8422 58.8005 102.24 58.8005ZM172.76 62.54C175.049 62.54 176.911 64.3666 176.911 66.6119V108.202C176.911 110.447 175.049 112.273 172.761 112.273H102.24C99.9514 112.273 98.0894 110.447 98.0894 108.202V66.6119C98.0894 64.3666 99.9514 62.54 102.24 62.54H172.76Z" fill="#1391E6"/>
<path fill-rule="evenodd" clip-rule="evenodd" d="M157.299 133.498C157.299 126.966 162.543 121.671 169.012 121.671C175.48 121.671 180.723 126.966 180.723 133.498C180.723 140.029 175.48 145.324 169.012 145.324C162.543 145.324 157.299 140.029 157.299 133.498ZM169.011 125.41C173.427 125.41 177.02 129.039 177.02 133.498C177.02 137.957 173.427 141.584 169.011 141.584C164.595 141.584 161.002 137.957 161.002 133.498C161.002 129.039 164.595 125.41 169.011 125.41Z" fill="#1391E6"/>
<path fill-rule="evenodd" clip-rule="evenodd" d="M94 133.498C94 126.966 99.2439 121.671 105.712 121.671C112.181 121.671 117.424 126.966 117.424 133.498C117.424 140.029 112.181 145.324 105.712 145.324C99.2439 145.324 94 140.029 94 133.498ZM105.712 125.41C110.128 125.41 113.72 129.039 113.72 133.498C113.72 137.957 110.128 141.584 105.712 141.584C101.296 141.584 97.7031 137.957 97.7031 133.498C97.7031 129.039 101.296 125.41 105.712 125.41Z" fill="#1391E6"/>
<path d="M147.215 55.2937H127.785C126.348 55.2937 125.183 54.117 125.183 52.6662C125.183 51.2152 126.348 50.0385 127.785 50.0385H147.215C148.653 50.0385 149.818 51.2152 149.818 52.6662C149.818 54.117 148.653 55.2937 147.215 55.2937Z" fill="#1391E6"/>
<path d="M85.6015 179C84.9991 179 84.3934 178.79 83.9021 178.361C82.8142 177.413 82.6932 175.753 83.6322 174.655L100.348 155.098C101.287 153.999 102.931 153.877 104.019 154.826C105.106 155.773 105.227 157.433 104.288 158.532L87.5725 178.089C87.0582 178.691 86.3315 179 85.6015 179Z" fill="#1391E6"/>
<path d="M189.398 179C188.669 179 187.942 178.691 187.428 178.089L170.712 158.532C169.773 157.433 169.894 155.773 170.981 154.826C172.069 153.879 173.712 153.998 174.651 155.098L191.367 174.655C192.306 175.753 192.185 177.413 191.098 178.361C190.606 178.79 190.001 179 189.398 179Z" fill="#1391E6"/>
<path d="M180.652 170.281H94.0325C92.555 170.281 91.3584 169.104 91.3584 167.654C91.3584 166.203 92.555 165.026 94.0325 165.026H180.652C182.128 165.026 183.326 166.203 183.326 167.654C183.326 169.104 182.128 170.281 180.652 170.281Z" fill="#1391E6"/>
<path d="M151.355 37H123.645C122.667 37 121.874 37.8011 121.874 38.7892V43.0471C121.874 44.0352 122.667 44.8355 123.645 44.8355H151.355C152.334 44.8355 153.126 44.0352 153.126 43.0471V38.7892C153.126 37.8011 152.334 37 151.355 37Z" fill="#1391E6"/>
<rect y="199" width="276" height="44" rx="22" fill="#1391E6"/>
<path d="M139.828 253.884C139.124 255.469 136.876 255.469 136.172 253.884L130.588 241.312C130.001 239.989 130.969 238.5 132.416 238.5L143.584 238.5C145.031 238.5 145.999 239.989 145.412 241.312L139.828 253.884Z" fill="#1391E6"/>
<path d="M74.2035 215.24C74.0968 215.24 74.0435 215.293 74.0435 215.4V216.22C74.0435 216.34 74.0968 216.4 74.2035 216.4H74.9635C75.1902 216.4 75.3835 216.487 75.5435 216.66C75.7168 216.82 75.8035 217.013 75.8035 217.24C75.8035 217.467 75.7168 217.66 75.5435 217.82C75.3835 217.98 75.1902 218.06 74.9635 218.06H74.2035C74.0968 218.06 74.0435 218.12 74.0435 218.24V219.06C74.0435 219.18 74.0968 219.24 74.2035 219.24H74.9635C75.1902 219.24 75.3835 219.32 75.5435 219.48C75.7168 219.64 75.8035 219.833 75.8035 220.06C75.8035 220.287 75.7168 220.487 75.5435 220.66C75.3835 220.82 75.1902 220.9 74.9635 220.9H74.2035C74.0968 220.9 74.0435 220.96 74.0435 221.08V221.96C74.0435 222.08 74.0968 222.14 74.2035 222.14H74.9435C75.2502 222.14 75.5102 222.253 75.7235 222.48C75.9502 222.693 76.0635 222.953 76.0635 223.26V224.06C76.0635 226.087 76.0102 227.533 75.9035 228.4H75.9235C76.3102 227.173 76.5768 225.813 76.7235 224.32C76.8835 222.813 76.9635 220.82 76.9635 218.34V214.4C76.9635 214.093 77.0768 213.827 77.3035 213.6C77.5302 213.373 77.7968 213.26 78.1035 213.26H83.8635C84.1702 213.26 84.4368 213.373 84.6635 213.6C84.8902 213.827 85.0035 214.093 85.0035 214.4V220.8C85.0035 221.107 84.8902 221.373 84.6635 221.6C84.4368 221.827 84.1702 221.94 83.8635 221.94H83.1635C83.0435 221.94 82.9968 221.993 83.0235 222.1C83.4502 224.513 84.1568 226.62 85.1435 228.42C85.2902 228.7 85.3368 229 85.2835 229.32C85.2302 229.64 85.0768 229.893 84.8235 230.08L84.6235 230.22C84.3702 230.407 84.0902 230.473 83.7835 230.42C83.4768 230.367 83.2502 230.207 83.1035 229.94C81.9568 227.927 81.1368 225.307 80.6435 222.08C80.6302 221.987 80.5635 221.94 80.4435 221.94H79.5235C79.4035 221.94 79.3435 221.987 79.3435 222.08C79.2102 225.147 78.7902 227.733 78.0835 229.84C77.9902 230.12 77.8035 230.3 77.5235 230.38C77.2568 230.473 76.9968 230.44 76.7435 230.28L76.5035 230.12C76.0902 229.853 75.8702 229.467 75.8435 228.96L75.8235 228.94C75.6902 229.673 75.4902 230.16 75.2235 230.4C74.9568 230.64 74.5702 230.76 74.0635 230.76C73.9168 230.76 73.5502 230.747 72.9635 230.72C72.6435 230.707 72.3768 230.587 72.1635 230.36C71.9502 230.133 71.8302 229.86 71.8035 229.54C71.7902 229.247 71.8835 229 72.0835 228.8C72.2968 228.6 72.5502 228.513 72.8435 228.54C73.0035 228.553 73.1902 228.56 73.4035 228.56C73.5768 228.56 73.6835 228.48 73.7235 228.32C73.8168 228.027 73.8635 226.647 73.8635 224.18C73.8635 224.087 73.8102 224.04 73.7035 224.04H68.8635C68.5568 224.04 68.2902 223.927 68.0635 223.7C67.8502 223.473 67.7435 223.207 67.7435 222.9V214.3C67.7435 213.993 67.8502 213.727 68.0635 213.5C68.2902 213.273 68.5568 213.16 68.8635 213.16H75.0035C75.2968 213.16 75.5435 213.26 75.7435 213.46C75.9435 213.66 76.0435 213.907 76.0435 214.2C76.0435 214.493 75.9435 214.74 75.7435 214.94C75.5435 215.14 75.2968 215.24 75.0035 215.24H74.2035ZM71.7435 221.96V221.08C71.7435 220.96 71.6835 220.9 71.5635 220.9H70.4035C70.2968 220.9 70.2435 220.96 70.2435 221.08V221.96C70.2435 222.08 70.2968 222.14 70.4035 222.14H71.5635C71.6835 222.14 71.7435 222.08 71.7435 221.96ZM71.7435 219.06V218.24C71.7435 218.12 71.6835 218.06 71.5635 218.06H70.4035C70.2968 218.06 70.2435 218.12 70.2435 218.24V219.06C70.2435 219.18 70.2968 219.24 70.4035 219.24H71.5635C71.6835 219.24 71.7435 219.18 71.7435 219.06ZM71.7435 216.22V215.4C71.7435 215.293 71.6835 215.24 71.5635 215.24H70.4035C70.2968 215.24 70.2435 215.293 70.2435 215.4V216.22C70.2435 216.34 70.2968 216.4 70.4035 216.4H71.5635C71.6835 216.4 71.7435 216.34 71.7435 216.22ZM79.4035 219.4V219.56C79.4035 219.68 79.4568 219.74 79.5635 219.74H82.3635C82.4835 219.74 82.5435 219.68 82.5435 219.56V215.7C82.5435 215.593 82.4835 215.54 82.3635 215.54H79.5835C79.4635 215.54 79.4035 215.593 79.4035 215.7V219.4ZM67.4035 230C67.1768 229.907 66.9968 229.753 66.8635 229.54C66.7435 229.34 66.7035 229.12 66.7435 228.88C66.9435 227.747 67.0835 226.54 67.1635 225.26C67.1768 225.06 67.2568 224.9 67.4035 224.78C67.5635 224.647 67.7435 224.6 67.9435 224.64C68.1568 224.68 68.3368 224.787 68.4835 224.96C68.6302 225.133 68.6968 225.333 68.6835 225.56C68.6435 226.667 68.5235 227.967 68.3235 229.46C68.2968 229.687 68.1902 229.853 68.0035 229.96C67.8168 230.067 67.6168 230.08 67.4035 230ZM69.9035 229.8C69.7168 229.827 69.5502 229.78 69.4035 229.66C69.2702 229.54 69.1968 229.387 69.1835 229.2C69.1302 227.547 69.0835 226.293 69.0435 225.44C69.0302 225.267 69.0835 225.107 69.2035 224.96C69.3235 224.813 69.4768 224.727 69.6635 224.7C69.8368 224.673 69.9902 224.713 70.1235 224.82C70.2568 224.927 70.3302 225.067 70.3435 225.24C70.4368 226.52 70.5168 227.767 70.5835 228.98C70.5968 229.18 70.5368 229.36 70.4035 229.52C70.2702 229.68 70.1035 229.773 69.9035 229.8ZM72.1435 228.38C72.0235 228.54 71.8768 228.633 71.7035 228.66C71.5302 228.687 71.3702 228.647 71.2235 228.54C71.0902 228.433 71.0102 228.293 70.9835 228.12C70.9168 227.307 70.8168 226.4 70.6835 225.4C70.6702 225.227 70.7102 225.073 70.8035 224.94C70.9102 224.793 71.0502 224.707 71.2235 224.68C71.3968 224.653 71.5568 224.687 71.7035 224.78C71.8502 224.873 71.9302 225.007 71.9435 225.18C72.1302 226.593 72.2435 227.487 72.2835 227.86C72.3102 228.047 72.2635 228.22 72.1435 228.38ZM73.1435 227.5C72.9968 227.527 72.8635 227.493 72.7435 227.4C72.6368 227.307 72.5702 227.187 72.5435 227.04C72.4502 226.333 72.3635 225.733 72.2835 225.24C72.2568 225.093 72.2902 224.96 72.3835 224.84C72.4768 224.707 72.5968 224.627 72.7435 224.6C72.8902 224.573 73.0235 224.607 73.1435 224.7C73.2768 224.793 73.3568 224.913 73.3835 225.06C73.5168 225.82 73.6035 226.413 73.6435 226.84C73.6568 227 73.6168 227.147 73.5235 227.28C73.4302 227.4 73.3035 227.473 73.1435 227.5ZM90.5035 218.86C90.1968 218.86 89.9302 218.753 89.7035 218.54C89.4768 218.313 89.3635 218.047 89.3635 217.74C89.3635 217.433 89.4768 217.167 89.7035 216.94C89.9302 216.713 90.1968 216.6 90.5035 216.6H92.7835C92.8902 216.6 92.9568 216.54 92.9835 216.42C93.1835 215.54 93.3635 214.627 93.5235 213.68C93.5902 213.373 93.7435 213.127 93.9835 212.94C94.2368 212.74 94.5235 212.653 94.8435 212.68L94.9835 212.7C95.2902 212.727 95.5368 212.867 95.7235 213.12C95.9102 213.36 95.9768 213.633 95.9235 213.94C95.7502 214.953 95.6035 215.787 95.4835 216.44C95.4568 216.547 95.5035 216.6 95.6235 216.6H96.7635C97.4435 216.6 97.9502 216.6 98.2835 216.6C98.6302 216.6 99.0102 216.64 99.4235 216.72C99.8368 216.8 100.117 216.867 100.264 216.92C100.424 216.973 100.604 217.127 100.804 217.38C101.017 217.633 101.144 217.86 101.184 218.06C101.224 218.26 101.277 218.62 101.344 219.14C101.41 219.647 101.444 220.113 101.444 220.54C101.444 220.967 101.444 221.607 101.444 222.46C101.444 225.02 101.13 226.907 100.504 228.12C99.8768 229.333 99.0302 229.94 97.9635 229.94C97.1635 229.94 96.1168 229.747 94.8235 229.36C94.5168 229.267 94.2902 229.08 94.1435 228.8C93.9968 228.52 93.9702 228.22 94.0635 227.9L94.1035 227.78C94.1968 227.487 94.3768 227.273 94.6435 227.14C94.9235 226.993 95.2168 226.967 95.5235 227.06C96.4035 227.327 97.0435 227.46 97.4435 227.46C97.6702 227.46 97.8768 227.293 98.0635 226.96C98.2502 226.627 98.4102 226.04 98.5435 225.2C98.6902 224.347 98.7635 223.3 98.7635 222.06C98.7635 220.46 98.6902 219.527 98.5435 219.26C98.4102 218.993 97.9102 218.86 97.0435 218.86H95.1235C95.0168 218.86 94.9502 218.913 94.9235 219.02C94.0968 222.473 93.0502 225.813 91.7835 229.04C91.6635 229.347 91.4568 229.56 91.1635 229.68C90.8835 229.813 90.5968 229.827 90.3035 229.72L90.1635 229.68C89.8702 229.587 89.6635 229.393 89.5435 229.1C89.4235 228.82 89.4168 228.533 89.5235 228.24C90.6302 225.32 91.5835 222.247 92.3835 219.02C92.4102 218.913 92.3702 218.86 92.2635 218.86H90.5035ZM104.704 224.68C103.997 222.133 103.144 219.533 102.144 216.88C102.037 216.6 102.05 216.327 102.184 216.06C102.317 215.78 102.53 215.593 102.824 215.5L103.084 215.42C103.39 215.327 103.69 215.353 103.984 215.5C104.277 215.647 104.477 215.873 104.584 216.18C105.504 218.58 106.357 221.22 107.144 224.1C107.224 224.393 107.184 224.68 107.024 224.96C106.864 225.227 106.63 225.393 106.324 225.46L106.084 225.5C105.777 225.567 105.49 225.52 105.224 225.36C104.957 225.2 104.784 224.973 104.704 224.68ZM113.344 224.1C113.037 224.033 112.79 223.873 112.604 223.62C112.43 223.353 112.37 223.067 112.424 222.76C112.744 220.92 112.964 219.58 113.084 218.74C113.137 218.42 113.284 218.16 113.524 217.96C113.764 217.747 114.044 217.653 114.364 217.68L114.704 217.72C115.01 217.747 115.257 217.88 115.444 218.12C115.644 218.36 115.724 218.633 115.684 218.94C115.51 220.207 115.384 221.093 115.304 221.6V221.64H115.324L115.344 221.62C116.224 221.02 117.197 220.547 118.264 220.2C119.344 219.84 120.357 219.66 121.304 219.66C123.29 219.66 124.75 220.053 125.684 220.84C126.63 221.613 127.104 222.8 127.104 224.4C127.104 226.173 126.357 227.553 124.864 228.54C123.37 229.513 121.204 230 118.364 230C117.31 230 116.157 229.947 114.904 229.84C114.584 229.813 114.317 229.68 114.104 229.44C113.904 229.2 113.817 228.92 113.844 228.6V228.56C113.857 228.253 113.984 228 114.224 227.8C114.477 227.6 114.757 227.513 115.064 227.54C116.597 227.673 117.697 227.74 118.364 227.74C120.204 227.74 121.617 227.447 122.604 226.86C123.604 226.26 124.104 225.44 124.104 224.4C124.104 222.76 123.037 221.94 120.904 221.94C119.424 221.94 117.65 222.553 115.584 223.78C114.89 224.18 114.197 224.3 113.504 224.14L113.344 224.1ZM116.184 213.94C118.65 214.207 121.07 214.36 123.444 214.4C123.75 214.4 124.01 214.513 124.224 214.74C124.45 214.967 124.564 215.233 124.564 215.54C124.564 215.847 124.45 216.113 124.224 216.34C124.01 216.553 123.75 216.66 123.444 216.66C120.87 216.62 118.357 216.467 115.904 216.2C115.584 216.16 115.324 216.013 115.124 215.76C114.937 215.507 114.864 215.227 114.904 214.92C114.944 214.613 115.09 214.367 115.344 214.18C115.597 213.993 115.877 213.913 116.184 213.94ZM137.024 213C137.29 213.173 137.45 213.413 137.504 213.72C137.557 214.027 137.484 214.3 137.284 214.54C136.27 215.767 135.064 216.853 133.664 217.8C133.41 217.973 133.137 218.013 132.844 217.92C132.564 217.827 132.364 217.647 132.244 217.38L132.184 217.24C132.05 216.947 132.03 216.647 132.124 216.34C132.217 216.02 132.397 215.773 132.664 215.6C133.69 214.907 134.584 214.12 135.344 213.24C135.557 213 135.817 212.86 136.124 212.82C136.444 212.767 136.737 212.827 137.004 213H137.024ZM131.824 224.18L131.684 223.68C131.51 222.973 131.717 222.373 132.304 221.88C133.504 220.907 134.564 219.747 135.484 218.4C135.657 218.147 135.897 217.987 136.204 217.92C136.51 217.853 136.797 217.9 137.064 218.06L137.164 218.12C137.297 218.2 137.397 218.28 137.464 218.36C137.517 218.427 137.61 218.46 137.744 218.46H142.304C142.41 218.46 142.464 218.407 142.464 218.3V216.64C142.464 216.52 142.41 216.46 142.304 216.46H138.704C138.41 216.46 138.157 216.36 137.944 216.16C137.744 215.947 137.644 215.693 137.644 215.4C137.644 215.107 137.744 214.86 137.944 214.66C138.157 214.447 138.41 214.34 138.704 214.34H142.304C142.41 214.34 142.464 214.28 142.464 214.16V213.6C142.464 213.293 142.577 213.027 142.804 212.8C143.03 212.573 143.297 212.46 143.604 212.46H144.004C144.31 212.46 144.577 212.573 144.804 212.8C145.03 213.027 145.144 213.293 145.144 213.6V214.16C145.144 214.28 145.197 214.34 145.304 214.34H148.504C148.797 214.34 149.044 214.447 149.244 214.66C149.457 214.86 149.564 215.107 149.564 215.4C149.564 215.693 149.457 215.947 149.244 216.16C149.044 216.36 148.797 216.46 148.504 216.46H145.304C145.197 216.46 145.144 216.52 145.144 216.64V218.3C145.144 218.407 145.197 218.46 145.304 218.46H149.404C149.71 218.46 149.97 218.573 150.184 218.8C150.397 219.013 150.504 219.267 150.504 219.56C150.504 219.853 150.397 220.113 150.184 220.34C149.97 220.553 149.71 220.66 149.404 220.66H145.304C145.197 220.66 145.144 220.72 145.144 220.84V222.7C145.144 222.807 145.197 222.86 145.304 222.86H148.404C148.697 222.86 148.944 222.967 149.144 223.18C149.357 223.393 149.464 223.647 149.464 223.94C149.464 224.233 149.357 224.487 149.144 224.7C148.944 224.9 148.697 225 148.404 225H145.304C145.197 225 145.144 225.06 145.144 225.18V227.9C145.144 227.993 145.197 228.053 145.304 228.08C146.384 228.253 147.77 228.34 149.464 228.34C149.77 228.34 150.024 228.453 150.224 228.68C150.437 228.893 150.53 229.153 150.504 229.46C150.477 229.78 150.35 230.047 150.124 230.26C149.897 230.487 149.624 230.6 149.304 230.6C146.69 230.6 144.657 230.367 143.204 229.9C141.764 229.447 140.597 228.633 139.704 227.46C139.677 227.433 139.644 227.427 139.604 227.44C139.577 227.44 139.557 227.453 139.544 227.48C139.317 228.267 139.044 229.06 138.724 229.86C138.604 230.153 138.397 230.36 138.104 230.48C137.824 230.6 137.537 230.6 137.244 230.48L137.024 230.4C136.73 230.28 136.524 230.08 136.404 229.8C136.297 229.52 136.297 229.233 136.404 228.94C137.15 227.033 137.717 224.98 138.104 222.78C138.157 222.473 138.304 222.227 138.544 222.04C138.797 221.84 139.077 221.767 139.384 221.82L139.544 221.84C139.85 221.893 140.104 222.053 140.304 222.32C140.504 222.573 140.577 222.853 140.524 223.16C140.417 223.773 140.33 224.233 140.264 224.54C140.237 224.647 140.257 224.753 140.324 224.86C140.884 225.887 141.557 226.64 142.344 227.12C142.424 227.173 142.464 227.14 142.464 227.02V220.84C142.464 220.72 142.41 220.66 142.304 220.66H137.744C137.557 220.66 137.384 220.62 137.224 220.54C137.117 220.487 137.037 220.5 136.984 220.58C136.837 220.793 136.59 221.113 136.244 221.54C136.177 221.633 136.144 221.727 136.144 221.82V229.74C136.144 230.047 136.03 230.307 135.804 230.52C135.59 230.747 135.33 230.86 135.024 230.86H134.724C134.417 230.86 134.15 230.747 133.924 230.52C133.697 230.307 133.584 230.047 133.584 229.74V223.98C133.584 223.953 133.57 223.94 133.544 223.94C133.517 223.927 133.49 223.933 133.464 223.96C133.224 224.227 133.044 224.42 132.924 224.54C132.737 224.727 132.524 224.78 132.284 224.7C132.044 224.607 131.89 224.433 131.824 224.18ZM154.804 220C154.497 220 154.237 219.893 154.024 219.68C153.81 219.467 153.704 219.207 153.704 218.9C153.704 218.593 153.81 218.333 154.024 218.12C154.237 217.907 154.497 217.8 154.804 217.8H156.304C156.41 217.8 156.464 217.74 156.464 217.62V214.54C156.464 214.233 156.577 213.967 156.804 213.74C157.03 213.513 157.297 213.4 157.604 213.4H157.944C158.25 213.4 158.51 213.513 158.724 213.74C158.95 213.967 159.064 214.233 159.064 214.54V217.62C159.064 217.74 159.124 217.8 159.244 217.8H161.344C161.45 217.8 161.504 217.74 161.504 217.62V213.66C161.504 213.353 161.617 213.093 161.844 212.88C162.07 212.653 162.337 212.54 162.644 212.54H163.104C163.41 212.54 163.677 212.653 163.904 212.88C164.13 213.093 164.244 213.353 164.244 213.66V213.96C164.244 214.08 164.297 214.14 164.404 214.14H169.544C169.837 214.14 170.077 214.24 170.264 214.44C170.464 214.627 170.564 214.867 170.564 215.16C170.564 215.453 170.464 215.7 170.264 215.9C170.077 216.1 169.837 216.2 169.544 216.2H164.404C164.297 216.2 164.244 216.253 164.244 216.36V217.62C164.244 217.74 164.297 217.8 164.404 217.8H170.604C170.91 217.8 171.17 217.907 171.384 218.12C171.597 218.333 171.704 218.593 171.704 218.9C171.704 219.207 171.597 219.467 171.384 219.68C171.17 219.893 170.91 220 170.604 220H168.684C168.657 220 168.637 220.02 168.624 220.06C168.61 220.087 168.617 220.113 168.644 220.14C169.644 221.313 170.504 222.433 171.224 223.5C171.397 223.767 171.444 224.047 171.364 224.34C171.297 224.633 171.13 224.86 170.864 225.02L170.764 225.08C170.497 225.24 170.21 225.287 169.904 225.22C169.597 225.153 169.357 224.993 169.184 224.74C168.53 223.78 167.777 222.8 166.924 221.8C166.737 221.573 166.657 221.313 166.684 221.02C166.71 220.727 166.85 220.493 167.104 220.32L167.464 220.1C167.49 220.087 167.497 220.067 167.484 220.04C167.484 220.013 167.47 220 167.444 220H164.404C164.297 220 164.244 220.06 164.244 220.18V222.66C164.244 223.22 164.237 223.66 164.224 223.98C164.21 224.287 164.157 224.58 164.064 224.86C163.984 225.14 163.884 225.34 163.764 225.46C163.657 225.567 163.47 225.667 163.204 225.76C162.95 225.853 162.67 225.907 162.364 225.92C162.07 225.933 161.664 225.94 161.144 225.94C160.837 225.94 160.304 225.92 159.544 225.88C159.237 225.867 158.964 225.753 158.724 225.54C158.497 225.313 158.377 225.047 158.364 224.74C158.35 224.447 158.444 224.2 158.644 224C158.857 223.787 159.117 223.687 159.424 223.7L160.664 223.74C161.077 223.74 161.317 223.7 161.384 223.62C161.464 223.527 161.504 223.253 161.504 222.8V220.18C161.504 220.06 161.45 220 161.344 220H157.584C157.557 220 157.544 220.013 157.544 220.04C157.544 220.053 157.55 220.067 157.564 220.08L157.944 220.26C158.237 220.407 158.437 220.627 158.544 220.92C158.65 221.2 158.637 221.487 158.504 221.78C157.944 222.953 157.204 224.12 156.284 225.28C156.084 225.533 155.824 225.68 155.504 225.72C155.184 225.747 154.897 225.667 154.644 225.48L154.504 225.36C154.25 225.173 154.11 224.933 154.084 224.64C154.057 224.333 154.137 224.053 154.324 223.8C155.23 222.613 155.984 221.4 156.584 220.16C156.637 220.053 156.604 220 156.484 220H154.804ZM166.444 224.9C166.684 224.7 166.964 224.607 167.284 224.62C167.604 224.633 167.87 224.753 168.084 224.98L168.104 225.02C168.33 225.247 168.437 225.52 168.424 225.84C168.41 226.16 168.284 226.42 168.044 226.62C165.324 228.913 161.384 230.32 156.224 230.84C155.904 230.867 155.604 230.787 155.324 230.6C155.044 230.427 154.85 230.18 154.744 229.86L154.704 229.74C154.61 229.473 154.644 229.22 154.804 228.98C154.964 228.74 155.184 228.607 155.464 228.58C160.277 228.14 163.937 226.913 166.444 224.9ZM177.044 216.66C176.737 216.66 176.47 216.553 176.244 216.34C176.017 216.113 175.904 215.847 175.904 215.54C175.904 215.233 176.017 214.967 176.244 214.74C176.47 214.513 176.737 214.4 177.044 214.4H184.144C184.45 214.4 184.71 214.513 184.924 214.74C185.15 214.967 185.264 215.233 185.264 215.54C185.264 216.3 184.984 216.927 184.424 217.42L181.184 220.36C181.17 220.373 181.164 220.387 181.164 220.4C181.164 220.413 181.17 220.42 181.184 220.42H181.504C182.73 220.42 183.697 220.773 184.404 221.48C185.11 222.173 185.464 223.147 185.464 224.4C185.464 225.933 184.997 227.12 184.064 227.96C183.13 228.787 181.797 229.2 180.064 229.2C179.037 229.2 178.044 229.08 177.084 228.84C176.764 228.76 176.504 228.58 176.304 228.3C176.104 228.02 176.004 227.707 176.004 227.36V227.14C176.004 226.873 176.11 226.667 176.324 226.52C176.55 226.36 176.797 226.32 177.064 226.4C178.144 226.76 179.104 226.94 179.944 226.94C180.824 226.94 181.504 226.727 181.984 226.3C182.464 225.873 182.704 225.253 182.704 224.44C182.704 223.693 182.43 223.16 181.884 222.84C181.35 222.507 180.404 222.34 179.044 222.34H178.824C178.557 222.34 178.324 222.24 178.124 222.04C177.937 221.84 177.844 221.607 177.844 221.34C177.844 220.673 178.084 220.12 178.564 219.68L181.824 216.72C181.837 216.707 181.844 216.693 181.844 216.68C181.844 216.667 181.837 216.66 181.824 216.66H177.044ZM190.116 221.34L189.856 221.08C189.643 220.853 189.536 220.593 189.536 220.3C189.55 219.993 189.67 219.727 189.896 219.5C191.576 217.86 192.983 216.013 194.116 213.96C194.276 213.68 194.503 213.48 194.796 213.36C195.103 213.24 195.41 213.233 195.716 213.34L195.976 213.44C196.27 213.547 196.47 213.74 196.576 214.02C196.696 214.287 196.69 214.553 196.556 214.82C195.836 216.22 194.996 217.54 194.036 218.78C193.97 218.887 193.99 218.94 194.096 218.94H203.296C203.323 218.94 203.343 218.927 203.356 218.9C203.383 218.873 203.39 218.847 203.376 218.82C202.43 217.593 201.583 216.26 200.836 214.82C200.703 214.553 200.69 214.287 200.796 214.02C200.916 213.74 201.123 213.547 201.416 213.44L201.676 213.34C201.983 213.233 202.283 213.24 202.576 213.36C202.883 213.48 203.116 213.68 203.276 213.96C204.41 216.013 205.816 217.86 207.496 219.5C207.723 219.727 207.836 219.993 207.836 220.3C207.85 220.593 207.75 220.853 207.536 221.08L207.276 221.34C207.063 221.567 206.796 221.687 206.476 221.7C206.156 221.7 205.883 221.587 205.656 221.36L205.116 220.82C205.103 220.793 205.076 220.787 205.036 220.8C205.01 220.813 204.996 220.833 204.996 220.86V221.6C204.996 223.04 204.976 224.233 204.936 225.18C204.91 226.113 204.836 226.933 204.716 227.64C204.596 228.347 204.456 228.887 204.296 229.26C204.15 229.633 203.923 229.927 203.616 230.14C203.31 230.367 202.99 230.507 202.656 230.56C202.336 230.627 201.896 230.66 201.336 230.66C200.763 230.66 200.023 230.633 199.116 230.58C198.796 230.567 198.523 230.44 198.296 230.2C198.083 229.96 197.97 229.68 197.956 229.36V229.3C197.943 229.007 198.05 228.753 198.276 228.54C198.503 228.313 198.77 228.213 199.076 228.24C200.17 228.293 200.796 228.32 200.956 228.32C201.303 228.32 201.563 228.207 201.736 227.98C201.923 227.74 202.07 227.22 202.176 226.42C202.283 225.607 202.336 224.4 202.336 222.8V221.36C202.336 221.253 202.276 221.2 202.156 221.2H197.896C197.776 221.2 197.716 221.253 197.716 221.36C197.516 223.587 197.036 225.4 196.276 226.8C195.53 228.2 194.403 229.407 192.896 230.42C192.63 230.593 192.336 230.653 192.016 230.6C191.696 230.547 191.43 230.393 191.216 230.14L190.976 229.86C190.79 229.633 190.723 229.373 190.776 229.08C190.843 228.787 191.003 228.56 191.256 228.4C192.443 227.627 193.336 226.693 193.936 225.6C194.55 224.507 194.943 223.093 195.116 221.36C195.116 221.253 195.063 221.2 194.956 221.2H191.956C191.943 221.2 191.936 221.193 191.936 221.18L191.916 221.2C191.903 221.227 191.876 221.253 191.836 221.28C191.796 221.307 191.763 221.333 191.736 221.36C191.51 221.587 191.236 221.7 190.916 221.7C190.596 221.687 190.33 221.567 190.116 221.34Z" fill="white"/>
</svg>
