<svg width="177" height="33" viewBox="0 0 177 33" fill="none" xmlns="http://www.w3.org/2000/svg">
<path fill-rule="evenodd" clip-rule="evenodd" d="M172.97 1.77423C172.604 2.32062 171.412 3.88611 167.859 10.2046C164.406 16.3452 158.619 27.1944 156.509 30.9054C155.407 32.8438 157.046 33.2874 157.606 32.5569C157.851 32.2375 162.778 24.286 167.358 16.4004C170.945 10.2261 174.318 3.93515 175.059 2.42343C175.564 1.39514 173.919 0.170408 172.97 1.77423Z" fill="#1391E6"/>
<path fill-rule="evenodd" clip-rule="evenodd" d="M174.418 24.575C172.97 25.9781 169.196 29.3602 167.72 31.3586C166.144 33.3118 168.399 33.3555 169.419 32.3578C170.499 31.2998 175.103 26.7136 176.219 25.3527C177.942 23.2518 176.578 22.4304 174.418 24.575Z" fill="#1391E6"/>
<path d="M117.853 8.16002C116.948 6.56002 115.564 5.76003 113.701 5.76003C111.839 5.76003 110.455 6.56002 109.55 8.16002C108.645 9.76003 108.193 12.5067 108.193 16.4C108.193 20.2934 108.645 23.04 109.55 24.64C110.455 26.24 111.839 27.04 113.701 27.04C115.564 27.04 116.948 26.24 117.853 24.64C118.758 23.04 119.21 20.2934 119.21 16.4C119.21 12.5067 118.758 9.76003 117.853 8.16002ZM122.085 27.84C120.248 30.2134 117.454 31.4 113.701 31.4C109.949 31.4 107.148 30.2134 105.298 27.84C103.449 25.4667 102.524 21.6534 102.524 16.4C102.524 11.1467 103.449 7.33336 105.298 4.96002C107.148 2.58669 109.949 1.40002 113.701 1.40002C117.454 1.40002 120.255 2.58669 122.105 4.96002C123.954 7.33336 124.879 11.1467 124.879 16.4C124.879 21.6534 123.948 25.4667 122.085 27.84ZM132.384 12.56C132.011 12.8534 131.619 12.8934 131.206 12.68C130.794 12.4667 130.588 12.1334 130.588 11.68V10.08C130.588 8.58669 131.186 7.37336 132.384 6.44002L136.655 3.16002C137.853 2.25336 139.21 1.80002 140.727 1.80002H141.925C142.537 1.80002 143.062 2.02669 143.502 2.48002C143.941 2.93336 144.16 3.46669 144.16 4.08003V28.72C144.16 29.3334 143.941 29.8667 143.502 30.32C143.062 30.7734 142.537 31 141.925 31H140.727C140.115 31 139.583 30.7734 139.13 30.32C138.678 29.8667 138.452 29.3334 138.452 28.72V7.96003L138.412 7.92002L138.372 7.96003L132.384 12.56Z" stroke="#1391E6" stroke-width="2"/>
<path d="M37.1352 16.556C36.39 16.78 35.8258 17.084 35.4426 17.468C35.0594 17.852 34.8678 18.2733 34.8678 18.732C34.8678 19.148 35.0354 19.5186 35.3708 19.844C35.7061 20.1693 36.0707 20.332 36.4646 20.332C36.7733 20.332 36.9835 20.268 37.0953 20.14C37.2071 20.012 37.263 19.772 37.263 19.42V16.652C37.263 16.5666 37.2204 16.5346 37.1352 16.556ZM36.6721 22.14C35.6076 22.14 34.7028 21.812 33.9576 21.156C33.2124 20.5 32.8398 19.692 32.8398 18.732C32.8398 17.8146 33.2151 16.9826 33.9656 16.236C34.7161 15.4893 35.7726 14.9453 37.1352 14.604C37.2204 14.5826 37.263 14.524 37.263 14.428V12.412C37.263 12.316 37.2151 12.268 37.1192 12.268H34.3887C34.1545 12.268 33.9549 12.1853 33.7899 12.02C33.6249 11.8546 33.5424 11.6546 33.5424 11.42C33.5424 11.1853 33.6249 10.9853 33.7899 10.82C33.9549 10.6546 34.1545 10.572 34.3887 10.572H37.1192C37.2151 10.572 37.263 10.524 37.263 10.428V9.49998C37.263 9.25464 37.3534 9.04131 37.5344 8.85998C37.7154 8.67865 37.9283 8.58798 38.1731 8.58798H38.3807C38.6256 8.58798 38.8385 8.67865 39.0194 8.85998C39.2004 9.04131 39.2909 9.25464 39.2909 9.49998V10.428C39.2909 10.524 39.3335 10.572 39.4186 10.572H41.9416C42.1758 10.572 42.378 10.6546 42.5483 10.82C42.7187 10.9853 42.8038 11.1853 42.8038 11.42C42.8038 11.6546 42.7187 11.8546 42.5483 12.02C42.378 12.1853 42.1758 12.268 41.9416 12.268H39.4186C39.3335 12.268 39.2909 12.316 39.2909 12.412V14.14C39.2909 14.2253 39.3388 14.268 39.4346 14.268C39.6049 14.2573 39.8764 14.252 40.249 14.252C41.8245 14.252 43.0966 14.62 44.0653 15.356C45.034 16.092 45.5184 16.9826 45.5184 18.028C45.5184 20.3 44.2942 21.692 41.8458 22.204C41.5903 22.2573 41.3561 22.212 41.1432 22.068C40.9303 21.924 40.7919 21.724 40.728 21.468L40.712 21.42C40.6588 21.1853 40.6987 20.9666 40.8318 20.764C40.9649 20.5613 41.1485 20.4333 41.3827 20.38C42.0959 20.2093 42.6175 19.94 42.9475 19.572C43.2775 19.204 43.4425 18.7266 43.4425 18.14C43.4425 17.6066 43.1525 17.1453 42.5723 16.756C41.9921 16.3666 41.2177 16.172 40.249 16.172C39.8764 16.172 39.6049 16.1773 39.4346 16.188C39.3388 16.188 39.2909 16.236 39.2909 16.332V19.532C39.2909 20.5133 39.0993 21.1933 38.716 21.572C38.3328 21.9506 37.6515 22.14 36.6721 22.14ZM45.2469 10.636C45.8218 11.4146 46.3221 12.1453 46.7479 12.828C46.8756 13.0306 46.9102 13.252 46.8517 13.492C46.7931 13.732 46.6627 13.9106 46.4605 14.028C46.2476 14.1453 46.024 14.1746 45.7898 14.116C45.5556 14.0573 45.3747 13.9266 45.2469 13.724C44.7359 12.924 44.2676 12.2306 43.8417 11.644C43.7034 11.452 43.6501 11.2386 43.6821 11.004C43.714 10.7693 43.8258 10.5826 44.0174 10.444C44.2196 10.3053 44.4405 10.2546 44.6801 10.292C44.9196 10.3293 45.1085 10.444 45.2469 10.636ZM56.0253 16.78C56.3233 16.5026 56.4724 16.156 56.4724 15.74C56.4724 15.324 56.3233 14.98 56.0253 14.708C55.7272 14.436 55.344 14.3 54.8756 14.3C54.4072 14.3 54.024 14.436 53.7259 14.708C53.4278 14.98 53.2788 15.324 53.2788 15.74C53.2788 16.156 53.4278 16.5 53.7259 16.772C54.024 17.044 54.4072 17.18 54.8756 17.18C55.344 17.18 55.7272 17.0466 56.0253 16.78ZM49.5583 11.9C49.3241 11.9 49.1245 11.8173 48.9595 11.652C48.7945 11.4866 48.712 11.2866 48.712 11.052C48.712 10.8173 48.7945 10.6146 48.9595 10.444C49.1245 10.2733 49.3241 10.188 49.5583 10.188H56.1211C56.2169 10.188 56.2648 10.1453 56.2648 10.06V9.33998C56.2648 9.09464 56.3553 8.88131 56.5362 8.69998C56.7172 8.51865 56.9301 8.42798 57.175 8.42798H57.3825C57.6274 8.42798 57.8403 8.51865 58.0213 8.69998C58.2022 8.88131 58.2927 9.09464 58.2927 9.33998V10.044C58.2927 10.14 58.3353 10.188 58.4205 10.188H61.6939C61.9281 10.188 62.1277 10.2733 62.2927 10.444C62.4577 10.6146 62.5402 10.8173 62.5402 11.052C62.5402 11.2866 62.4577 11.4866 62.2927 11.652C62.1277 11.8173 61.9281 11.9 61.6939 11.9H58.4205C58.3353 11.9 58.2927 11.948 58.2927 12.044V14.94C58.2927 15.0466 58.3087 15.1373 58.3406 15.212C58.5855 15.852 58.7079 16.524 58.7079 17.228C58.7079 18.7426 58.314 19.9106 57.5262 20.732C56.7385 21.5533 55.4345 22.108 53.6141 22.396C53.3693 22.4386 53.1431 22.38 52.9355 22.22C52.7279 22.06 52.5975 21.8573 52.5443 21.612V21.548C52.5017 21.3133 52.5522 21.0973 52.696 20.9C52.8397 20.7026 53.0339 20.5826 53.2788 20.54C54.4391 20.3586 55.2588 20.1 55.7378 19.764C56.2169 19.428 56.5256 18.9453 56.664 18.316C56.664 18.3053 56.6666 18.2946 56.672 18.284C56.6773 18.2733 56.6799 18.2626 56.6799 18.252V18.236H56.632C56.0891 18.6733 55.3972 18.892 54.5562 18.892C53.5875 18.892 52.7971 18.596 52.185 18.004C51.5729 17.412 51.2668 16.6573 51.2668 15.74C51.2668 14.812 51.5782 14.0546 52.2009 13.468C52.8237 12.8813 53.6301 12.588 54.6201 12.588C55.1843 12.588 55.7166 12.7106 56.2169 12.956C56.2275 12.956 56.2328 12.9586 56.2328 12.964C56.2328 12.9693 56.2382 12.972 56.2488 12.972C56.2595 12.972 56.2648 12.9666 56.2648 12.956V12.044C56.2648 11.948 56.2169 11.9 56.1211 11.9H49.5583ZM71.9932 16.78C72.2913 16.5026 72.4403 16.156 72.4403 15.74C72.4403 15.324 72.2913 14.98 71.9932 14.708C71.6951 14.436 71.3119 14.3 70.8435 14.3C70.3751 14.3 69.9919 14.436 69.6938 14.708C69.3957 14.98 69.2467 15.324 69.2467 15.74C69.2467 16.156 69.3957 16.5 69.6938 16.772C69.9919 17.044 70.3751 17.18 70.8435 17.18C71.3119 17.18 71.6951 17.0466 71.9932 16.78ZM65.5262 11.9C65.292 11.9 65.0924 11.8173 64.9274 11.652C64.7624 11.4866 64.6799 11.2866 64.6799 11.052C64.6799 10.8173 64.7624 10.6146 64.9274 10.444C65.0924 10.2733 65.292 10.188 65.5262 10.188H72.089C72.1848 10.188 72.2327 10.1453 72.2327 10.06V9.33998C72.2327 9.09464 72.3232 8.88131 72.5042 8.69998C72.6851 8.51865 72.898 8.42798 73.1429 8.42798H73.3505C73.5953 8.42798 73.8082 8.51865 73.9892 8.69998C74.1701 8.88131 74.2606 9.09464 74.2606 9.33998V10.044C74.2606 10.14 74.3032 10.188 74.3884 10.188H77.6618C77.896 10.188 78.0956 10.2733 78.2606 10.444C78.4256 10.6146 78.5081 10.8173 78.5081 11.052C78.5081 11.2866 78.4256 11.4866 78.2606 11.652C78.0956 11.8173 77.896 11.9 77.6618 11.9H74.3884C74.3032 11.9 74.2606 11.948 74.2606 12.044V14.94C74.2606 15.0466 74.2766 15.1373 74.3085 15.212C74.5534 15.852 74.6758 16.524 74.6758 17.228C74.6758 18.7426 74.2819 19.9106 73.4942 20.732C72.7064 21.5533 71.4024 22.108 69.582 22.396C69.3372 22.4386 69.111 22.38 68.9034 22.22C68.6958 22.06 68.5654 21.8573 68.5122 21.612V21.548C68.4696 21.3133 68.5202 21.0973 68.6639 20.9C68.8076 20.7026 69.0019 20.5826 69.2467 20.54C70.407 20.3586 71.2267 20.1 71.7058 19.764C72.1848 19.428 72.4935 18.9453 72.6319 18.316C72.6319 18.3053 72.6346 18.2946 72.6399 18.284C72.6452 18.2733 72.6479 18.2626 72.6479 18.252V18.236H72.6C72.0571 18.6733 71.3651 18.892 70.5241 18.892C69.5554 18.892 68.765 18.596 68.1529 18.004C67.5408 17.412 67.2347 16.6573 67.2347 15.74C67.2347 14.812 67.5461 14.0546 68.1689 13.468C68.7916 12.8813 69.598 12.588 70.588 12.588C71.1522 12.588 71.6845 12.7106 72.1848 12.956C72.1954 12.956 72.2008 12.9586 72.2008 12.964C72.2008 12.9693 72.2061 12.972 72.2167 12.972C72.2274 12.972 72.2327 12.9666 72.2327 12.956V12.044C72.2327 11.948 72.1848 11.9 72.089 11.9H65.5262ZM83.6977 14.428C82.8993 15.292 82.5001 16.332 82.5001 17.548C82.5001 18.2626 82.6198 18.8146 82.8594 19.204C83.0989 19.5933 83.389 19.788 83.7296 19.788C84.1661 19.788 84.6664 19.4893 85.2306 18.892C85.2838 18.828 85.2891 18.7533 85.2466 18.668C85.2146 18.6253 85.1933 18.5826 85.1827 18.54C84.6717 17.1106 84.2193 15.756 83.8254 14.476C83.8041 14.38 83.7615 14.364 83.6977 14.428ZM87.8813 12.812C87.0509 12.812 86.2951 12.9346 85.6138 13.18C85.5287 13.212 85.4967 13.276 85.518 13.372C85.8161 14.396 86.178 15.548 86.6038 16.828C86.6251 16.892 86.6624 16.8866 86.7156 16.812C87.3543 15.7133 87.9345 14.4333 88.4561 12.972C88.4668 12.94 88.4641 12.908 88.4481 12.876C88.4322 12.844 88.4082 12.828 88.3763 12.828C88.2698 12.8173 88.1048 12.812 87.8813 12.812ZM83.522 21.772C82.681 21.772 81.9811 21.4013 81.4222 20.66C80.8634 19.9186 80.5839 18.8813 80.5839 17.548C80.5839 16.492 80.8022 15.5133 81.2386 14.612C81.6751 13.7106 82.2872 12.9506 83.0749 12.332C83.1494 12.2786 83.1814 12.2146 83.1707 12.14C82.9578 11.3506 82.8035 10.7533 82.7077 10.348C82.6544 10.1026 82.6944 9.87331 82.8274 9.65998C82.9605 9.44664 83.1494 9.31864 83.3943 9.27598L83.538 9.24398C83.7828 9.20131 84.0117 9.24398 84.2246 9.37198C84.4375 9.49998 84.5706 9.68664 84.6238 9.93198C84.6557 10.0813 84.709 10.2973 84.7835 10.58C84.858 10.8626 84.9059 11.0573 84.9272 11.164C84.9485 11.2386 85.0017 11.2653 85.0869 11.244C85.9491 10.9346 86.8806 10.78 87.8813 10.78C88.3071 10.78 88.685 10.8013 89.015 10.844C89.1108 10.8653 89.1693 10.828 89.1906 10.732C89.2758 10.444 89.4035 9.99064 89.5739 9.37198C89.6377 9.12664 89.7788 8.93464 89.997 8.79598C90.2152 8.65731 90.4468 8.61465 90.6916 8.66798L90.8194 8.69998C91.0642 8.75331 91.2532 8.88398 91.3862 9.09198C91.5193 9.29998 91.5539 9.52131 91.49 9.75598C91.341 10.3746 91.2079 10.8706 91.0908 11.244C91.0695 11.3293 91.0961 11.388 91.1707 11.42C92.2245 11.8786 93.0495 12.5506 93.6457 13.436C94.2418 14.3213 94.5399 15.34 94.5399 16.492C94.5399 18.0386 94.1726 19.2973 93.4381 20.268C92.7036 21.2386 91.6444 21.8946 90.2605 22.236C90.0156 22.3 89.7841 22.2626 89.5659 22.124C89.3476 21.9853 89.2066 21.788 89.1427 21.532L89.1108 21.42C89.0469 21.196 89.0815 20.98 89.2146 20.772C89.3476 20.564 89.5313 20.428 89.7655 20.364C91.5965 19.8413 92.512 18.5506 92.512 16.492C92.512 15.8093 92.339 15.196 91.993 14.652C91.647 14.108 91.16 13.6813 90.5319 13.372C90.4681 13.34 90.4148 13.3666 90.3723 13.452C89.3822 16.2146 88.2778 18.292 87.0589 19.684C85.84 21.076 84.6611 21.772 83.522 21.772Z" fill="#1391E6"/>
<path fill-rule="evenodd" clip-rule="evenodd" d="M4.02972 1.77423C4.39523 2.32062 5.58799 3.88611 9.14067 10.2046C12.5941 16.3452 18.3803 27.1944 20.4905 30.9054C21.5931 32.8438 19.9536 33.2874 19.3941 32.5569C19.1489 32.2375 14.2215 24.286 9.64149 16.4004C6.05425 10.2261 2.68206 3.93515 1.9405 2.42343C1.43514 1.39514 3.08061 0.170408 4.02972 1.77423Z" fill="#1391E6"/>
<path fill-rule="evenodd" clip-rule="evenodd" d="M2.58173 24.575C4.03021 25.9781 7.804 29.3602 9.27949 31.3586C10.8558 33.3118 8.60116 33.3555 7.58136 32.3578C6.50144 31.2998 1.89741 26.7136 0.781362 25.3527C-0.942348 23.2518 0.421885 22.4304 2.58173 24.575Z" fill="#1391E6"/>
</svg>
