<svg width="182" height="33" viewBox="0 0 182 33" fill="none" xmlns="http://www.w3.org/2000/svg">
<path fill-rule="evenodd" clip-rule="evenodd" d="M177.964 1.77423C177.598 2.32062 176.404 3.88611 172.846 10.2046C169.388 16.3452 163.594 27.1944 161.481 30.9054C160.377 32.8438 162.018 33.2874 162.579 32.5569C162.824 32.2375 167.758 24.286 172.345 16.4004C175.937 10.2261 179.314 3.93515 180.056 2.42343C180.562 1.39514 178.915 0.170408 177.964 1.77423Z" fill="#1391E6"/>
<path fill-rule="evenodd" clip-rule="evenodd" d="M179.415 24.575C177.965 25.9781 174.186 29.3602 172.708 31.3586C171.13 33.3118 173.387 33.3555 174.408 32.3578C175.49 31.2998 180.1 26.7136 181.218 25.3527C182.944 23.2518 181.578 22.4304 179.415 24.575Z" fill="#1391E6"/>
<path d="M118.015 8.16002C117.109 6.56002 115.723 5.76003 113.857 5.76003C111.992 5.76003 110.606 6.56002 109.7 8.16002C108.794 9.76003 108.341 12.5067 108.341 16.4C108.341 20.2934 108.794 23.04 109.7 24.64C110.606 26.24 111.992 27.04 113.857 27.04C115.723 27.04 117.109 26.24 118.015 24.64C118.921 23.04 119.374 20.2934 119.374 16.4C119.374 12.5067 118.921 9.76003 118.015 8.16002ZM122.252 27.84C120.413 30.2134 117.615 31.4 113.857 31.4C110.1 31.4 107.295 30.2134 105.443 27.84C103.591 25.4667 102.665 21.6534 102.665 16.4C102.665 11.1467 103.591 7.33336 105.443 4.96002C107.295 2.58669 110.1 1.40002 113.857 1.40002C117.615 1.40002 120.42 2.58669 122.272 4.96002C124.124 7.33336 125.05 11.1467 125.05 16.4C125.05 21.6534 124.118 25.4667 122.252 27.84ZM149.035 9.92002C149.035 12.4267 148.242 14.8334 146.657 17.14C145.071 19.4467 142 22.5067 137.442 26.32C137.389 26.3734 137.362 26.4134 137.362 26.44C137.362 26.4667 137.376 26.48 137.402 26.48H146.836C147.449 26.48 147.982 26.7 148.435 27.14C148.888 27.58 149.115 28.1067 149.115 28.72C149.115 29.3334 148.888 29.8667 148.435 30.32C147.982 30.7734 147.449 31 146.836 31H132.166C131.553 31 131.026 30.7734 130.587 30.32C130.147 29.8667 129.927 29.3334 129.927 28.72C129.927 27.2 130.5 25.9867 131.646 25.08C136.256 21.4 139.348 18.5334 140.92 16.48C142.493 14.4267 143.279 12.4267 143.279 10.48C143.279 7.52002 141.693 6.04002 138.522 6.04002C136.896 6.04002 134.924 6.49336 132.605 7.40003C132.099 7.61336 131.626 7.57336 131.186 7.28003C130.747 6.98669 130.527 6.58669 130.527 6.08002V5.40003C130.527 4.70669 130.72 4.07336 131.106 3.50002C131.493 2.92669 132.006 2.54669 132.645 2.36002C134.911 1.72002 137.136 1.40002 139.321 1.40002C142.439 1.40002 144.838 2.14669 146.517 3.64002C148.196 5.13336 149.035 7.22669 149.035 9.92002Z" stroke="#1391E6" stroke-width="2"/>
<path d="M37.186 16.556C36.4398 16.78 35.8749 17.084 35.4911 17.468C35.1074 17.852 34.9155 18.2733 34.9155 18.732C34.9155 19.148 35.0834 19.5186 35.4192 19.844C35.7549 20.1693 36.12 20.332 36.5145 20.332C36.8236 20.332 37.0341 20.268 37.1461 20.14C37.258 20.012 37.3139 19.772 37.3139 19.42V16.652C37.3139 16.5666 37.2713 16.5346 37.186 16.556ZM36.7223 22.14C35.6563 22.14 34.7502 21.812 34.0041 21.156C33.2579 20.5 32.8848 19.692 32.8848 18.732C32.8848 17.8146 33.2605 16.9826 34.012 16.236C34.7636 15.4893 35.8216 14.9453 37.186 14.604C37.2713 14.5826 37.3139 14.524 37.3139 14.428V12.412C37.3139 12.316 37.266 12.268 37.17 12.268H34.4358C34.2013 12.268 34.0014 12.1853 33.8362 12.02C33.6709 11.8546 33.5883 11.6546 33.5883 11.42C33.5883 11.1853 33.6709 10.9853 33.8362 10.82C34.0014 10.6546 34.2013 10.572 34.4358 10.572H37.17C37.266 10.572 37.3139 10.524 37.3139 10.428V9.49998C37.3139 9.25464 37.4046 9.04131 37.5858 8.85998C37.767 8.67865 37.9802 8.58798 38.2254 8.58798H38.4332C38.6784 8.58798 38.8916 8.67865 39.0728 8.85998C39.254 9.04131 39.3447 9.25464 39.3447 9.49998V10.428C39.3447 10.524 39.3873 10.572 39.4726 10.572H41.999C42.2335 10.572 42.436 10.6546 42.6066 10.82C42.7771 10.9853 42.8624 11.1853 42.8624 11.42C42.8624 11.6546 42.7771 11.8546 42.6066 12.02C42.436 12.1853 42.2335 12.268 41.999 12.268H39.4726C39.3873 12.268 39.3447 12.316 39.3447 12.412V14.14C39.3447 14.2253 39.3926 14.268 39.4886 14.268C39.6591 14.2573 39.9309 14.252 40.304 14.252C41.8817 14.252 43.1556 14.62 44.1256 15.356C45.0957 16.092 45.5807 16.9826 45.5807 18.028C45.5807 20.3 44.3548 21.692 41.903 22.204C41.6472 22.2573 41.4127 22.212 41.1995 22.068C40.9863 21.924 40.8477 21.724 40.7837 21.468L40.7677 21.42C40.7144 21.1853 40.7544 20.9666 40.8877 20.764C41.0209 20.5613 41.2048 20.4333 41.4393 20.38C42.1535 20.2093 42.6759 19.94 43.0063 19.572C43.3368 19.204 43.502 18.7266 43.502 18.14C43.502 17.6066 43.2115 17.1453 42.6306 16.756C42.0496 16.3666 41.2741 16.172 40.304 16.172C39.9309 16.172 39.6591 16.1773 39.4886 16.188C39.3926 16.188 39.3447 16.236 39.3447 16.332V19.532C39.3447 20.5133 39.1528 21.1933 38.769 21.572C38.3853 21.9506 37.703 22.14 36.7223 22.14ZM45.3089 10.636C45.8845 11.4146 46.3855 12.1453 46.8119 12.828C46.9398 13.0306 46.9745 13.252 46.9158 13.492C46.8572 13.732 46.7266 13.9106 46.5241 14.028C46.3109 14.1453 46.087 14.1746 45.8525 14.116C45.618 14.0573 45.4368 13.9266 45.3089 13.724C44.7972 12.924 44.3281 12.2306 43.9018 11.644C43.7632 11.452 43.7099 11.2386 43.7419 11.004C43.7738 10.7693 43.8858 10.5826 44.0776 10.444C44.2802 10.3053 44.5014 10.2546 44.7412 10.292C44.9811 10.3293 45.1703 10.444 45.3089 10.636ZM56.102 16.78C56.4005 16.5026 56.5497 16.156 56.5497 15.74C56.5497 15.324 56.4005 14.98 56.102 14.708C55.8035 14.436 55.4198 14.3 54.9507 14.3C54.4817 14.3 54.0979 14.436 53.7995 14.708C53.501 14.98 53.3517 15.324 53.3517 15.74C53.3517 16.156 53.501 16.5 53.7995 16.772C54.0979 17.044 54.4817 17.18 54.9507 17.18C55.4198 17.18 55.8035 17.0466 56.102 16.78ZM49.6261 11.9C49.3916 11.9 49.1917 11.8173 49.0265 11.652C48.8613 11.4866 48.7786 11.2866 48.7786 11.052C48.7786 10.8173 48.8613 10.6146 49.0265 10.444C49.1917 10.2733 49.3916 10.188 49.6261 10.188H56.1979C56.2939 10.188 56.3418 10.1453 56.3418 10.06V9.33998C56.3418 9.09464 56.4324 8.88131 56.6137 8.69998C56.7949 8.51865 57.0081 8.42798 57.2533 8.42798H57.4611C57.7063 8.42798 57.9195 8.51865 58.1007 8.69998C58.2819 8.88131 58.3725 9.09464 58.3725 9.33998V10.044C58.3725 10.14 58.4152 10.188 58.5005 10.188H61.7784C62.0129 10.188 62.2128 10.2733 62.378 10.444C62.5432 10.6146 62.6258 10.8173 62.6258 11.052C62.6258 11.2866 62.5432 11.4866 62.378 11.652C62.2128 11.8173 62.0129 11.9 61.7784 11.9H58.5005C58.4152 11.9 58.3725 11.948 58.3725 12.044V14.94C58.3725 15.0466 58.3885 15.1373 58.4205 15.212C58.6657 15.852 58.7883 16.524 58.7883 17.228C58.7883 18.7426 58.3939 19.9106 57.605 20.732C56.8162 21.5533 55.5104 22.108 53.6875 22.396C53.4423 22.4386 53.2158 22.38 53.008 22.22C52.8001 22.06 52.6695 21.8573 52.6162 21.612V21.548C52.5736 21.3133 52.6242 21.0973 52.7681 20.9C52.912 20.7026 53.1066 20.5826 53.3517 20.54C54.5137 20.3586 55.3345 20.1 55.8142 19.764C56.2939 19.428 56.603 18.9453 56.7416 18.316C56.7416 18.3053 56.7442 18.2946 56.7496 18.284C56.7549 18.2733 56.7576 18.2626 56.7576 18.252V18.236H56.7096C56.1659 18.6733 55.4731 18.892 54.6309 18.892C53.6609 18.892 52.8694 18.596 52.2564 18.004C51.6435 17.412 51.337 16.6573 51.337 15.74C51.337 14.812 51.6488 14.0546 52.2724 13.468C52.896 12.8813 53.7035 12.588 54.6949 12.588C55.2599 12.588 55.7929 12.7106 56.2939 12.956C56.3045 12.956 56.3099 12.9586 56.3099 12.964C56.3099 12.9693 56.3152 12.972 56.3258 12.972C56.3365 12.972 56.3418 12.9666 56.3418 12.956V12.044C56.3418 11.948 56.2939 11.9 56.1979 11.9H49.6261ZM72.0918 16.78C72.3903 16.5026 72.5395 16.156 72.5395 15.74C72.5395 15.324 72.3903 14.98 72.0918 14.708C71.7933 14.436 71.4096 14.3 70.9405 14.3C70.4715 14.3 70.0877 14.436 69.7893 14.708C69.4908 14.98 69.3416 15.324 69.3416 15.74C69.3416 16.156 69.4908 16.5 69.7893 16.772C70.0877 17.044 70.4715 17.18 70.9405 17.18C71.4096 17.18 71.7933 17.0466 72.0918 16.78ZM65.6159 11.9C65.3814 11.9 65.1815 11.8173 65.0163 11.652C64.8511 11.4866 64.7685 11.2866 64.7685 11.052C64.7685 10.8173 64.8511 10.6146 65.0163 10.444C65.1815 10.2733 65.3814 10.188 65.6159 10.188H72.1877C72.2837 10.188 72.3317 10.1453 72.3317 10.06V9.33998C72.3317 9.09464 72.4223 8.88131 72.6035 8.69998C72.7847 8.51865 72.9979 8.42798 73.2431 8.42798H73.4509C73.6961 8.42798 73.9093 8.51865 74.0905 8.69998C74.2718 8.88131 74.3624 9.09464 74.3624 9.33998V10.044C74.3624 10.14 74.405 10.188 74.4903 10.188H77.7682C78.0027 10.188 78.2026 10.2733 78.3678 10.444C78.533 10.6146 78.6157 10.8173 78.6157 11.052C78.6157 11.2866 78.533 11.4866 78.3678 11.652C78.2026 11.8173 78.0027 11.9 77.7682 11.9H74.4903C74.405 11.9 74.3624 11.948 74.3624 12.044V14.94C74.3624 15.0466 74.3783 15.1373 74.4103 15.212C74.6555 15.852 74.7781 16.524 74.7781 17.228C74.7781 18.7426 74.3837 19.9106 73.5948 20.732C72.806 21.5533 71.5002 22.108 69.6773 22.396C69.4322 22.4386 69.2056 22.38 68.9978 22.22C68.7899 22.06 68.6593 21.8573 68.606 21.612V21.548C68.5634 21.3133 68.614 21.0973 68.7579 20.9C68.9018 20.7026 69.0964 20.5826 69.3416 20.54C70.5035 20.3586 71.3243 20.1 71.804 19.764C72.2837 19.428 72.5928 18.9453 72.7314 18.316C72.7314 18.3053 72.7341 18.2946 72.7394 18.284C72.7447 18.2733 72.7474 18.2626 72.7474 18.252V18.236H72.6994C72.1558 18.6733 71.4629 18.892 70.6207 18.892C69.6507 18.892 68.8592 18.596 68.2463 18.004C67.6333 17.412 67.3268 16.6573 67.3268 15.74C67.3268 14.812 67.6386 14.0546 68.2622 13.468C68.8858 12.8813 69.6933 12.588 70.6847 12.588C71.2497 12.588 71.7827 12.7106 72.2837 12.956C72.2943 12.956 72.2997 12.9586 72.2997 12.964C72.2997 12.9693 72.305 12.972 72.3157 12.972C72.3263 12.972 72.3317 12.9666 72.3317 12.956V12.044C72.3317 11.948 72.2837 11.9 72.1877 11.9H65.6159ZM83.8123 14.428C83.0129 15.292 82.6131 16.332 82.6131 17.548C82.6131 18.2626 82.733 18.8146 82.9729 19.204C83.2127 19.5933 83.5032 19.788 83.8443 19.788C84.2814 19.788 84.7824 19.4893 85.3474 18.892C85.4007 18.828 85.406 18.7533 85.3634 18.668C85.3314 18.6253 85.3101 18.5826 85.2994 18.54C84.7877 17.1106 84.3347 15.756 83.9403 14.476C83.9189 14.38 83.8763 14.364 83.8123 14.428ZM88.0017 12.812C87.1702 12.812 86.4134 12.9346 85.7311 13.18C85.6458 13.212 85.6139 13.276 85.6352 13.372C85.9337 14.396 86.2961 15.548 86.7225 16.828C86.7438 16.892 86.7811 16.8866 86.8344 16.812C87.474 15.7133 88.055 14.4333 88.5773 12.972C88.588 12.94 88.5853 12.908 88.5693 12.876C88.5533 12.844 88.5293 12.828 88.4974 12.828C88.3908 12.8173 88.2255 12.812 88.0017 12.812ZM83.6365 21.772C82.7943 21.772 82.0934 21.4013 81.5338 20.66C80.9742 19.9186 80.6943 18.8813 80.6943 17.548C80.6943 16.492 80.9129 15.5133 81.3499 14.612C81.787 13.7106 82.3999 12.9506 83.1887 12.332C83.2634 12.2786 83.2953 12.2146 83.2847 12.14C83.0715 11.3506 82.9169 10.7533 82.821 10.348C82.7677 10.1026 82.8077 9.87331 82.9409 9.65998C83.0742 9.44664 83.2634 9.31864 83.5085 9.27598L83.6525 9.24398C83.8976 9.20131 84.1268 9.24398 84.34 9.37198C84.5532 9.49998 84.6865 9.68664 84.7398 9.93198C84.7717 10.0813 84.825 10.2973 84.8997 10.58C84.9743 10.8626 85.0222 11.0573 85.0436 11.164C85.0649 11.2386 85.1182 11.2653 85.2035 11.244C86.0669 10.9346 86.9996 10.78 88.0017 10.78C88.4281 10.78 88.8065 10.8013 89.137 10.844C89.2329 10.8653 89.2915 10.828 89.3128 10.732C89.3981 10.444 89.526 9.99064 89.6966 9.37198C89.7606 9.12664 89.9018 8.93464 90.1203 8.79598C90.3389 8.65731 90.5707 8.61465 90.8159 8.66798L90.9438 8.69998C91.189 8.75331 91.3782 8.88398 91.5114 9.09198C91.6447 9.29998 91.6793 9.52131 91.6154 9.75598C91.4661 10.3746 91.3329 10.8706 91.2156 11.244C91.1943 11.3293 91.221 11.388 91.2956 11.42C92.3509 11.8786 93.177 12.5506 93.774 13.436C94.371 14.3213 94.6694 15.34 94.6694 16.492C94.6694 18.0386 94.3017 19.2973 93.5661 20.268C92.8306 21.2386 91.7699 21.8946 90.3842 22.236C90.139 22.3 89.9071 22.2626 89.6886 22.124C89.4701 21.9853 89.3288 21.788 89.2649 21.532L89.2329 21.42C89.1689 21.196 89.2036 20.98 89.3368 20.772C89.4701 20.564 89.654 20.428 89.8885 20.364C91.722 19.8413 92.6387 18.5506 92.6387 16.492C92.6387 15.8093 92.4655 15.196 92.1191 14.652C91.7726 14.108 91.2849 13.6813 90.656 13.372C90.592 13.34 90.5387 13.3666 90.4961 13.452C89.5047 16.2146 88.3988 18.292 87.1782 19.684C85.9576 21.076 84.7771 21.772 83.6365 21.772Z" fill="#1391E6"/>
<path fill-rule="evenodd" clip-rule="evenodd" d="M4.03565 1.77423C4.40165 2.32062 5.59605 3.88611 9.1536 10.2046C12.6117 16.3452 18.4059 27.1944 20.519 30.9054C21.6231 32.8438 19.9814 33.2874 19.4211 32.5569C19.1756 32.2375 14.2414 24.286 9.65512 16.4004C6.06295 10.2261 2.68613 3.93515 1.94356 2.42343C1.43751 1.39514 3.08523 0.170408 4.03565 1.77423Z" fill="#1391E6"/>
<path fill-rule="evenodd" clip-rule="evenodd" d="M2.58527 24.575C4.03573 25.9781 7.8147 29.3602 9.29221 31.3586C10.8707 33.3118 8.61296 33.3555 7.59176 32.3578C6.51035 31.2998 1.90001 26.7136 0.782433 25.3527C-0.943641 23.2518 0.422464 22.4304 2.58527 24.575Z" fill="#1391E6"/>
</svg>
