<svg width="182" height="33" viewBox="0 0 182 33" fill="none" xmlns="http://www.w3.org/2000/svg">
<path fill-rule="evenodd" clip-rule="evenodd" d="M177.96 1.77423C177.594 2.32062 176.399 3.88611 172.838 10.2046C169.377 16.3452 163.578 27.1944 161.463 30.9054C160.358 32.8438 162.001 33.2874 162.562 32.5569C162.807 32.2375 167.746 24.286 172.336 16.4004C175.931 10.2261 179.311 3.93515 180.054 2.42343C180.561 1.39514 178.912 0.170408 177.96 1.77423Z" fill="#1391E6"/>
<path fill-rule="evenodd" clip-rule="evenodd" d="M179.413 24.575C177.961 25.9781 174.179 29.3602 172.7 31.3586C171.12 33.3118 173.38 33.3555 174.402 32.3578C175.484 31.2998 180.098 26.7136 181.217 25.3527C182.945 23.2518 181.577 22.4304 179.413 24.575Z" fill="#1391E6"/>
<path d="M118.119 8.16002C117.212 6.56002 115.825 5.76003 113.958 5.76003C112.09 5.76003 110.703 6.56002 109.797 8.16002C108.89 9.76003 108.436 12.5067 108.436 16.4C108.436 20.2934 108.89 23.04 109.797 24.64C110.703 26.24 112.09 27.04 113.958 27.04C115.825 27.04 117.212 26.24 118.119 24.64C119.026 23.04 119.479 20.2934 119.479 16.4C119.479 12.5067 119.026 9.76003 118.119 8.16002ZM122.36 27.84C120.519 30.2134 117.719 31.4 113.958 31.4C110.197 31.4 107.389 30.2134 105.536 27.84C103.682 25.4667 102.755 21.6534 102.755 16.4C102.755 11.1467 103.682 7.33336 105.536 4.96002C107.389 2.58669 110.197 1.40002 113.958 1.40002C117.719 1.40002 120.526 2.58669 122.38 4.96002C124.233 7.33336 125.16 11.1467 125.16 16.4C125.16 21.6534 124.227 25.4667 122.36 27.84ZM132.242 6.32002C131.629 6.32002 131.095 6.10003 130.642 5.66002C130.188 5.22002 129.962 4.69336 129.962 4.08003C129.962 3.46669 130.188 2.93336 130.642 2.48002C131.095 2.02669 131.629 1.80002 132.242 1.80002H146.446C147.059 1.80002 147.586 2.02669 148.026 2.48002C148.466 2.93336 148.686 3.46669 148.686 4.08003C148.686 5.60003 148.126 6.85336 147.006 7.84002L140.524 13.72C140.497 13.7467 140.484 13.7734 140.484 13.8C140.484 13.8267 140.497 13.84 140.524 13.84H141.164C143.618 13.84 145.552 14.54 146.966 15.94C148.379 17.34 149.086 19.2934 149.086 21.8C149.086 24.8667 148.153 27.2334 146.285 28.9C144.418 30.5667 141.751 31.4 138.284 31.4C136.23 31.4 134.243 31.16 132.322 30.68C131.682 30.52 131.162 30.16 130.762 29.6C130.362 29.04 130.162 28.4134 130.162 27.72V27.28C130.162 26.7467 130.382 26.3267 130.822 26.02C131.262 25.7134 131.749 25.64 132.282 25.8C134.443 26.52 136.363 26.88 138.043 26.88C139.804 26.88 141.164 26.4534 142.124 25.6C143.085 24.7467 143.565 23.5067 143.565 21.88C143.565 20.3867 143.025 19.3134 141.944 18.66C140.864 18.0067 138.964 17.68 136.243 17.68H135.803C135.269 17.68 134.809 17.48 134.423 17.08C134.036 16.68 133.842 16.2134 133.842 15.68C133.842 14.3467 134.323 13.24 135.283 12.36L141.804 6.44002C141.831 6.41336 141.844 6.38669 141.844 6.36003C141.844 6.33336 141.831 6.32002 141.804 6.32002H132.242Z" stroke="#1391E6" stroke-width="2"/>
<path d="M37.2186 16.556C36.4718 16.78 35.9063 17.084 35.5222 17.468C35.1381 17.852 34.9461 18.2733 34.9461 18.732C34.9461 19.148 35.1141 19.5186 35.4502 19.844C35.7863 20.1693 36.1517 20.332 36.5465 20.332C36.8559 20.332 37.0666 20.268 37.1786 20.14C37.2906 20.012 37.3467 19.772 37.3467 19.42V16.652C37.3467 16.5666 37.304 16.5346 37.2186 16.556ZM36.7545 22.14C35.6876 22.14 34.7807 21.812 34.0338 21.156C33.287 20.5 32.9136 19.692 32.9136 18.732C32.9136 17.8146 33.2897 16.9826 34.0418 16.236C34.794 15.4893 35.853 14.9453 37.2186 14.604C37.304 14.5826 37.3467 14.524 37.3467 14.428V12.412C37.3467 12.316 37.2986 12.268 37.2026 12.268H34.466C34.2312 12.268 34.0312 12.1853 33.8658 12.02C33.7004 11.8546 33.6177 11.6546 33.6177 11.42C33.6177 11.1853 33.7004 10.9853 33.8658 10.82C34.0312 10.6546 34.2312 10.572 34.466 10.572H37.2026C37.2986 10.572 37.3467 10.524 37.3467 10.428V9.49998C37.3467 9.25464 37.4373 9.04131 37.6187 8.85998C37.8001 8.67865 38.0135 8.58798 38.2589 8.58798H38.4669C38.7123 8.58798 38.9257 8.67865 39.1071 8.85998C39.2885 9.04131 39.3791 9.25464 39.3791 9.49998V10.428C39.3791 10.524 39.4218 10.572 39.5072 10.572H42.0358C42.2705 10.572 42.4732 10.6546 42.6439 10.82C42.8147 10.9853 42.9 11.1853 42.9 11.42C42.9 11.6546 42.8147 11.8546 42.6439 12.02C42.4732 12.1853 42.2705 12.268 42.0358 12.268H39.5072C39.4218 12.268 39.3791 12.316 39.3791 12.412V14.14C39.3791 14.2253 39.4272 14.268 39.5232 14.268C39.6939 14.2573 39.966 14.252 40.3394 14.252C41.9184 14.252 43.1934 14.62 44.1643 15.356C45.1352 16.092 45.6207 16.9826 45.6207 18.028C45.6207 20.3 44.3937 21.692 41.9398 22.204C41.6837 22.2573 41.449 22.212 41.2356 22.068C41.0222 21.924 40.8835 21.724 40.8195 21.468L40.8035 21.42C40.7501 21.1853 40.7902 20.9666 40.9235 20.764C41.0569 20.5613 41.2409 20.4333 41.4757 20.38C42.1905 20.2093 42.7133 19.94 43.044 19.572C43.3748 19.204 43.5402 18.7266 43.5402 18.14C43.5402 17.6066 43.2494 17.1453 42.6679 16.756C42.0865 16.3666 41.3103 16.172 40.3394 16.172C39.966 16.172 39.6939 16.1773 39.5232 16.188C39.4272 16.188 39.3791 16.236 39.3791 16.332V19.532C39.3791 20.5133 39.1871 21.1933 38.803 21.572C38.4189 21.9506 37.7361 22.14 36.7545 22.14ZM45.3486 10.636C45.9247 11.4146 46.4262 12.1453 46.853 12.828C46.981 13.0306 47.0157 13.252 46.957 13.492C46.8983 13.732 46.7676 13.9106 46.5649 14.028C46.3515 14.1453 46.1275 14.1746 45.8927 14.116C45.658 14.0573 45.4766 13.9266 45.3486 13.724C44.8365 12.924 44.367 12.2306 43.9403 11.644C43.8016 11.452 43.7482 11.2386 43.7802 11.004C43.8122 10.7693 43.9243 10.5826 44.1163 10.444C44.319 10.3053 44.5404 10.2546 44.7805 10.292C45.0205 10.3293 45.2099 10.444 45.3486 10.636ZM56.1512 16.78C56.45 16.5026 56.5993 16.156 56.5993 15.74C56.5993 15.324 56.45 14.98 56.1512 14.708C55.8525 14.436 55.4684 14.3 54.999 14.3C54.5295 14.3 54.1454 14.436 53.8467 14.708C53.5479 14.98 53.3986 15.324 53.3986 15.74C53.3986 16.156 53.5479 16.5 53.8467 16.772C54.1454 17.044 54.5295 17.18 54.999 17.18C55.4684 17.18 55.8525 17.0466 56.1512 16.78ZM49.6697 11.9C49.4349 11.9 49.2349 11.8173 49.0695 11.652C48.9041 11.4866 48.8214 11.2866 48.8214 11.052C48.8214 10.8173 48.9041 10.6146 49.0695 10.444C49.2349 10.2733 49.4349 10.188 49.6697 10.188H56.2473C56.3433 10.188 56.3913 10.1453 56.3913 10.06V9.33998C56.3913 9.09464 56.482 8.88131 56.6634 8.69998C56.8447 8.51865 57.0581 8.42798 57.3035 8.42798H57.5116C57.757 8.42798 57.9703 8.51865 58.1517 8.69998C58.3331 8.88131 58.4238 9.09464 58.4238 9.33998V10.044C58.4238 10.14 58.4665 10.188 58.5518 10.188H61.8326C62.0673 10.188 62.2674 10.2733 62.4328 10.444C62.5981 10.6146 62.6808 10.8173 62.6808 11.052C62.6808 11.2866 62.5981 11.4866 62.4328 11.652C62.2674 11.8173 62.0673 11.9 61.8326 11.9H58.5518C58.4665 11.9 58.4238 11.948 58.4238 12.044V14.94C58.4238 15.0466 58.4398 15.1373 58.4718 15.212C58.7172 15.852 58.8399 16.524 58.8399 17.228C58.8399 18.7426 58.4451 19.9106 57.6556 20.732C56.8661 21.5533 55.5591 22.108 53.7346 22.396C53.4893 22.4386 53.2625 22.38 53.0545 22.22C52.8464 22.06 52.7157 21.8573 52.6624 21.612V21.548C52.6197 21.3133 52.6704 21.0973 52.8144 20.9C52.9585 20.7026 53.1532 20.5826 53.3986 20.54C54.5615 20.3586 55.383 20.1 55.8632 19.764C56.3433 19.428 56.6527 18.9453 56.7914 18.316C56.7914 18.3053 56.7941 18.2946 56.7994 18.284C56.8047 18.2733 56.8074 18.2626 56.8074 18.252V18.236H56.7594C56.2152 18.6733 55.5217 18.892 54.6789 18.892C53.708 18.892 52.9158 18.596 52.3023 18.004C51.6888 17.412 51.3821 16.6573 51.3821 15.74C51.3821 14.812 51.6941 14.0546 52.3183 13.468C52.9424 12.8813 53.7506 12.588 54.7429 12.588C55.3084 12.588 55.8418 12.7106 56.3433 12.956C56.3539 12.956 56.3593 12.9586 56.3593 12.964C56.3593 12.9693 56.3646 12.972 56.3753 12.972C56.386 12.972 56.3913 12.9666 56.3913 12.956V12.044C56.3913 11.948 56.3433 11.9 56.2473 11.9H49.6697ZM72.1551 16.78C72.4539 16.5026 72.6032 16.156 72.6032 15.74C72.6032 15.324 72.4539 14.98 72.1551 14.708C71.8564 14.436 71.4723 14.3 71.0028 14.3C70.5334 14.3 70.1493 14.436 69.8506 14.708C69.5518 14.98 69.4025 15.324 69.4025 15.74C69.4025 16.156 69.5518 16.5 69.8506 16.772C70.1493 17.044 70.5334 17.18 71.0028 17.18C71.4723 17.18 71.8564 17.0466 72.1551 16.78ZM65.6735 11.9C65.4388 11.9 65.2388 11.8173 65.0734 11.652C64.908 11.4866 64.8253 11.2866 64.8253 11.052C64.8253 10.8173 64.908 10.6146 65.0734 10.444C65.2388 10.2733 65.4388 10.188 65.6735 10.188H72.2512C72.3472 10.188 72.3952 10.1453 72.3952 10.06V9.33998C72.3952 9.09464 72.4859 8.88131 72.6672 8.69998C72.8486 8.51865 73.062 8.42798 73.3074 8.42798H73.5155C73.7609 8.42798 73.9742 8.51865 74.1556 8.69998C74.337 8.88131 74.4277 9.09464 74.4277 9.33998V10.044C74.4277 10.14 74.4704 10.188 74.5557 10.188H77.8365C78.0712 10.188 78.2713 10.2733 78.4367 10.444C78.602 10.6146 78.6847 10.8173 78.6847 11.052C78.6847 11.2866 78.602 11.4866 78.4367 11.652C78.2713 11.8173 78.0712 11.9 77.8365 11.9H74.5557C74.4704 11.9 74.4277 11.948 74.4277 12.044V14.94C74.4277 15.0466 74.4437 15.1373 74.4757 15.212C74.7211 15.852 74.8438 16.524 74.8438 17.228C74.8438 18.7426 74.449 19.9106 73.6595 20.732C72.87 21.5533 71.563 22.108 69.7385 22.396C69.4931 22.4386 69.2664 22.38 69.0584 22.22C68.8503 22.06 68.7196 21.8573 68.6663 21.612V21.548C68.6236 21.3133 68.6743 21.0973 68.8183 20.9C68.9623 20.7026 69.1571 20.5826 69.4025 20.54C70.5654 20.3586 71.3869 20.1 71.8671 19.764C72.3472 19.428 72.6566 18.9453 72.7953 18.316C72.7953 18.3053 72.7979 18.2946 72.8033 18.284C72.8086 18.2733 72.8113 18.2626 72.8113 18.252V18.236H72.7633C72.2191 18.6733 71.5256 18.892 70.6828 18.892C69.7119 18.892 68.9197 18.596 68.3062 18.004C67.6927 17.412 67.386 16.6573 67.386 15.74C67.386 14.812 67.698 14.0546 68.3222 13.468C68.9463 12.8813 69.7545 12.588 70.7468 12.588C71.3123 12.588 71.8457 12.7106 72.3472 12.956C72.3578 12.956 72.3632 12.9586 72.3632 12.964C72.3632 12.9693 72.3685 12.972 72.3792 12.972C72.3899 12.972 72.3952 12.9666 72.3952 12.956V12.044C72.3952 11.948 72.3472 11.9 72.2512 11.9H65.6735ZM83.886 14.428C83.0858 15.292 82.6857 16.332 82.6857 17.548C82.6857 18.2626 82.8057 18.8146 83.0458 19.204C83.2858 19.5933 83.5766 19.788 83.918 19.788C84.3554 19.788 84.8569 19.4893 85.4224 18.892C85.4757 18.828 85.481 18.7533 85.4384 18.668C85.4063 18.6253 85.385 18.5826 85.3743 18.54C84.8622 17.1106 84.4088 15.756 84.014 14.476C83.9927 14.38 83.95 14.364 83.886 14.428ZM88.079 12.812C87.2468 12.812 86.4893 12.9346 85.8064 13.18C85.7211 13.212 85.6891 13.276 85.7104 13.372C86.0092 14.396 86.3719 15.548 86.7987 16.828C86.82 16.892 86.8574 16.8866 86.9107 16.812C87.5509 15.7133 88.1323 14.4333 88.6551 12.972C88.6658 12.94 88.6631 12.908 88.6471 12.876C88.6311 12.844 88.6071 12.828 88.5751 12.828C88.4684 12.8173 88.3031 12.812 88.079 12.812ZM83.7099 21.772C82.8671 21.772 82.1656 21.4013 81.6054 20.66C81.0453 19.9186 80.7652 18.8813 80.7652 17.548C80.7652 16.492 80.9839 15.5133 81.4214 14.612C81.8588 13.7106 82.4723 12.9506 83.2618 12.332C83.3365 12.2786 83.3685 12.2146 83.3579 12.14C83.1445 11.3506 82.9898 10.7533 82.8937 10.348C82.8404 10.1026 82.8804 9.87331 83.0138 9.65998C83.1471 9.44664 83.3365 9.31864 83.5819 9.27598L83.7259 9.24398C83.9713 9.20131 84.2007 9.24398 84.4141 9.37198C84.6275 9.49998 84.7609 9.68664 84.8142 9.93198C84.8462 10.0813 84.8996 10.2973 84.9742 10.58C85.0489 10.8626 85.0969 11.0573 85.1183 11.164C85.1396 11.2386 85.193 11.2653 85.2783 11.244C86.1425 10.9346 87.0761 10.78 88.079 10.78C88.5058 10.78 88.8845 10.8013 89.2153 10.844C89.3113 10.8653 89.37 10.828 89.3913 10.732C89.4767 10.444 89.6047 9.99064 89.7754 9.37198C89.8394 9.12664 89.9808 8.93464 90.1995 8.79598C90.4182 8.65731 90.6503 8.61465 90.8957 8.66798L91.0237 8.69998C91.2691 8.75331 91.4585 8.88398 91.5919 9.09198C91.7252 9.29998 91.7599 9.52131 91.6959 9.75598C91.5465 10.3746 91.4131 10.8706 91.2958 11.244C91.2744 11.3293 91.3011 11.388 91.3758 11.42C92.4321 11.8786 93.2589 12.5506 93.8564 13.436C94.4539 14.3213 94.7526 15.34 94.7526 16.492C94.7526 18.0386 94.3845 19.2973 93.6484 20.268C92.9122 21.2386 91.8506 21.8946 90.4636 22.236C90.2182 22.3 89.9861 22.2626 89.7674 22.124C89.5487 21.9853 89.4073 21.788 89.3433 21.532L89.3113 21.42C89.2473 21.196 89.282 20.98 89.4153 20.772C89.5487 20.564 89.7327 20.428 89.9675 20.364C91.8026 19.8413 92.7201 18.5506 92.7201 16.492C92.7201 15.8093 92.5468 15.196 92.2 14.652C91.8533 14.108 91.3651 13.6813 90.7356 13.372C90.6716 13.34 90.6183 13.3666 90.5756 13.452C89.5834 16.2146 88.4764 18.292 87.2548 19.684C86.0332 21.076 84.8515 21.772 83.7099 21.772Z" fill="#1391E6"/>
<path fill-rule="evenodd" clip-rule="evenodd" d="M4.03904 1.77423C4.40537 2.32062 5.60082 3.88611 9.1615 10.2046C12.6227 16.3452 18.4219 27.1944 20.5369 30.9054C21.642 32.8438 19.9988 33.2874 19.438 32.5569C19.1923 32.2375 14.2538 24.286 9.66345 16.4004C6.06812 10.2261 2.68833 3.93515 1.94511 2.42343C1.43861 1.39514 3.08779 0.170408 4.03904 1.77423Z" fill="#1391E6"/>
<path fill-rule="evenodd" clip-rule="evenodd" d="M2.58755 24.575C4.03929 25.9781 7.82158 29.3602 9.30039 31.3586C10.8802 33.3118 8.62054 33.3555 7.59844 32.3578C6.51608 31.2998 1.90168 26.7136 0.783122 25.3527C-0.944471 23.2518 0.422835 22.4304 2.58755 24.575Z" fill="#1391E6"/>
</svg>
