<svg width="276" height="258" viewBox="0 0 276 258" fill="none" xmlns="http://www.w3.org/2000/svg">
<circle cx="138" cy="110" r="110" fill="#DFF1FD"/>
<path d="M81.0381 101.562C81.0423 100.249 79.9833 99.1807 78.6721 99.1766H78.6705L56.3819 99.1107C55.0707 99.1074 54.0042 100.169 54 101.482C53.9967 102.796 55.0574 103.864 56.3694 103.867L78.6571 103.933C79.9683 103.936 81.034 102.875 81.0381 101.562Z" fill="#1391E6"/>
<path d="M81.574 82.6369L64.53 76.2929C63.3004 75.8363 61.9343 76.4628 61.476 77.6933C61.0192 78.9246 61.6457 80.2942 62.8753 80.7516L79.9192 87.0956C80.1822 87.1932 80.46 87.2439 80.7404 87.2448C81.7354 87.2481 82.6264 86.6299 82.9742 85.696C83.4309 84.4639 82.8036 83.0951 81.574 82.6369Z" fill="#1391E6"/>
<path d="M79.8326 116.219L63.8434 122.066C62.6113 122.517 61.9774 123.882 62.4266 125.116C62.7686 126.051 63.6562 126.675 64.6513 126.68C64.9316 126.68 65.2095 126.631 65.4724 126.535L81.4615 120.688C82.6927 120.236 83.3267 118.871 82.8774 117.636C82.4274 116.403 81.0646 115.769 79.8326 116.219Z" fill="#1391E6"/>
<path d="M219.632 99.5905L197.344 99.5255C196.033 99.5206 194.967 100.581 194.963 101.893V101.897C194.958 103.209 196.018 104.278 197.329 104.282H197.331L219.618 104.347C220.929 104.352 221.995 103.291 222 101.978V101.977C222.004 100.664 220.945 99.5955 219.634 99.5905H219.632Z" fill="#1391E6"/>
<path d="M195.346 87.5824C195.626 87.5841 195.905 87.5358 196.167 87.4391L213.246 81.1934C214.478 80.7435 215.112 79.3781 214.663 78.1443V78.1434C214.213 76.9096 212.85 76.274 211.617 76.7246H211.617L194.538 82.9679C193.305 83.4195 192.671 84.7849 193.121 86.0196C193.463 86.9559 194.351 87.5799 195.346 87.5824Z" fill="#1391E6"/>
<path d="M212.036 122.498L196.086 116.562C194.857 116.104 193.49 116.731 193.033 117.962H193.032C192.575 119.194 193.202 120.563 194.432 121.02L210.381 126.957C210.643 127.056 210.921 127.107 211.201 127.107C212.197 127.109 213.088 126.491 213.436 125.557C213.892 124.326 213.266 122.956 212.036 122.498Z" fill="#1391E6"/>
<path d="M113.837 57C108.071 57 103.548 58.7787 100.394 62.2861C95.3369 67.9053 93.6605 77.9658 95.2712 93.0416C100.774 144.649 109.571 169.793 122.168 169.905C122.23 169.906 122.292 169.907 122.354 169.907C124.957 169.907 127.411 168.896 129.26 167.061L129.442 166.881L129.606 166.684C131.559 164.327 132.143 160.998 131.341 156.785C131.243 156.271 131.115 155.663 130.968 154.968C129.763 149.264 126.94 135.907 133.177 128.373L133.204 128.341L133.231 128.308C134.39 126.86 136.117 126.031 137.969 126.031L138.061 126.032L138.125 126.032L138.19 126.032H138.245C140.111 126.032 141.846 126.871 143.005 128.336L143.031 128.369L143.058 128.402C149.226 135.943 146.312 149.261 145.067 154.948C144.909 155.668 144.772 156.298 144.669 156.822C143.843 161.037 144.407 164.368 146.344 166.733L146.506 166.932L146.688 167.113C148.543 168.974 151.011 170 153.637 170L153.723 169.999C166.349 169.999 175.303 144.909 181.107 93.2948V93.2982C182.805 78.2307 181.188 68.1594 176.163 62.5085C172.995 58.9478 168.424 57.1433 162.579 57.1433C159.264 57.1433 155.525 57.7031 151.147 58.8562L151.084 58.8728L151.021 58.8911C146.88 60.0925 142.595 60.724 138.285 60.7689C133.974 60.699 129.693 60.0416 125.56 58.8162L125.496 58.7971L125.432 58.7795C120.983 57.5824 117.19 57 113.837 57Z" fill="#1391E6"/>
<path d="M175.878 92.705C168.36 159.574 157.015 164.739 153.722 164.73C152.483 164.754 151.287 164.27 150.412 163.392C149.298 162.031 149.481 159.624 149.83 157.844C150.885 152.507 155.706 135.55 147.128 125.062C144.955 122.317 141.638 120.73 138.14 120.763C134.642 120.71 131.316 122.278 129.127 125.011C120.487 135.445 125.15 152.432 126.173 157.772C126.512 159.555 126.679 161.965 125.557 163.318C124.677 164.191 123.479 164.667 122.24 164.636C118.943 164.626 107.637 159.394 100.502 92.4808C99.0805 79.1687 100.361 70.1929 104.303 65.8116C107.885 61.8294 114.295 61.2379 124.065 63.868C128.679 65.2359 133.458 65.9666 138.269 66.0382C143.08 65.9941 147.863 65.2926 152.485 63.9513C162.261 61.377 168.671 62.0085 172.233 66.0124C176.152 70.4195 177.378 79.3995 175.878 92.7066V92.705Z" fill="white"/>
<path d="M129.518 83.406C128.857 83.406 128.221 83.0386 127.907 82.4055C127.466 81.5149 127.829 80.4352 128.718 79.9945L145.956 71.436C146.847 70.9945 147.923 71.3577 148.364 72.2483C148.805 73.1381 148.441 74.2177 147.553 74.6593L130.315 83.2178C130.058 83.3452 129.786 83.406 129.518 83.406Z" fill="#1391E6"/>
<path d="M146.753 83.406C146.485 83.406 146.213 83.3452 145.956 83.2178L128.718 74.6593C127.829 74.2177 127.466 73.1381 127.907 72.2483C128.347 71.3577 129.425 70.9945 130.315 71.436L147.553 79.9945C148.441 80.4352 148.805 81.5149 148.364 82.4055C148.05 83.0386 147.414 83.406 146.753 83.406Z" fill="#1391E6"/>
<rect y="199" width="276" height="44" rx="22" fill="#1391E6"/>
<path d="M139.828 253.884C139.124 255.469 136.876 255.469 136.172 253.884L130.588 241.312C130.001 239.989 130.969 238.5 132.416 238.5L143.584 238.5C145.031 238.5 145.999 239.989 145.412 241.312L139.828 253.884Z" fill="#1391E6"/>
<path d="M35.94 228.7C36.0867 228.7 36.1733 228.68 36.2 228.64C36.2267 228.6 36.24 228.46 36.24 228.22V227.76C36.24 227.64 36.18 227.58 36.06 227.58H33.76C33.6533 227.58 33.6 227.64 33.6 227.76V229.54C33.6 229.847 33.4867 230.107 33.26 230.32C33.0333 230.547 32.7667 230.66 32.46 230.66H32.3C31.9933 230.66 31.7267 230.547 31.5 230.32C31.2733 230.107 31.16 229.847 31.16 229.54V227.76C31.16 227.64 31.1 227.58 30.98 227.58H28.68C28.5733 227.58 28.52 227.64 28.52 227.76V229.6C28.52 229.907 28.4067 230.173 28.18 230.4C27.9533 230.627 27.6867 230.74 27.38 230.74H27.18C26.8733 230.74 26.6067 230.627 26.38 230.4C26.1533 230.173 26.04 229.907 26.04 229.6V221.2C26.04 220.893 26.1533 220.627 26.38 220.4C26.6067 220.173 26.8733 220.06 27.18 220.06H29.16C29.1867 220.06 29.2 220.047 29.2 220.02C29.2133 219.993 29.2067 219.973 29.18 219.96C29.14 219.933 29.0733 219.887 28.98 219.82C28.8867 219.753 28.82 219.707 28.78 219.68C28.6067 219.547 28.5133 219.373 28.5 219.16C28.4867 218.947 28.5667 218.773 28.74 218.64C28.7533 218.627 28.76 218.613 28.76 218.6C28.76 218.573 28.7467 218.56 28.72 218.56H27.34C27.06 218.56 26.82 218.46 26.62 218.26C26.4333 218.06 26.34 217.82 26.34 217.54C26.34 217.26 26.4333 217.027 26.62 216.84C26.82 216.64 27.06 216.54 27.34 216.54H37.36C37.64 216.54 37.8733 216.64 38.06 216.84C38.26 217.027 38.36 217.26 38.36 217.54C38.36 218.247 38.08 218.767 37.52 219.1C36.9467 219.433 36.42 219.727 35.94 219.98C35.9267 219.993 35.92 220.013 35.92 220.04C35.92 220.053 35.9333 220.06 35.96 220.06H37.6C37.9067 220.06 38.1733 220.173 38.4 220.4C38.6267 220.627 38.74 220.893 38.74 221.2V228.26C38.74 229.407 38.6267 230.1 38.4 230.34C38.1733 230.58 37.5067 230.7 36.4 230.7C36.36 230.7 36.2533 230.693 36.08 230.68C35.92 230.68 35.7867 230.68 35.68 230.68C35.4 230.667 35.1533 230.56 34.94 230.36C34.74 230.173 34.6333 229.94 34.62 229.66C34.5933 229.393 34.6733 229.167 34.86 228.98C35.06 228.78 35.2867 228.687 35.54 228.7H35.94ZM36.06 221.88H33.76C33.6533 221.88 33.6 221.94 33.6 222.06V222.84C33.6 222.947 33.6533 223 33.76 223H36.06C36.18 223 36.24 222.947 36.24 222.84V222.06C36.24 221.94 36.18 221.88 36.06 221.88ZM31.16 225.7V224.88C31.16 224.773 31.1 224.72 30.98 224.72H28.68C28.5733 224.72 28.52 224.773 28.52 224.88V225.7C28.52 225.807 28.5733 225.86 28.68 225.86H30.98C31.1 225.86 31.16 225.807 31.16 225.7ZM31.16 222.84V222.06C31.16 221.94 31.1 221.88 30.98 221.88H28.68C28.5733 221.88 28.52 221.94 28.52 222.06V222.84C28.52 222.947 28.5733 223 28.68 223H30.98C31.1 223 31.16 222.947 31.16 222.84ZM32.52 219.74C33.3067 219.367 34.0133 219 34.64 218.64C34.6533 218.613 34.64 218.587 34.6 218.56H30.76C30.7333 218.56 30.7133 218.573 30.7 218.6C30.7 218.627 30.7133 218.647 30.74 218.66C31.06 218.887 31.5533 219.24 32.22 219.72C32.3 219.787 32.4 219.793 32.52 219.74ZM36.06 225.86C36.18 225.86 36.24 225.807 36.24 225.7V224.88C36.24 224.773 36.18 224.72 36.06 224.72H33.76C33.6533 224.72 33.6 224.773 33.6 224.88V225.7C33.6 225.807 33.6533 225.86 33.76 225.86H36.06ZM20.54 225.02L20.5 224.92C20.4067 224.613 20.4333 224.32 20.58 224.04C20.7267 223.747 20.9467 223.533 21.24 223.4C21.92 223.107 22.4733 222.84 22.9 222.6C23.0067 222.533 23.06 222.447 23.06 222.34C23.0867 221.433 23.1 220.667 23.1 220.04C23.1 219.987 23.0667 219.973 23 220C22.8267 220.107 22.6467 220.133 22.46 220.08C22.2867 220.027 22.1467 219.913 22.04 219.74C21.7067 219.14 21.3 218.453 20.82 217.68C20.6467 217.413 20.5933 217.133 20.66 216.84C20.7267 216.533 20.8933 216.293 21.16 216.12C21.4133 215.947 21.6933 215.893 22 215.96C22.32 216.027 22.56 216.193 22.72 216.46C22.7467 216.513 22.7933 216.6 22.86 216.72C22.9267 216.827 22.98 216.907 23.02 216.96C23.0333 216.973 23.0467 216.98 23.06 216.98C23.0867 216.967 23.1 216.947 23.1 216.92V214.76C23.1 214.453 23.2133 214.193 23.44 213.98C23.6667 213.753 23.9333 213.64 24.24 213.64H29.9C30.0067 213.64 30.06 213.58 30.06 213.46V213.4C30.06 213.093 30.1733 212.827 30.4 212.6C30.6267 212.373 30.8933 212.26 31.2 212.26H31.6C31.9067 212.26 32.1733 212.373 32.4 212.6C32.6267 212.827 32.74 213.093 32.74 213.4V213.46C32.74 213.58 32.7933 213.64 32.9 213.64H38.24C38.5333 213.64 38.78 213.747 38.98 213.96C39.1933 214.16 39.3 214.407 39.3 214.7C39.3 214.993 39.1933 215.247 38.98 215.46C38.78 215.66 38.5333 215.76 38.24 215.76H25.68C25.56 215.76 25.5 215.82 25.5 215.94V221.34C25.5 223.447 25.3467 225.147 25.04 226.44C24.7333 227.72 24.2133 228.873 23.48 229.9C23.3067 230.153 23.06 230.287 22.74 230.3C22.4333 230.313 22.1733 230.213 21.96 230L21.7 229.74C21.4733 229.527 21.3467 229.26 21.32 228.94C21.3067 228.607 21.3933 228.313 21.58 228.06C22.1667 227.22 22.5533 226.34 22.74 225.42C22.7533 225.38 22.74 225.347 22.7 225.32C22.6733 225.293 22.6467 225.287 22.62 225.3C22.4733 225.38 22.24 225.5 21.92 225.66C21.64 225.793 21.36 225.793 21.08 225.66C20.8133 225.527 20.6333 225.313 20.54 225.02ZM47.8 225.04C46.3467 224.04 45.4467 223.347 45.1 222.96C44.7667 222.573 44.6 222.053 44.6 221.4C44.6 220.693 44.78 220.147 45.14 219.76C45.5 219.373 46.4067 218.713 47.86 217.78C50.22 216.247 52.28 214.82 54.04 213.5C54.2933 213.313 54.58 213.24 54.9 213.28C55.22 213.307 55.48 213.447 55.68 213.7L55.88 213.96C56.08 214.2 56.16 214.473 56.12 214.78C56.0933 215.087 55.9533 215.327 55.7 215.5C53.5 217.127 51.4467 218.553 49.54 219.78C48.74 220.287 48.2267 220.633 48 220.82C47.7733 221.007 47.66 221.2 47.66 221.4C47.66 221.587 47.76 221.773 47.96 221.96C48.16 222.147 48.6267 222.487 49.36 222.98C51.6667 224.54 53.9867 226.26 56.32 228.14C56.56 228.327 56.6867 228.58 56.7 228.9C56.7267 229.207 56.6333 229.473 56.42 229.7L56.2 229.96C55.9867 230.187 55.72 230.307 55.4 230.32C55.08 230.347 54.7933 230.26 54.54 230.06C52.5 228.407 50.2533 226.733 47.8 225.04ZM75.82 225.6V225.52C75.82 225.4 75.7667 225.32 75.66 225.28C74.9533 224.933 74.2933 224.76 73.68 224.76C72.9467 224.76 72.3933 224.9 72.02 225.18C71.66 225.46 71.48 225.847 71.48 226.34C71.48 226.86 71.6733 227.267 72.06 227.56C72.4467 227.853 72.9867 228 73.68 228C74.4933 228 75.0533 227.833 75.36 227.5C75.6667 227.167 75.82 226.533 75.82 225.6ZM80.96 215.72C81.28 215.747 81.5333 215.887 81.72 216.14C81.92 216.393 82 216.68 81.96 217C81.92 217.307 81.7733 217.553 81.52 217.74C81.2667 217.927 80.9867 218 80.68 217.96C79.9333 217.867 79.2133 217.813 78.52 217.8C78.4133 217.8 78.36 217.86 78.36 217.98V224.04C78.36 224.147 78.4 224.233 78.48 224.3C79.3867 224.86 80.3467 225.58 81.36 226.46C81.6 226.66 81.7267 226.92 81.74 227.24C81.7533 227.56 81.6533 227.833 81.44 228.06L81.38 228.12C81.1667 228.347 80.9067 228.473 80.6 228.5C80.2933 228.527 80.02 228.44 79.78 228.24C79.58 228.067 79.3067 227.847 78.96 227.58C78.6133 227.3 78.4133 227.14 78.36 227.1C78.28 227.047 78.2267 227.06 78.2 227.14C77.9867 228.167 77.5067 228.92 76.76 229.4C76.0267 229.893 75 230.14 73.68 230.14C72.2 230.14 71.04 229.8 70.2 229.12C69.3733 228.44 68.96 227.513 68.96 226.34C68.96 225.193 69.3667 224.287 70.18 223.62C71.0067 222.94 72.1733 222.6 73.68 222.6C74.2667 222.6 74.9333 222.713 75.68 222.94C75.7733 222.967 75.82 222.927 75.82 222.82V216.6C75.82 216.293 75.9267 216.027 76.14 215.8C76.3667 215.573 76.6333 215.467 76.94 215.48C78.6467 215.533 79.9867 215.613 80.96 215.72ZM65.14 227.34C64.8467 227.247 64.64 227.06 64.52 226.78C64.4 226.5 64.3933 226.213 64.5 225.92C65.5133 223.347 66.4333 220.673 67.26 217.9C67.2867 217.793 67.2467 217.74 67.14 217.74H65.66C65.3533 217.74 65.0867 217.627 64.86 217.4C64.6467 217.173 64.54 216.907 64.54 216.6C64.54 216.293 64.6467 216.027 64.86 215.8C65.0867 215.573 65.3533 215.46 65.66 215.46H67.78C67.9 215.46 67.9733 215.407 68 215.3C68.0533 215.127 68.12 214.867 68.2 214.52C68.28 214.173 68.3467 213.913 68.4 213.74C68.48 213.433 68.6533 213.193 68.92 213.02C69.1867 212.833 69.48 212.76 69.8 212.8H69.94C70.2467 212.84 70.48 212.987 70.64 213.24C70.8133 213.493 70.8667 213.767 70.8 214.06C70.6667 214.62 70.5667 215.033 70.5 215.3C70.4733 215.407 70.52 215.46 70.64 215.46H72.66C72.9667 215.46 73.2333 215.573 73.46 215.8C73.6867 216.027 73.8 216.293 73.8 216.6C73.8 216.907 73.6867 217.173 73.46 217.4C73.2333 217.627 72.9667 217.74 72.66 217.74H70.02C69.9 217.74 69.8267 217.8 69.8 217.92C68.9733 220.853 67.98 223.78 66.82 226.7C66.7 226.993 66.4933 227.213 66.2 227.36C65.92 227.493 65.6267 227.507 65.32 227.4L65.14 227.34ZM100.52 226.66C100.373 223.02 99.6867 219.673 98.46 216.62C98.3533 216.34 98.36 216.067 98.48 215.8C98.6 215.52 98.8067 215.333 99.1 215.24L99.38 215.16C99.6867 215.067 99.9867 215.093 100.28 215.24C100.587 215.373 100.807 215.587 100.94 215.88C102.313 219.093 103.06 222.687 103.18 226.66C103.193 226.967 103.087 227.233 102.86 227.46C102.633 227.687 102.367 227.8 102.06 227.8H101.66C101.353 227.8 101.087 227.687 100.86 227.46C100.647 227.233 100.533 226.967 100.52 226.66ZM91.46 229.94C90.3267 229.94 89.2733 229.167 88.3 227.62C87.34 226.073 86.86 224.2 86.86 222C86.86 219.987 87.0933 218.013 87.56 216.08C87.64 215.76 87.8133 215.513 88.08 215.34C88.36 215.153 88.6667 215.08 89 215.12L89.34 215.16C89.6333 215.187 89.86 215.327 90.02 215.58C90.1933 215.833 90.2467 216.107 90.18 216.4C89.7533 218.293 89.54 220.16 89.54 222C89.54 223.48 89.7733 224.727 90.24 225.74C90.72 226.753 91.1933 227.26 91.66 227.26C91.9533 227.26 92.3333 226.98 92.8 226.42C93.2667 225.847 93.74 225.02 94.22 223.94C94.3533 223.647 94.56 223.44 94.84 223.32C95.1333 223.187 95.4267 223.173 95.72 223.28L95.94 223.36C96.2333 223.467 96.4467 223.667 96.58 223.96C96.7133 224.24 96.72 224.52 96.6 224.8C95.92 226.413 95.1067 227.673 94.16 228.58C93.2133 229.487 92.3133 229.94 91.46 229.94ZM108.46 218.24C108.167 218.24 107.913 218.133 107.7 217.92C107.5 217.707 107.4 217.453 107.4 217.16C107.4 216.867 107.5 216.62 107.7 216.42C107.913 216.207 108.167 216.1 108.46 216.1H110C110.107 216.1 110.16 216.04 110.16 215.92V213.94C110.16 213.633 110.273 213.367 110.5 213.14C110.727 212.913 110.993 212.8 111.3 212.8H111.64C111.947 212.8 112.207 212.913 112.42 213.14C112.647 213.367 112.76 213.633 112.76 213.94V215.92C112.76 216.04 112.82 216.1 112.94 216.1H115.02C115.14 216.1 115.2 216.04 115.2 215.92V213.46C115.2 213.153 115.313 212.893 115.54 212.68C115.767 212.453 116.033 212.34 116.34 212.34H117.12C117.347 212.34 117.54 212.42 117.7 212.58C117.86 212.74 117.94 212.927 117.94 213.14C117.94 213.22 117.98 213.26 118.06 213.26H123.32C123.573 213.26 123.793 213.353 123.98 213.54C124.167 213.727 124.26 213.953 124.26 214.22C124.26 214.473 124.167 214.693 123.98 214.88C123.807 215.067 123.587 215.16 123.32 215.16H118.1C117.993 215.16 117.94 215.22 117.94 215.34V215.92C117.94 216.04 117.993 216.1 118.1 216.1H124.34C124.633 216.1 124.88 216.207 125.08 216.42C125.293 216.62 125.4 216.867 125.4 217.16C125.4 217.453 125.293 217.707 125.08 217.92C124.88 218.133 124.633 218.24 124.34 218.24H108.46ZM109.26 218.9C109.567 218.9 109.833 219.013 110.06 219.24C110.287 219.467 110.4 219.733 110.4 220.04V228.06C110.4 228.18 110.453 228.24 110.56 228.24H122.22C122.34 228.24 122.4 228.18 122.4 228.06V220.04C122.4 219.733 122.513 219.467 122.74 219.24C122.967 219.013 123.233 218.9 123.54 218.9H123.84C124.147 218.9 124.407 219.013 124.62 219.24C124.847 219.467 124.96 219.733 124.96 220.04V229.9C124.96 230.207 124.847 230.473 124.62 230.7C124.407 230.927 124.147 231.04 123.84 231.04H123.06C122.887 231.04 122.733 230.973 122.6 230.84C122.467 230.707 122.4 230.547 122.4 230.36C122.4 230.293 122.367 230.26 122.3 230.26H110.5C110.433 230.26 110.4 230.293 110.4 230.36C110.4 230.547 110.333 230.707 110.2 230.84C110.067 230.973 109.913 231.04 109.74 231.04H108.96C108.653 231.04 108.387 230.927 108.16 230.7C107.947 230.473 107.84 230.207 107.84 229.9V220.04C107.84 219.733 107.947 219.467 108.16 219.24C108.387 219.013 108.653 218.9 108.96 218.9H109.26ZM112.7 221.98C112.807 221.98 112.827 221.933 112.76 221.84C112.64 221.667 112.453 221.427 112.2 221.12C111.96 220.8 111.82 220.613 111.78 220.56C111.607 220.347 111.54 220.107 111.58 219.84C111.62 219.56 111.753 219.347 111.98 219.2C112.22 219.04 112.487 218.98 112.78 219.02C113.087 219.06 113.327 219.193 113.5 219.42C113.58 219.513 113.687 219.653 113.82 219.84C113.967 220.027 114.053 220.14 114.08 220.18C114.267 220.433 114.333 220.713 114.28 221.02C114.227 221.313 114.067 221.547 113.8 221.72L113.56 221.88C113.533 221.893 113.52 221.913 113.52 221.94C113.533 221.967 113.553 221.98 113.58 221.98H115C115.12 221.98 115.18 221.92 115.18 221.8V219.84C115.18 219.533 115.287 219.267 115.5 219.04C115.727 218.813 115.993 218.7 116.3 218.7H116.5C116.807 218.7 117.067 218.813 117.28 219.04C117.507 219.267 117.62 219.533 117.62 219.84V221.8C117.62 221.92 117.68 221.98 117.8 221.98H119.2C119.227 221.98 119.247 221.967 119.26 221.94C119.273 221.913 119.267 221.893 119.24 221.88L119 221.72C118.747 221.547 118.6 221.313 118.56 221.02C118.533 220.713 118.613 220.447 118.8 220.22C118.827 220.18 119.013 219.933 119.36 219.48C119.533 219.253 119.753 219.113 120.02 219.06C120.3 218.993 120.56 219.033 120.8 219.18C121.04 219.34 121.187 219.56 121.24 219.84C121.293 220.12 121.233 220.373 121.06 220.6C120.807 220.96 120.48 221.373 120.08 221.84C120.013 221.933 120.033 221.98 120.14 221.98H120.82C121.073 221.98 121.293 222.073 121.48 222.26C121.667 222.433 121.76 222.653 121.76 222.92C121.76 223.187 121.667 223.413 121.48 223.6C121.293 223.773 121.073 223.86 120.82 223.86H119.4C119.373 223.86 119.353 223.873 119.34 223.9C119.34 223.913 119.353 223.933 119.38 223.96C120.073 224.467 120.733 225.007 121.36 225.58C121.587 225.78 121.707 226.027 121.72 226.32C121.733 226.613 121.64 226.873 121.44 227.1C121.253 227.313 121.013 227.42 120.72 227.42C120.427 227.42 120.18 227.313 119.98 227.1C119.447 226.54 118.707 225.813 117.76 224.92C117.733 224.893 117.7 224.887 117.66 224.9C117.633 224.913 117.62 224.933 117.62 224.96V226.64C117.62 226.947 117.507 227.213 117.28 227.44C117.067 227.653 116.807 227.76 116.5 227.76H116.3C115.993 227.76 115.727 227.653 115.5 227.44C115.287 227.213 115.18 226.947 115.18 226.64V225.2C115.18 225.173 115.16 225.153 115.12 225.14C115.093 225.127 115.073 225.133 115.06 225.16C114.393 225.933 113.66 226.62 112.86 227.22C112.62 227.393 112.353 227.46 112.06 227.42C111.767 227.367 111.527 227.227 111.34 227C111.167 226.787 111.1 226.54 111.14 226.26C111.193 225.98 111.333 225.767 111.56 225.62C112.307 225.127 113.02 224.58 113.7 223.98C113.727 223.927 113.707 223.887 113.64 223.86H111.98C111.727 223.86 111.507 223.773 111.32 223.6C111.133 223.413 111.04 223.187 111.04 222.92C111.04 222.653 111.133 222.433 111.32 222.26C111.507 222.073 111.727 221.98 111.98 221.98H112.7ZM140.5 218.12C139.953 217.533 139.287 216.86 138.5 216.1C138.287 215.887 138.18 215.627 138.18 215.32C138.18 215.013 138.293 214.753 138.52 214.54L138.62 214.46C138.86 214.233 139.14 214.12 139.46 214.12C139.78 214.12 140.053 214.233 140.28 214.46C140.76 214.913 141.42 215.573 142.26 216.44C142.473 216.667 142.573 216.933 142.56 217.24C142.547 217.547 142.427 217.813 142.2 218.04L142.06 218.16C141.847 218.373 141.587 218.48 141.28 218.48C140.973 218.467 140.713 218.347 140.5 218.12ZM137.32 219.28L137.42 219.18C137.66 218.953 137.94 218.84 138.26 218.84C138.58 218.84 138.853 218.953 139.08 219.18C139.773 219.833 140.573 220.633 141.48 221.58C141.693 221.807 141.793 222.08 141.78 222.4C141.78 222.707 141.667 222.973 141.44 223.2L141.3 223.32C141.087 223.533 140.827 223.64 140.52 223.64C140.213 223.627 139.953 223.507 139.74 223.28C139.047 222.533 138.233 221.713 137.3 220.82C137.087 220.607 136.98 220.353 136.98 220.06C136.98 219.753 137.093 219.493 137.32 219.28ZM146.38 223.86C146.687 223.807 146.96 223.873 147.2 224.06C147.44 224.247 147.573 224.493 147.6 224.8C147.627 225.12 147.54 225.407 147.34 225.66C147.153 225.913 146.907 226.067 146.6 226.12L146 226.22C145.893 226.247 145.84 226.313 145.84 226.42V229.74C145.84 230.047 145.727 230.307 145.5 230.52C145.273 230.747 145.007 230.86 144.7 230.86H144.36C144.053 230.86 143.787 230.747 143.56 230.52C143.347 230.307 143.24 230.047 143.24 229.74V226.86C143.24 226.82 143.22 226.787 143.18 226.76C143.14 226.72 143.1 226.707 143.06 226.72L136.7 227.8C136.393 227.853 136.113 227.787 135.86 227.6C135.62 227.413 135.487 227.167 135.46 226.86C135.433 226.54 135.52 226.253 135.72 226C135.92 225.747 136.173 225.593 136.48 225.54L143.06 224.42C143.18 224.393 143.24 224.327 143.24 224.22V213.86C143.24 213.553 143.347 213.293 143.56 213.08C143.787 212.853 144.053 212.74 144.36 212.74H144.7C145.007 212.74 145.273 212.853 145.5 213.08C145.727 213.293 145.84 213.553 145.84 213.86V223.78C145.84 223.9 145.893 223.947 146 223.92L146.38 223.86ZM129.12 227.02L128.96 226.78C128.573 226.14 128.593 225.5 129.02 224.86C130.033 223.313 130.773 221.767 131.24 220.22C131.267 220.1 131.227 220.04 131.12 220.04H130C129.707 220.04 129.453 219.933 129.24 219.72C129.027 219.507 128.92 219.253 128.92 218.96C128.92 218.653 129.027 218.393 129.24 218.18C129.453 217.967 129.707 217.86 130 217.86H131.28C131.4 217.86 131.46 217.807 131.46 217.7V215.84C131.46 215.72 131.4 215.673 131.28 215.7C130.867 215.753 130.54 215.787 130.3 215.8C130.007 215.827 129.747 215.747 129.52 215.56C129.307 215.373 129.187 215.133 129.16 214.84C129.133 214.56 129.213 214.313 129.4 214.1C129.587 213.873 129.82 213.747 130.1 213.72C131.887 213.547 133.54 213.28 135.06 212.92C135.34 212.853 135.6 212.893 135.84 213.04C136.093 213.173 136.267 213.373 136.36 213.64C136.453 213.907 136.433 214.167 136.3 214.42C136.167 214.66 135.967 214.813 135.7 214.88C135.127 215.04 134.56 215.173 134 215.28C133.907 215.293 133.86 215.36 133.86 215.48V217.7C133.86 217.807 133.913 217.86 134.02 217.86H135.08C135.373 217.86 135.627 217.967 135.84 218.18C136.053 218.393 136.16 218.653 136.16 218.96C136.16 219.253 136.053 219.507 135.84 219.72C135.627 219.933 135.373 220.04 135.08 220.04H134.7C134.66 220.04 134.627 220.06 134.6 220.1C134.587 220.127 134.593 220.153 134.62 220.18C134.847 220.58 135.16 221.14 135.56 221.86C135.96 222.567 136.2 222.987 136.28 223.12C136.413 223.373 136.44 223.64 136.36 223.92C136.293 224.187 136.14 224.393 135.9 224.54C135.673 224.687 135.427 224.727 135.16 224.66C134.907 224.58 134.727 224.42 134.62 224.18C134.327 223.54 134.1 223.06 133.94 222.74C133.927 222.727 133.907 222.72 133.88 222.72C133.867 222.72 133.86 222.727 133.86 222.74V229.74C133.86 230.047 133.747 230.307 133.52 230.52C133.293 230.747 133.027 230.86 132.72 230.86H132.58C132.273 230.86 132.007 230.747 131.78 230.52C131.567 230.307 131.46 230.047 131.46 229.74V224.7C131.447 224.687 131.427 224.687 131.4 224.7C131.12 225.46 130.753 226.233 130.3 227.02C130.167 227.247 129.967 227.36 129.7 227.36C129.447 227.36 129.253 227.247 129.12 227.02ZM152.34 230.86C152.033 230.86 151.767 230.747 151.54 230.52C151.313 230.307 151.2 230.047 151.2 229.74V214.2C151.2 213.893 151.313 213.627 151.54 213.4C151.767 213.173 152.033 213.06 152.34 213.06H167.2C167.493 213.06 167.74 213.167 167.94 213.38C168.153 213.593 168.26 213.847 168.26 214.14C168.26 214.433 168.153 214.687 167.94 214.9C167.74 215.1 167.493 215.2 167.2 215.2H159.14C159.06 215.2 159.033 215.253 159.06 215.36C159.167 215.6 159.16 215.84 159.04 216.08C159.013 216.107 159.013 216.14 159.04 216.18C159.067 216.22 159.1 216.24 159.14 216.24H166.36C166.627 216.24 166.853 216.333 167.04 216.52C167.227 216.707 167.32 216.933 167.32 217.2C167.32 217.467 167.227 217.693 167.04 217.88C166.853 218.067 166.627 218.16 166.36 218.16H162.72C162.613 218.16 162.56 218.22 162.56 218.34V220.14C162.56 220.247 162.613 220.3 162.72 220.3H167.02C167.313 220.3 167.56 220.4 167.76 220.6C167.96 220.8 168.06 221.047 168.06 221.34C168.06 221.633 167.96 221.88 167.76 222.08C167.56 222.267 167.313 222.36 167.02 222.36H163.08C162.96 222.36 162.927 222.413 162.98 222.52C163.62 223.827 164.953 224.927 166.98 225.82C167.247 225.94 167.42 226.14 167.5 226.42C167.593 226.7 167.56 226.96 167.4 227.2C167.213 227.48 166.96 227.673 166.64 227.78C166.333 227.873 166.027 227.853 165.72 227.72C163.92 226.893 162.5 225.687 161.46 224.1C161.433 224.073 161.4 224.06 161.36 224.06C161.32 224.047 161.287 224.053 161.26 224.08C160.087 225.693 158.533 226.913 156.6 227.74C156.293 227.86 155.98 227.867 155.66 227.76C155.34 227.653 155.087 227.46 154.9 227.18C154.74 226.94 154.7 226.687 154.78 226.42C154.873 226.14 155.053 225.947 155.32 225.84C157.507 224.947 158.927 223.84 159.58 222.52C159.607 222.493 159.607 222.46 159.58 222.42C159.553 222.38 159.52 222.36 159.48 222.36H155.34C155.047 222.36 154.8 222.267 154.6 222.08C154.413 221.88 154.32 221.633 154.32 221.34C154.32 221.047 154.413 220.8 154.6 220.6C154.8 220.4 155.047 220.3 155.34 220.3H159.84C159.96 220.3 160.02 220.247 160.02 220.14V218.34C160.02 218.22 159.96 218.16 159.84 218.16H158.02C157.913 218.16 157.827 218.213 157.76 218.32C157.6 218.547 157.347 218.887 157 219.34C156.8 219.593 156.533 219.747 156.2 219.8C155.88 219.853 155.573 219.8 155.28 219.64C155.027 219.507 154.873 219.293 154.82 219C154.767 218.707 154.833 218.447 155.02 218.22C155.687 217.34 156.253 216.447 156.72 215.54C156.72 215.527 156.773 215.453 156.88 215.32C156.933 215.24 156.907 215.2 156.8 215.2H153.9C153.793 215.2 153.74 215.253 153.74 215.36V227.76C153.74 227.88 153.793 227.94 153.9 227.94H167.4C167.693 227.94 167.94 228.047 168.14 228.26C168.353 228.46 168.46 228.707 168.46 229C168.46 229.293 168.353 229.54 168.14 229.74C167.94 229.953 167.693 230.06 167.4 230.06H153.84C153.773 230.06 153.74 230.1 153.74 230.18C153.74 230.367 153.667 230.527 153.52 230.66C153.387 230.793 153.227 230.86 153.04 230.86H152.34ZM171.74 225.02L171.7 224.92C171.607 224.613 171.633 224.32 171.78 224.04C171.927 223.747 172.147 223.533 172.44 223.4C173.12 223.107 173.673 222.84 174.1 222.6C174.207 222.533 174.26 222.447 174.26 222.34C174.287 221.433 174.3 220.667 174.3 220.04C174.3 219.987 174.267 219.973 174.2 220C174.027 220.107 173.847 220.133 173.66 220.08C173.487 220.027 173.347 219.913 173.24 219.74C172.907 219.14 172.5 218.453 172.02 217.68C171.847 217.413 171.793 217.133 171.86 216.84C171.927 216.533 172.093 216.293 172.36 216.12C172.613 215.947 172.893 215.893 173.2 215.96C173.52 216.027 173.76 216.193 173.92 216.46C173.947 216.513 173.993 216.6 174.06 216.72C174.127 216.827 174.18 216.907 174.22 216.96C174.233 216.973 174.247 216.98 174.26 216.98C174.287 216.967 174.3 216.947 174.3 216.92V214.7C174.3 214.393 174.413 214.127 174.64 213.9C174.867 213.673 175.133 213.56 175.44 213.56H181.14C181.247 213.56 181.3 213.507 181.3 213.4C181.3 213.093 181.413 212.827 181.64 212.6C181.867 212.373 182.133 212.26 182.44 212.26H182.84C183.147 212.26 183.407 212.373 183.62 212.6C183.847 212.827 183.96 213.093 183.96 213.4C183.96 213.507 184.02 213.56 184.14 213.56H189.5C189.793 213.56 190.04 213.667 190.24 213.88C190.453 214.08 190.56 214.327 190.56 214.62C190.56 214.913 190.453 215.167 190.24 215.38C190.04 215.593 189.793 215.7 189.5 215.7H184.86C184.767 215.7 184.733 215.753 184.76 215.86C184.787 216.007 184.773 216.14 184.72 216.26C184.693 216.353 184.727 216.4 184.82 216.4H189.34C189.593 216.4 189.813 216.493 190 216.68C190.187 216.867 190.28 217.087 190.28 217.34C190.28 217.607 190.187 217.833 190 218.02C189.813 218.207 189.593 218.3 189.34 218.3H188.78C188.753 218.3 188.74 218.307 188.74 218.32C188.74 218.333 188.747 218.347 188.76 218.36L189.24 218.6C189.507 218.733 189.673 218.947 189.74 219.24C189.807 219.533 189.747 219.793 189.56 220.02C189.387 220.233 189.113 220.54 188.74 220.94C188.713 220.967 188.7 221.007 188.7 221.06C188.7 221.113 188.72 221.147 188.76 221.16C188.88 221.24 189.247 221.46 189.86 221.82C190.14 221.967 190.34 222.193 190.46 222.5C190.593 222.793 190.613 223.093 190.52 223.4L190.5 223.48C190.407 223.76 190.22 223.953 189.94 224.06C189.673 224.167 189.413 224.147 189.16 224C189.12 223.973 189.053 223.94 188.96 223.9C188.88 223.847 188.82 223.807 188.78 223.78C188.753 223.753 188.72 223.753 188.68 223.78C188.653 223.793 188.64 223.82 188.64 223.86V225.84C188.64 226.067 188.56 226.26 188.4 226.42C188.24 226.58 188.047 226.66 187.82 226.66C187.807 226.66 187.8 226.673 187.8 226.7C187.8 226.713 187.807 226.727 187.82 226.74C188.66 227.273 189.393 227.807 190.02 228.34C190.26 228.54 190.38 228.793 190.38 229.1C190.38 229.407 190.267 229.66 190.04 229.86L190.02 229.88C189.78 230.093 189.5 230.2 189.18 230.2C188.86 230.2 188.573 230.093 188.32 229.88C187.867 229.493 187.28 229.047 186.56 228.54C186.333 228.38 186.207 228.16 186.18 227.88C186.167 227.587 186.267 227.347 186.48 227.16L186.92 226.78C186.947 226.767 186.953 226.747 186.94 226.72C186.927 226.68 186.907 226.66 186.88 226.66H185.18C185.073 226.66 185.02 226.72 185.02 226.84V228.74C185.02 229.687 184.887 230.273 184.62 230.5C184.367 230.727 183.687 230.84 182.58 230.84C182.5 230.84 182.047 230.827 181.22 230.8C180.9 230.787 180.627 230.66 180.4 230.42C180.173 230.193 180.047 229.92 180.02 229.6L179.98 229C179.98 228.973 179.96 228.953 179.92 228.94C179.893 228.913 179.867 228.907 179.84 228.92C179.253 229.427 178.753 229.813 178.34 230.08C178.06 230.267 177.747 230.34 177.4 230.3C177.053 230.26 176.76 230.12 176.52 229.88L176.46 229.82C176.26 229.633 176.18 229.4 176.22 229.12C176.26 228.853 176.4 228.647 176.64 228.5C177.52 227.967 178.267 227.373 178.88 226.72C178.893 226.707 178.893 226.693 178.88 226.68C178.867 226.667 178.853 226.66 178.84 226.66C178.68 226.66 178.54 226.607 178.42 226.5C178.3 226.38 178.24 226.24 178.24 226.08V223.96C178.24 223.853 178.193 223.833 178.1 223.9C177.86 224.06 177.593 224.227 177.3 224.4C177.087 224.533 176.847 224.567 176.58 224.5C176.46 224.473 176.4 224.513 176.4 224.62C176.16 226.753 175.54 228.513 174.54 229.9C174.367 230.153 174.127 230.28 173.82 230.28C173.527 230.293 173.273 230.187 173.06 229.96L172.88 229.76C172.667 229.533 172.547 229.26 172.52 228.94C172.507 228.607 172.593 228.313 172.78 228.06C173.367 227.22 173.753 226.34 173.94 225.42C173.953 225.38 173.94 225.347 173.9 225.32C173.873 225.293 173.847 225.287 173.82 225.3C173.673 225.38 173.44 225.5 173.12 225.66C172.84 225.793 172.56 225.793 172.28 225.66C172.013 225.527 171.833 225.313 171.74 225.02ZM178.1 221.16C178.18 221.093 178.18 221.02 178.1 220.94C178.033 220.873 177.94 220.78 177.82 220.66C177.7 220.54 177.607 220.453 177.54 220.4C177.313 220.187 177.193 219.927 177.18 219.62C177.18 219.313 177.293 219.06 177.52 218.86L178.04 218.4C178.067 218.373 178.073 218.353 178.06 218.34C178.047 218.313 178.027 218.3 178 218.3H177.4C177.133 218.3 176.893 218.18 176.68 217.94C176.653 217.913 176.627 217.907 176.6 217.92C176.573 217.92 176.56 217.933 176.56 217.96V221.34V221.96C176.56 222 176.58 222.033 176.62 222.06C176.66 222.087 176.693 222.087 176.72 222.06C177.2 221.78 177.66 221.48 178.1 221.16ZM178.66 218.4C178.913 218.627 179.293 218.98 179.8 219.46C179.893 219.553 179.973 219.553 180.04 219.46C180.347 219.127 180.633 218.78 180.9 218.42C180.953 218.34 180.927 218.3 180.82 218.3H178.7C178.673 218.3 178.653 218.313 178.64 218.34C178.627 218.353 178.633 218.373 178.66 218.4ZM182.42 228V226.84C182.42 226.72 182.36 226.66 182.24 226.66H179.82C179.793 226.66 179.78 226.673 179.78 226.7C179.78 226.713 179.787 226.727 179.8 226.74L180.26 226.94C180.527 227.06 180.687 227.26 180.74 227.54C180.807 227.82 180.74 228.067 180.54 228.28L180.3 228.52C180.273 228.547 180.267 228.573 180.28 228.6C180.293 228.627 180.313 228.64 180.34 228.64C180.753 228.68 181.167 228.7 181.58 228.7C181.993 228.7 182.233 228.673 182.3 228.62C182.38 228.553 182.42 228.347 182.42 228ZM186.12 224.82V224.3C186.12 224.193 186.06 224.14 185.94 224.14H180.88C180.773 224.14 180.72 224.193 180.72 224.3V224.82C180.72 224.927 180.773 224.98 180.88 224.98H185.94C186.06 224.98 186.12 224.927 186.12 224.82ZM186 218.3C185.973 218.3 185.947 218.313 185.92 218.34C185.907 218.367 185.907 218.393 185.92 218.42C186.213 218.847 186.527 219.233 186.86 219.58C186.94 219.66 187.02 219.653 187.1 219.56C187.433 219.187 187.753 218.807 188.06 218.42C188.113 218.34 188.087 218.3 187.98 218.3H186ZM185.94 221.96H180.88C180.773 221.96 180.72 222.013 180.72 222.12V222.6C180.72 222.707 180.773 222.76 180.88 222.76H185.94C186.06 222.76 186.12 222.707 186.12 222.6V222.12C186.12 222.013 186.06 221.96 185.94 221.96ZM182.34 220.14C182.287 220.22 182.307 220.26 182.4 220.26H184.54C184.633 220.26 184.653 220.22 184.6 220.14C184.347 219.847 184.007 219.393 183.58 218.78C183.553 218.753 183.52 218.74 183.48 218.74C183.44 218.727 183.407 218.733 183.38 218.76C183.02 219.267 182.673 219.727 182.34 220.14ZM176.74 215.7C176.62 215.7 176.56 215.753 176.56 215.86V216.72C176.56 216.747 176.573 216.767 176.6 216.78C176.627 216.78 176.653 216.767 176.68 216.74C176.88 216.513 177.12 216.4 177.4 216.4H181.84C181.947 216.4 182.02 216.347 182.06 216.24L182.1 216.16C182.14 216.053 182.193 215.94 182.26 215.82C182.313 215.74 182.293 215.7 182.2 215.7H176.74ZM201.62 216.74C200.06 217.073 198.833 217.787 197.94 218.88C197.047 219.96 196.6 221.287 196.6 222.86C196.6 223.873 196.807 224.773 197.22 225.56C197.633 226.347 198.027 226.74 198.4 226.74C198.587 226.74 198.78 226.653 198.98 226.48C199.18 226.293 199.4 225.967 199.64 225.5C199.893 225.02 200.133 224.427 200.36 223.72C200.6 223 200.84 222.053 201.08 220.88C201.333 219.693 201.56 218.36 201.76 216.88C201.773 216.84 201.76 216.807 201.72 216.78C201.693 216.74 201.66 216.727 201.62 216.74ZM198.4 229.26C197.32 229.26 196.327 228.64 195.42 227.4C194.513 226.16 194.06 224.647 194.06 222.86C194.06 220.273 194.94 218.173 196.7 216.56C198.46 214.947 200.76 214.14 203.6 214.14C205.893 214.14 207.787 214.86 209.28 216.3C210.787 217.74 211.54 219.573 211.54 221.8C211.54 223.893 211.053 225.62 210.08 226.98C209.12 228.327 207.8 229.187 206.12 229.56C205.8 229.627 205.507 229.567 205.24 229.38C204.987 229.193 204.827 228.94 204.76 228.62L204.72 228.44C204.653 228.147 204.707 227.873 204.88 227.62C205.053 227.367 205.287 227.193 205.58 227.1C207.86 226.393 209 224.627 209 221.8C209 220.44 208.593 219.293 207.78 218.36C206.98 217.413 205.927 216.833 204.62 216.62C204.5 216.593 204.427 216.64 204.4 216.76C204.133 218.773 203.833 220.527 203.5 222.02C203.167 223.5 202.813 224.7 202.44 225.62C202.08 226.527 201.673 227.26 201.22 227.82C200.767 228.367 200.32 228.747 199.88 228.96C199.44 229.16 198.947 229.26 198.4 229.26ZM216.54 213.9C216.78 213.687 217.053 213.587 217.36 213.6C217.68 213.613 217.947 213.733 218.16 213.96C218.573 214.387 219.193 215.053 220.02 215.96C220.233 216.2 220.327 216.48 220.3 216.8C220.287 217.107 220.167 217.367 219.94 217.58L219.92 217.62C219.693 217.833 219.42 217.933 219.1 217.92C218.793 217.893 218.533 217.767 218.32 217.54C217.707 216.86 217.073 216.187 216.42 215.52C216.207 215.307 216.1 215.047 216.1 214.74C216.113 214.42 216.233 214.16 216.46 213.96L216.54 213.9ZM216.44 222.34C216.147 222.34 215.887 222.233 215.66 222.02C215.447 221.793 215.34 221.533 215.34 221.24C215.34 220.947 215.447 220.693 215.66 220.48C215.887 220.253 216.147 220.14 216.44 220.14H218.94C219.247 220.14 219.507 220.253 219.72 220.48C219.947 220.693 220.06 220.953 220.06 221.26V226.28C220.06 226.373 220.093 226.473 220.16 226.58C220.467 227.087 220.86 227.46 221.34 227.7C221.82 227.94 222.573 228.12 223.6 228.24C224.64 228.347 226.153 228.4 228.14 228.4H232.36C232.667 228.4 232.92 228.513 233.12 228.74C233.32 228.953 233.413 229.207 233.4 229.5C233.373 229.807 233.247 230.067 233.02 230.28C232.807 230.493 232.547 230.6 232.24 230.6H228.06C225.5 230.6 223.547 230.467 222.2 230.2C220.853 229.947 219.847 229.5 219.18 228.86C219.087 228.793 219 228.793 218.92 228.86C218.44 229.287 217.853 229.76 217.16 230.28C216.907 230.453 216.633 230.507 216.34 230.44C216.047 230.373 215.827 230.207 215.68 229.94L215.6 229.8C215.44 229.52 215.393 229.227 215.46 228.92C215.54 228.613 215.713 228.367 215.98 228.18C216.66 227.687 217.133 227.327 217.4 227.1C217.493 227.007 217.54 226.907 217.54 226.8V222.5C217.54 222.393 217.48 222.34 217.36 222.34H216.44ZM227.98 213.64C227.967 213.707 227.94 213.807 227.9 213.94C227.86 214.073 227.833 214.173 227.82 214.24C227.793 214.347 227.833 214.4 227.94 214.4H230.94C231.247 214.4 231.507 214.513 231.72 214.74C231.947 214.967 232.06 215.233 232.06 215.54V219.02C232.06 219.327 231.947 219.593 231.72 219.82C231.507 220.033 231.247 220.14 230.94 220.14H224.28C224.16 220.14 224.1 220.2 224.1 220.32V221.1C224.1 221.207 224.16 221.26 224.28 221.26H231.4C231.707 221.26 231.973 221.373 232.2 221.6C232.427 221.827 232.54 222.093 232.54 222.4V225.92C232.54 226.227 232.427 226.493 232.2 226.72C231.973 226.933 231.707 227.04 231.4 227.04H224.1H222.64C222.333 227.04 222.067 226.933 221.84 226.72C221.613 226.493 221.5 226.227 221.5 225.92V215.54C221.5 215.233 221.613 214.967 221.84 214.74C222.067 214.513 222.333 214.4 222.64 214.4H224.9C224.993 214.4 225.067 214.34 225.12 214.22C225.227 213.873 225.307 213.607 225.36 213.42C225.453 213.1 225.627 212.847 225.88 212.66C226.147 212.473 226.44 212.393 226.76 212.42L227.14 212.46C227.447 212.487 227.68 212.62 227.84 212.86C228.013 213.087 228.06 213.347 227.98 213.64ZM224.28 223.36C224.16 223.36 224.1 223.413 224.1 223.52V224.9C224.1 225.007 224.16 225.06 224.28 225.06H229.7C229.807 225.06 229.86 225.007 229.86 224.9V223.52C229.86 223.413 229.807 223.36 229.7 223.36H224.28ZM229.22 216.56H224.28C224.16 216.56 224.1 216.613 224.1 216.72V218C224.1 218.107 224.16 218.16 224.28 218.16H229.22C229.34 218.16 229.4 218.107 229.4 218V216.72C229.4 216.613 229.34 216.56 229.22 216.56ZM237.54 228.3C237.38 228.033 237.34 227.753 237.42 227.46C237.5 227.153 237.673 226.92 237.94 226.76C239.62 225.747 241.16 224.64 242.56 223.44C242.787 223.24 243.047 223.16 243.34 223.2C243.647 223.24 243.893 223.38 244.08 223.62L244.1 223.64C244.287 223.893 244.367 224.187 244.34 224.52C244.313 224.84 244.18 225.107 243.94 225.32C242.607 226.52 241.007 227.693 239.14 228.84C238.873 229 238.587 229.04 238.28 228.96C237.987 228.867 237.767 228.687 237.62 228.42L237.54 228.3ZM242.24 222.08C242.013 222.293 241.747 222.387 241.44 222.36C241.133 222.333 240.88 222.207 240.68 221.98C240.333 221.58 239.76 220.967 238.96 220.14C238.747 219.913 238.64 219.647 238.64 219.34C238.653 219.033 238.773 218.773 239 218.56C239.24 218.333 239.513 218.227 239.82 218.24C240.14 218.24 240.413 218.353 240.64 218.58C241.427 219.393 242 220 242.36 220.4C242.573 220.64 242.667 220.92 242.64 221.24C242.627 221.547 242.507 221.813 242.28 222.04L242.24 222.08ZM238.18 216.94C237.873 216.94 237.613 216.833 237.4 216.62C237.187 216.393 237.08 216.133 237.08 215.84C237.08 215.547 237.187 215.293 237.4 215.08C237.613 214.853 237.873 214.74 238.18 214.74H244.76C244.88 214.74 244.94 214.68 244.94 214.56V213.56C244.94 213.253 245.047 212.993 245.26 212.78C245.487 212.553 245.753 212.44 246.06 212.44H246.46C246.767 212.44 247.033 212.553 247.26 212.78C247.487 212.993 247.6 213.253 247.6 213.56V214.56C247.6 214.68 247.66 214.74 247.78 214.74H250.58C250.673 214.74 250.687 214.693 250.62 214.6C250.593 214.573 250.5 214.467 250.34 214.28C250.193 214.08 250.073 213.933 249.98 213.84C249.807 213.64 249.747 213.413 249.8 213.16C249.867 212.893 250.027 212.707 250.28 212.6C250.573 212.467 250.88 212.433 251.2 212.5C251.533 212.567 251.807 212.727 252.02 212.98C252.06 213.02 252.327 213.347 252.82 213.96C252.967 214.133 253.02 214.34 252.98 214.58C252.953 214.687 253 214.74 253.12 214.74H253.78C254.087 214.74 254.347 214.853 254.56 215.08C254.773 215.293 254.88 215.547 254.88 215.84C254.88 216.133 254.773 216.393 254.56 216.62C254.347 216.833 254.087 216.94 253.78 216.94H247.74C247.647 216.94 247.6 216.98 247.6 217.06C247.6 217.127 247.613 217.213 247.64 217.32C248.067 218.507 248.647 219.733 249.38 221C249.433 221.107 249.5 221.12 249.58 221.04C250.327 220.333 251.06 219.54 251.78 218.66C251.98 218.42 252.233 218.28 252.54 218.24C252.847 218.2 253.127 218.273 253.38 218.46L253.52 218.58C253.773 218.767 253.92 219.013 253.96 219.32C254 219.613 253.927 219.887 253.74 220.14C252.9 221.22 251.973 222.213 250.96 223.12C250.88 223.2 250.873 223.28 250.94 223.36C252.02 224.8 253.227 226.107 254.56 227.28C254.787 227.48 254.913 227.74 254.94 228.06C254.98 228.367 254.9 228.633 254.7 228.86L254.48 229.12C254.267 229.36 254 229.493 253.68 229.52C253.373 229.547 253.1 229.453 252.86 229.24C250.847 227.427 249.12 225.187 247.68 222.52C247.653 222.507 247.627 222.52 247.6 222.56V227.44C247.6 228.24 247.573 228.833 247.52 229.22C247.48 229.607 247.34 229.92 247.1 230.16C246.86 230.413 246.56 230.567 246.2 230.62C245.853 230.673 245.307 230.7 244.56 230.7C244.147 230.7 243.5 230.68 242.62 230.64C242.3 230.627 242.02 230.507 241.78 230.28C241.54 230.053 241.413 229.78 241.4 229.46C241.387 229.167 241.48 228.913 241.68 228.7C241.893 228.473 242.153 228.367 242.46 228.38C243.193 228.42 243.72 228.44 244.04 228.44C244.48 228.44 244.74 228.4 244.82 228.32C244.9 228.227 244.94 227.953 244.94 227.5V217.1C244.94 216.993 244.88 216.94 244.76 216.94H238.18Z" fill="white"/>
</svg>
